  0
SECTION
  2
HEADER
  9
$ACADVER
  1
AC1014
  9
$HANDSEED
  5
FFFF
  9
$MEASUREMENT
 70
     1
  0
ENDSEC
  0
SECTION
  2
TABLES
  0
TABLE
  2
VPORT
  5
8
330
0
100
AcDbSymbolTable
 70
     4
  0
VPORT
  5
2E
330
8
100
AcDbSymbolTableRecord
100
AcDbViewportTableRecord
  2
*ACTIVE
 70
     0
 10
0.0
 20
0.0
 11
1.0
 21
1.0
 12
210.0
 22
148.5
 13
0.0
 23
0.0
 14
10.0
 24
10.0
 15
10.0
 25
10.0
 16
0.0
 26
0.0
 36
1.0
 17
0.0
 27
0.0
 37
0.0
 40
341.0
 41
1.24
 42
50.0
 43
0.0
 44
0.0
 50
0.0
 51
0.0
 71
     0
 72
   100
 73
     1
 74
     3
 75
     0
 76
     0
 77
     0
 78
     0
  0
ENDTAB
  0
TABLE
  2
LTYPE
  5
5
330
0
100
AcDbSymbolTable
 70
     1
  0
LTYPE
  5
14
330
5
100
AcDbSymbolTableRecord
100
AcDbLinetypeTableRecord
  2
BYBLOCK
 70
     0
  3

 72
    65
 73
     0
 40
0.0
  0
LTYPE
  5
15
330
5
100
AcDbSymbolTableRecord
100
AcDbLinetypeTableRecord
  2
BYLAYER
 70
     0
  3

 72
    65
 73
     0
 40
0.0
  0
LTYPE
  5
16
330
5
100
AcDbSymbolTableRecord
100
AcDbLinetypeTableRecord
  2
CONTINUOUS
 70
     0
  3
Solid line
 72
    65
 73
     0
 40
0.0
  0
ENDTAB
  0
TABLE
  2
LAYER
  5
2
100
AcDbSymbolTable
 70
2
  0
LAYER
  5
50
100
AcDbSymbolTableRecord
100
AcDbLayerTableRecord
  2
0
 70
0
  6
CONTINUOUS
  0
LAYER
  5
51
100
AcDbSymbolTableRecord
100
AcDbLayerTableRecord
  2
Layer_1
 70
0
  6
CONTINUOUS
  0
ENDTAB
  0
TABLE
  2
STYLE
  5
3
330
0
100
AcDbSymbolTable
 70
     1
  0
STYLE
  5
11
330
3
100
AcDbSymbolTableRecord
100
AcDbTextStyleTableRecord
  2
STANDARD
 70
     0
 40
0.0
 41
1.0
 50
0.0
 71
     0
 42
2.5
  3
txt
  4

  0
ENDTAB
  0
TABLE
  2
VIEW
  5
6
330
0
100
AcDbSymbolTable
 70
     0
  0
ENDTAB
  0
TABLE
  2
UCS
  5
7
330
0
100
AcDbSymbolTable
 70
     0
  0
ENDTAB
  0
TABLE
  2
APPID
  5
9
330
0
100
AcDbSymbolTable
 70
     2
  0
APPID
  5
12
330
9
100
AcDbSymbolTableRecord
100
AcDbRegAppTableRecord
  2
ACAD
 70
     0
  0
ENDTAB
  0
TABLE
  2
DIMSTYLE
  5
A
330
0
100
AcDbSymbolTable
 70
     1
  0
DIMSTYLE
105
27
330
A
100
AcDbSymbolTableRecord
100
AcDbDimStyleTableRecord
  2
ISO-25
 70
     0
  3

  4

  5

  6

  7

 40
1.0
 41
2.5
 42
0.625
 43
3.75
 44
1.25
 45
0.0
 46
0.0
 47
0.0
 48
0.0
140
2.5
141
2.5
142
0.0
143
0.03937007874016
144
1.0
145
0.0
146
1.0
147
0.625
 71
     0
 72
     0
 73
     0
 74
     0
 75
     0
 76
     0
 77
     1
 78
     8
170
     0
171
     3
172
     1
173
     0
174
     0
175
     0
176
     0
177
     0
178
     0
270
     2
271
     2
272
     2
273
     2
274
     3
340
11
275
     0
280
     0
281
     0
282
     0
283
     0
284
     8
285
     0
286
     0
287
     3
288
     0
  0
ENDTAB
  0
TABLE
  2
BLOCK_RECORD
  5
1
330
0
100
AcDbSymbolTable
 70
     1
  0
BLOCK_RECORD
  5
1F
330
1
100
AcDbSymbolTableRecord
100
AcDbBlockTableRecord
  2
*MODEL_SPACE
  0
BLOCK_RECORD
  5
1B
330
1
100
AcDbSymbolTableRecord
100
AcDbBlockTableRecord
  2
*PAPER_SPACE
  0
ENDTAB
  0
ENDSEC
  0
SECTION
  2
BLOCKS
  0
BLOCK
  5
20
330
1F
100
AcDbEntity
  8
0
100
AcDbBlockBegin
  2
*MODEL_SPACE
 70
     0
 10
0.0
 20
0.0
 30
0.0
  3
*MODEL_SPACE
  1

  0
ENDBLK
  5
21
330
1F
100
AcDbEntity
  8
0
100
AcDbBlockEnd
  0
BLOCK
  5
1C
330
1B
100
AcDbEntity
 67
     1
  8
0
100
AcDbBlockBegin
  2
*PAPER_SPACE
  1

  0
ENDBLK
  5
1D
330
1B
100
AcDbEntity
 67
     1
  8
0
100
AcDbBlockEnd
  0
ENDSEC
  0
SECTION
  2
ENTITIES
  0
LWPOLYLINE
  5
100
100
AcDbEntity
  8
Layer_1
 62
7
100
AcDbPolyline
 90
65
 70
0
 10
22.117431
 20
11.787559
 30
0.0
 10
22.106791
 20
11.598238
 30
0.0
 10
22.075702
 20
11.412288
 30
0.0
 10
22.025373
 20
11.230923
 30
0.0
 10
21.957030
 20
11.055370
 30
0.0
 10
21.871892
 20
10.886846
 30
0.0
 10
21.771178
 20
10.726572
 30
0.0
 10
21.656113
 20
10.575770
 30
0.0
 10
21.527914
 20
10.435661
 30
0.0
 10
21.387805
 20
10.307461
 30
0.0
 10
21.237002
 20
10.192396
 30
0.0
 10
21.076728
 20
10.091685
 30
0.0
 10
20.908202
 20
10.006547
 30
0.0
 10
20.732648
 20
9.938204
 30
0.0
 10
20.551287
 20
9.887879
 30
0.0
 10
20.365333
 20
9.856786
 30
0.0
 10
20.176013
 20
9.846146
 30
0.0
 10
19.986693
 20
9.856786
 30
0.0
 10
19.800739
 20
9.887879
 30
0.0
 10
19.619378
 20
9.938207
 30
0.0
 10
19.443824
 20
10.006550
 30
0.0
 10
19.275298
 20
10.091685
 30
0.0
 10
19.115024
 20
10.192399
 30
0.0
 10
18.964221
 20
10.307464
 30
0.0
 10
18.824112
 20
10.435661
 30
0.0
 10
18.695913
 20
10.575770
 30
0.0
 10
18.580848
 20
10.726572
 30
0.0
 10
18.480134
 20
10.886846
 30
0.0
 10
18.394996
 20
11.055370
 30
0.0
 10
18.326653
 20
11.230923
 30
0.0
 10
18.276324
 20
11.412288
 30
0.0
 10
18.245235
 20
11.598238
 30
0.0
 10
18.234595
 20
11.787559
 30
0.0
 10
18.245235
 20
11.976882
 30
0.0
 10
18.276327
 20
12.162835
 30
0.0
 10
18.326653
 20
12.344200
 30
0.0
 10
18.394996
 20
12.519756
 30
0.0
 10
18.480134
 20
12.688282
 30
0.0
 10
18.580845
 20
12.848559
 30
0.0
 10
18.695910
 20
12.999362
 30
0.0
 10
18.824109
 20
13.139474
 30
0.0
 10
18.964219
 20
13.267676
 30
0.0
 10
19.115021
 20
13.382741
 30
0.0
 10
19.275295
 20
13.483455
 30
0.0
 10
19.443821
 20
13.568595
 30
0.0
 10
19.619375
 20
13.636938
 30
0.0
 10
19.800739
 20
13.687267
 30
0.0
 10
19.986693
 20
13.718359
 30
0.0
 10
20.176016
 20
13.728999
 30
0.0
 10
20.365339
 20
13.718359
 30
0.0
 10
20.551292
 20
13.687267
 30
0.0
 10
20.732657
 20
13.636938
 30
0.0
 10
20.908210
 20
13.568593
 30
0.0
 10
21.076737
 20
13.483455
 30
0.0
 10
21.237011
 20
13.382741
 30
0.0
 10
21.387813
 20
13.267673
 30
0.0
 10
21.527922
 20
13.139474
 30
0.0
 10
21.656122
 20
12.999362
 30
0.0
 10
21.771187
 20
12.848556
 30
0.0
 10
21.871898
 20
12.688282
 30
0.0
 10
21.957036
 20
12.519756
 30
0.0
 10
22.025379
 20
12.344200
 30
0.0
 10
22.075704
 20
12.162835
 30
0.0
 10
22.106797
 20
11.976882
 30
0.0
 10
22.117431
 20
11.787559
 30
0.0
  0
LWPOLYLINE
  5
101
100
AcDbEntity
  8
Layer_1
 62
7
100
AcDbPolyline
 90
65
 70
0
 10
230.117456
 20
11.787559
 30
0.0
 10
230.106819
 20
11.598238
 30
0.0
 10
230.075727
 20
11.412288
 30
0.0
 10
230.025399
 20
11.230923
 30
0.0
 10
229.957056
 20
11.055370
 30
0.0
 10
229.871918
 20
10.886846
 30
0.0
 10
229.771206
 20
10.726572
 30
0.0
 10
229.656141
 20
10.575770
 30
0.0
 10
229.527942
 20
10.435661
 30
0.0
 10
229.387832
 20
10.307464
 30
0.0
 10
229.237029
 20
10.192399
 30
0.0
 10
229.076756
 20
10.091685
 30
0.0
 10
228.908232
 20
10.006550
 30
0.0
 10
228.732678
 20
9.938207
 30
0.0
 10
228.551314
 20
9.887879
 30
0.0
 10
228.365362
 20
9.856786
 30
0.0
 10
228.176042
 20
9.846146
 30
0.0
 10
227.986722
 20
9.856786
 30
0.0
 10
227.800770
 20
9.887879
 30
0.0
 10
227.619406
 20
9.938207
 30
0.0
 10
227.443852
 20
10.006547
 30
0.0
 10
227.275328
 20
10.091685
 30
0.0
 10
227.115054
 20
10.192396
 30
0.0
 10
226.964252
 20
10.307461
 30
0.0
 10
226.824141
 20
10.435661
 30
0.0
 10
226.695942
 20
10.575770
 30
0.0
 10
226.580876
 20
10.726572
 30
0.0
 10
226.480164
 20
10.886846
 30
0.0
 10
226.395026
 20
11.055370
 30
0.0
 10
226.326683
 20
11.230923
 30
0.0
 10
226.276355
 20
11.412288
 30
0.0
 10
226.245263
 20
11.598238
 30
0.0
 10
226.234626
 20
11.787559
 30
0.0
 10
226.245260
 20
11.976882
 30
0.0
 10
226.276351
 20
12.162835
 30
0.0
 10
226.326678
 20
12.344200
 30
0.0
 10
226.395021
 20
12.519756
 30
0.0
 10
226.480158
 20
12.688282
 30
0.0
 10
226.580870
 20
12.848559
 30
0.0
 10
226.695935
 20
12.999362
 30
0.0
 10
226.824133
 20
13.139474
 30
0.0
 10
226.964244
 20
13.267676
 30
0.0
 10
227.115047
 20
13.382741
 30
0.0
 10
227.275321
 20
13.483455
 30
0.0
 10
227.443846
 20
13.568595
 30
0.0
 10
227.619401
 20
13.636938
 30
0.0
 10
227.800765
 20
13.687267
 30
0.0
 10
227.986719
 20
13.718359
 30
0.0
 10
228.176041
 20
13.728999
 30
0.0
 10
228.365362
 20
13.718359
 30
0.0
 10
228.551316
 20
13.687267
 30
0.0
 10
228.732680
 20
13.636938
 30
0.0
 10
228.908235
 20
13.568593
 30
0.0
 10
229.076760
 20
13.483455
 30
0.0
 10
229.237034
 20
13.382741
 30
0.0
 10
229.387836
 20
13.267673
 30
0.0
 10
229.527947
 20
13.139474
 30
0.0
 10
229.656145
 20
12.999362
 30
0.0
 10
229.771210
 20
12.848556
 30
0.0
 10
229.871922
 20
12.688282
 30
0.0
 10
229.957059
 20
12.519756
 30
0.0
 10
230.025401
 20
12.344200
 30
0.0
 10
230.075728
 20
12.162835
 30
0.0
 10
230.106819
 20
11.976882
 30
0.0
 10
230.117456
 20
11.787559
 30
0.0
  0
LWPOLYLINE
  5
102
100
AcDbEntity
  8
Layer_1
 62
7
100
AcDbPolyline
 90
65
 70
0
 10
22.117431
 20
325.787568
 30
0.0
 10
22.106791
 20
325.598248
 30
0.0
 10
22.075699
 20
325.412295
 30
0.0
 10
22.025373
 20
325.230930
 30
0.0
 10
21.957030
 20
325.055377
 30
0.0
 10
21.871892
 20
324.886851
 30
0.0
 10
21.771178
 20
324.726577
 30
0.0
 10
21.656113
 20
324.575774
 30
0.0
 10
21.527914
 20
324.435662
 30
0.0
 10
21.387805
 20
324.307465
 30
0.0
 10
21.237002
 20
324.192398
 30
0.0
 10
21.076728
 20
324.091687
 30
0.0
 10
20.908202
 20
324.006549
 30
0.0
 10
20.732648
 20
323.938206
 30
0.0
 10
20.551284
 20
323.887877
 30
0.0
 10
20.365331
 20
323.856785
 30
0.0
 10
20.176010
 20
323.846145
 30
0.0
 10
19.986690
 20
323.856785
 30
0.0
 10
19.800737
 20
323.887877
 30
0.0
 10
19.619372
 20
323.938206
 30
0.0
 10
19.443819
 20
324.006549
 30
0.0
 10
19.275292
 20
324.091687
 30
0.0
 10
19.115018
 20
324.192398
 30
0.0
 10
18.964216
 20
324.307465
 30
0.0
 10
18.824107
 20
324.435665
 30
0.0
 10
18.695907
 20
324.575774
 30
0.0
 10
18.580842
 20
324.726577
 30
0.0
 10
18.480128
 20
324.886851
 30
0.0
 10
18.394990
 20
325.055377
 30
0.0
 10
18.326648
 20
325.230930
 30
0.0
 10
18.276322
 20
325.412295
 30
0.0
 10
18.245229
 20
325.598248
 30
0.0
 10
18.234589
 20
325.787568
 30
0.0
 10
18.245229
 20
325.976889
 30
0.0
 10
18.276319
 20
326.162842
 30
0.0
 10
18.326648
 20
326.344204
 30
0.0
 10
18.394990
 20
326.519760
 30
0.0
 10
18.480128
 20
326.688283
 30
0.0
 10
18.580842
 20
326.848557
 30
0.0
 10
18.695907
 20
326.999360
 30
0.0
 10
18.824104
 20
327.139469
 30
0.0
 10
18.964216
 20
327.267669
 30
0.0
 10
19.115018
 20
327.382734
 30
0.0
 10
19.275292
 20
327.483447
 30
0.0
 10
19.443816
 20
327.568583
 30
0.0
 10
19.619372
 20
327.636926
 30
0.0
 10
19.800734
 20
327.687254
 30
0.0
 10
19.986687
 20
327.718347
 30
0.0
 10
20.176007
 20
327.728986
 30
0.0
 10
20.365328
 20
327.718347
 30
0.0
 10
20.551281
 20
327.687254
 30
0.0
 10
20.732643
 20
327.636926
 30
0.0
 10
20.908199
 20
327.568583
 30
0.0
 10
21.076722
 20
327.483445
 30
0.0
 10
21.236996
 20
327.382734
 30
0.0
 10
21.387799
 20
327.267669
 30
0.0
 10
21.527911
 20
327.139469
 30
0.0
 10
21.656108
 20
326.999360
 30
0.0
 10
21.771173
 20
326.848557
 30
0.0
 10
21.871886
 20
326.688283
 30
0.0
 10
21.957024
 20
326.519760
 30
0.0
 10
22.025367
 20
326.344204
 30
0.0
 10
22.075696
 20
326.162842
 30
0.0
 10
22.106786
 20
325.976889
 30
0.0
 10
22.117431
 20
325.787568
 30
0.0
  0
LWPOLYLINE
  5
103
100
AcDbEntity
  8
Layer_1
 62
7
100
AcDbPolyline
 90
65
 70
0
 10
230.117456
 20
325.787568
 30
0.0
 10
230.106822
 20
325.598248
 30
0.0
 10
230.075731
 20
325.412295
 30
0.0
 10
230.025404
 20
325.230930
 30
0.0
 10
229.957061
 20
325.055377
 30
0.0
 10
229.871923
 20
324.886851
 30
0.0
 10
229.771211
 20
324.726577
 30
0.0
 10
229.656146
 20
324.575774
 30
0.0
 10
229.527948
 20
324.435665
 30
0.0
 10
229.387837
 20
324.307465
 30
0.0
 10
229.237034
 20
324.192398
 30
0.0
 10
229.076760
 20
324.091687
 30
0.0
 10
228.908236
 20
324.006549
 30
0.0
 10
228.732681
 20
323.938206
 30
0.0
 10
228.551318
 20
323.887877
 30
0.0
 10
228.365365
 20
323.856785
 30
0.0
 10
228.176044
 20
323.846145
 30
0.0
 10
227.986723
 20
323.856785
 30
0.0
 10
227.800770
 20
323.887877
 30
0.0
 10
227.619406
 20
323.938206
 30
0.0
 10
227.443851
 20
324.006549
 30
0.0
 10
227.275327
 20
324.091687
 30
0.0
 10
227.115052
 20
324.192398
 30
0.0
 10
226.964250
 20
324.307465
 30
0.0
 10
226.824139
 20
324.435662
 30
0.0
 10
226.695940
 20
324.575774
 30
0.0
 10
226.580875
 20
324.726577
 30
0.0
 10
226.480163
 20
324.886851
 30
0.0
 10
226.395025
 20
325.055377
 30
0.0
 10
226.326682
 20
325.230930
 30
0.0
 10
226.276355
 20
325.412295
 30
0.0
 10
226.245263
 20
325.598248
 30
0.0
 10
226.234629
 20
325.787568
 30
0.0
 10
226.245263
 20
325.976889
 30
0.0
 10
226.276356
 20
326.162842
 30
0.0
 10
226.326683
 20
326.344204
 30
0.0
 10
226.395027
 20
326.519760
 30
0.0
 10
226.480165
 20
326.688283
 30
0.0
 10
226.580877
 20
326.848557
 30
0.0
 10
226.695942
 20
326.999360
 30
0.0
 10
226.824141
 20
327.139469
 30
0.0
 10
226.964251
 20
327.267669
 30
0.0
 10
227.115054
 20
327.382734
 30
0.0
 10
227.275328
 20
327.483447
 30
0.0
 10
227.443852
 20
327.568583
 30
0.0
 10
227.619406
 20
327.636926
 30
0.0
 10
227.800770
 20
327.687254
 30
0.0
 10
227.986722
 20
327.718347
 30
0.0
 10
228.176043
 20
327.728986
 30
0.0
 10
228.365364
 20
327.718347
 30
0.0
 10
228.551316
 20
327.687254
 30
0.0
 10
228.732679
 20
327.636926
 30
0.0
 10
228.908233
 20
327.568583
 30
0.0
 10
229.076757
 20
327.483445
 30
0.0
 10
229.237031
 20
327.382734
 30
0.0
 10
229.387833
 20
327.267669
 30
0.0
 10
229.527944
 20
327.139469
 30
0.0
 10
229.656142
 20
326.999360
 30
0.0
 10
229.771208
 20
326.848557
 30
0.0
 10
229.871920
 20
326.688283
 30
0.0
 10
229.957057
 20
326.519760
 30
0.0
 10
230.025401
 20
326.344204
 30
0.0
 10
230.075728
 20
326.162842
 30
0.0
 10
230.106821
 20
325.976889
 30
0.0
 10
230.117456
 20
325.787568
 30
0.0
  0
LWPOLYLINE
  5
104
100
AcDbEntity
  8
Layer_1
 62
7
100
AcDbPolyline
 90
37
 70
0
 10
11.332899
 20
335.846897
 30
0.0
 10
19.832899
 20
338.346898
 30
0.0
 10
48.832897
 20
308.346897
 30
0.0
 10
71.332897
 20
283.346899
 30
0.0
 10
94.892269
 20
283.346899
 30
0.0
 10
105.082896
 20
283.346899
 30
0.0
 10
114.457898
 20
283.346899
 30
0.0
 10
124.580557
 20
283.346899
 30
0.0
 10
133.207898
 20
283.346899
 30
0.0
 10
142.582897
 20
283.346899
 30
0.0
 10
151.957899
 20
283.346899
 30
0.0
 10
173.832898
 20
283.346899
 30
0.0
 10
198.832899
 20
308.346897
 30
0.0
 10
227.832898
 20
338.346898
 30
0.0
 10
236.332898
 20
335.846897
 30
0.0
 10
238.832898
 20
327.346897
 30
0.0
 10
218.832898
 20
303.346898
 30
0.0
 10
218.832898
 20
114.787553
 30
0.0
 10
233.700019
 20
99.787555
 30
0.0
 10
233.700019
 20
4.787544
 30
0.0
 10
218.700020
 20
4.787544
 30
0.0
 10
208.700020
 20
14.787553
 30
0.0
 10
208.700020
 20
56.238665
 30
0.0
 10
208.700020
 20
74.143111
 30
0.0
 10
198.700020
 20
84.787554
 30
0.0
 10
48.700018
 20
84.787554
 30
0.0
 10
38.700019
 20
73.578666
 30
0.0
 10
38.700019
 20
56.238665
 30
0.0
 10
38.700019
 20
14.787553
 30
0.0
 10
28.700019
 20
4.787544
 30
0.0
 10
13.700021
 20
4.787544
 30
0.0
 10
13.700021
 20
99.787555
 30
0.0
 10
28.832897
 20
114.787553
 30
0.0
 10
28.832897
 20
223.348251
 30
0.0
 10
28.832897
 20
303.348253
 30
0.0
 10
8.832898
 20
327.348252
 30
0.0
 10
11.332899
 20
335.846897
 30
0.0
  0
ENDSEC
  0
SECTION
  2
OBJECTS
  0
DICTIONARY
  5
C
330
0
100
AcDbDictionary
  3
ACAD_GROUP
350
D
  3
ACAD_MLINESTYLE
350
17
  0
DICTIONARY
  5
D
330
C
100
AcDbDictionary
  0
DICTIONARY
  5
1A
330
C
100
AcDbDictionary
  0
DICTIONARY
  5
17
330
C
100
AcDbDictionary
  3
STANDARD
350
18
  0
DICTIONARY
  5
19
330
C
100
AcDbDictionary
  0
ENDSEC
  0
EOF
