solid OpenSCAD_Model
  facet normal 0.978148 0.207912 0
    outer loop
      vertex 4.75 0 3.5
      vertex 4.33934 1.932 0
      vertex 4.33934 1.932 3.5
    endloop
  endfacet
  facet normal 0.978148 0.207912 0
    outer loop
      vertex 4.33934 1.932 0
      vertex 4.75 0 3.5
      vertex 4.75 0 0
    endloop
  endfacet
  facet normal 0.809017 0.587785 0
    outer loop
      vertex 4.33934 1.932 3.5
      vertex 3.17837 3.52994 0
      vertex 3.17837 3.52994 3.5
    endloop
  endfacet
  facet normal 0.809017 0.587785 0
    outer loop
      vertex 3.17837 3.52994 0
      vertex 4.33934 1.932 3.5
      vertex 4.33934 1.932 0
    endloop
  endfacet
  facet normal 0.5 0.866025 -0
    outer loop
      vertex 3.17837 3.52994 0
      vertex 1.46783 4.51752 3.5
      vertex 3.17837 3.52994 3.5
    endloop
  endfacet
  facet normal 0.5 0.866025 0
    outer loop
      vertex 1.46783 4.51752 3.5
      vertex 3.17837 3.52994 0
      vertex 1.46783 4.51752 0
    endloop
  endfacet
  facet normal 0.104528 0.994522 -0
    outer loop
      vertex 1.46783 4.51752 0
      vertex -0.49651 4.72398 3.5
      vertex 1.46783 4.51752 3.5
    endloop
  endfacet
  facet normal 0.104528 0.994522 0
    outer loop
      vertex -0.49651 4.72398 3.5
      vertex 1.46783 4.51752 0
      vertex -0.49651 4.72398 0
    endloop
  endfacet
  facet normal -0.309017 0.951057 0
    outer loop
      vertex -0.49651 4.72398 0
      vertex -2.375 4.11362 3.5
      vertex -0.49651 4.72398 3.5
    endloop
  endfacet
  facet normal -0.309017 0.951057 0
    outer loop
      vertex -2.375 4.11362 3.5
      vertex -0.49651 4.72398 0
      vertex -2.375 4.11362 0
    endloop
  endfacet
  facet normal -0.669131 0.743145 0
    outer loop
      vertex -2.375 4.11362 0
      vertex -3.84283 2.79198 3.5
      vertex -2.375 4.11362 3.5
    endloop
  endfacet
  facet normal -0.669131 0.743145 0
    outer loop
      vertex -3.84283 2.79198 3.5
      vertex -2.375 4.11362 0
      vertex -3.84283 2.79198 0
    endloop
  endfacet
  facet normal -0.913545 0.406737 0
    outer loop
      vertex -4.6462 0.987581 0
      vertex -3.84283 2.79198 3.5
      vertex -3.84283 2.79198 0
    endloop
  endfacet
  facet normal -0.913545 0.406737 0
    outer loop
      vertex -3.84283 2.79198 3.5
      vertex -4.6462 0.987581 0
      vertex -4.6462 0.987581 3.5
    endloop
  endfacet
  facet normal -1 0 0
    outer loop
      vertex -4.6462 -0.987581 0
      vertex -4.6462 0.987581 3.5
      vertex -4.6462 0.987581 0
    endloop
  endfacet
  facet normal -1 -0 0
    outer loop
      vertex -4.6462 0.987581 3.5
      vertex -4.6462 -0.987581 0
      vertex -4.6462 -0.987581 3.5
    endloop
  endfacet
  facet normal -0.913545 -0.406737 0
    outer loop
      vertex -3.84283 -2.79198 0
      vertex -4.6462 -0.987581 3.5
      vertex -4.6462 -0.987581 0
    endloop
  endfacet
  facet normal -0.913545 -0.406737 0
    outer loop
      vertex -4.6462 -0.987581 3.5
      vertex -3.84283 -2.79198 0
      vertex -3.84283 -2.79198 3.5
    endloop
  endfacet
  facet normal -0.669131 -0.743145 0
    outer loop
      vertex -3.84283 -2.79198 0
      vertex -2.375 -4.11362 3.5
      vertex -3.84283 -2.79198 3.5
    endloop
  endfacet
  facet normal -0.669131 -0.743145 -0
    outer loop
      vertex -2.375 -4.11362 3.5
      vertex -3.84283 -2.79198 0
      vertex -2.375 -4.11362 0
    endloop
  endfacet
  facet normal -0.309017 -0.951057 0
    outer loop
      vertex -2.375 -4.11362 0
      vertex -0.49651 -4.72398 3.5
      vertex -2.375 -4.11362 3.5
    endloop
  endfacet
  facet normal -0.309017 -0.951057 -0
    outer loop
      vertex -0.49651 -4.72398 3.5
      vertex -2.375 -4.11362 0
      vertex -0.49651 -4.72398 0
    endloop
  endfacet
  facet normal 0.104528 -0.994522 0
    outer loop
      vertex -0.49651 -4.72398 0
      vertex 1.46783 -4.51752 3.5
      vertex -0.49651 -4.72398 3.5
    endloop
  endfacet
  facet normal 0.104528 -0.994522 0
    outer loop
      vertex 1.46783 -4.51752 3.5
      vertex -0.49651 -4.72398 0
      vertex 1.46783 -4.51752 0
    endloop
  endfacet
  facet normal 0.5 -0.866025 0
    outer loop
      vertex 1.46783 -4.51752 0
      vertex 3.17837 -3.52994 3.5
      vertex 1.46783 -4.51752 3.5
    endloop
  endfacet
  facet normal 0.5 -0.866025 0
    outer loop
      vertex 3.17837 -3.52994 3.5
      vertex 1.46783 -4.51752 0
      vertex 3.17837 -3.52994 0
    endloop
  endfacet
  facet normal 0.809017 -0.587785 0
    outer loop
      vertex 3.17837 -3.52994 3.5
      vertex 4.33934 -1.932 0
      vertex 4.33934 -1.932 3.5
    endloop
  endfacet
  facet normal 0.809017 -0.587785 0
    outer loop
      vertex 4.33934 -1.932 0
      vertex 3.17837 -3.52994 3.5
      vertex 3.17837 -3.52994 0
    endloop
  endfacet
  facet normal 0.978148 -0.207912 0
    outer loop
      vertex 4.33934 -1.932 3.5
      vertex 4.75 0 0
      vertex 4.75 0 3.5
    endloop
  endfacet
  facet normal 0.978148 -0.207912 0
    outer loop
      vertex 4.75 0 0
      vertex 4.33934 -1.932 3.5
      vertex 4.33934 -1.932 0
    endloop
  endfacet
  facet normal 0 0 -1
    outer loop
      vertex 4.33934 -1.932 0
      vertex 4.33934 1.932 0
      vertex 4.75 0 0
    endloop
  endfacet
  facet normal 0 0 -1
    outer loop
      vertex 3.17837 -3.52994 0
      vertex 4.33934 1.932 0
      vertex 4.33934 -1.932 0
    endloop
  endfacet
  facet normal 0 0 -1
    outer loop
      vertex 3.17837 -3.52994 0
      vertex 3.17837 3.52994 0
      vertex 4.33934 1.932 0
    endloop
  endfacet
  facet normal 0 0 -1
    outer loop
      vertex 1.46783 -4.51752 0
      vertex 3.17837 3.52994 0
      vertex 3.17837 -3.52994 0
    endloop
  endfacet
  facet normal 0 0 -1
    outer loop
      vertex 1.46783 -4.51752 0
      vertex 1.46783 4.51752 0
      vertex 3.17837 3.52994 0
    endloop
  endfacet
  facet normal 0 0 -1
    outer loop
      vertex -0.49651 -4.72398 0
      vertex 1.46783 4.51752 0
      vertex 1.46783 -4.51752 0
    endloop
  endfacet
  facet normal 0 0 -1
    outer loop
      vertex -0.49651 -4.72398 0
      vertex -0.49651 4.72398 0
      vertex 1.46783 4.51752 0
    endloop
  endfacet
  facet normal 0 0 -1
    outer loop
      vertex -2.375 -4.11362 0
      vertex -0.49651 4.72398 0
      vertex -0.49651 -4.72398 0
    endloop
  endfacet
  facet normal 0 0 -1
    outer loop
      vertex -2.375 -4.11362 0
      vertex -2.375 4.11362 0
      vertex -0.49651 4.72398 0
    endloop
  endfacet
  facet normal 0 0 -1
    outer loop
      vertex -3.84283 -2.79198 0
      vertex -2.375 4.11362 0
      vertex -2.375 -4.11362 0
    endloop
  endfacet
  facet normal 0 0 -1
    outer loop
      vertex -3.84283 -2.79198 0
      vertex -3.84283 2.79198 0
      vertex -2.375 4.11362 0
    endloop
  endfacet
  facet normal 0 0 -1
    outer loop
      vertex -4.6462 -0.987581 0
      vertex -3.84283 2.79198 0
      vertex -3.84283 -2.79198 0
    endloop
  endfacet
  facet normal 0 0 -1
    outer loop
      vertex -3.84283 2.79198 0
      vertex -4.6462 -0.987581 0
      vertex -4.6462 0.987581 0
    endloop
  endfacet
  facet normal 0 0 1
    outer loop
      vertex 4.33934 1.932 3.5
      vertex 4.33934 -1.932 3.5
      vertex 4.75 0 3.5
    endloop
  endfacet
  facet normal 0 0 1
    outer loop
      vertex 3.17837 3.52994 3.5
      vertex 4.33934 -1.932 3.5
      vertex 4.33934 1.932 3.5
    endloop
  endfacet
  facet normal 0 0 1
    outer loop
      vertex 3.17837 3.52994 3.5
      vertex 3.17837 -3.52994 3.5
      vertex 4.33934 -1.932 3.5
    endloop
  endfacet
  facet normal 0 0 1
    outer loop
      vertex 1.46783 4.51752 3.5
      vertex 3.17837 -3.52994 3.5
      vertex 3.17837 3.52994 3.5
    endloop
  endfacet
  facet normal 0 0 1
    outer loop
      vertex 1.46783 4.51752 3.5
      vertex 1.46783 -4.51752 3.5
      vertex 3.17837 -3.52994 3.5
    endloop
  endfacet
  facet normal 0 0 1
    outer loop
      vertex -0.49651 4.72398 3.5
      vertex 1.46783 -4.51752 3.5
      vertex 1.46783 4.51752 3.5
    endloop
  endfacet
  facet normal 0 0 1
    outer loop
      vertex -0.49651 4.72398 3.5
      vertex -0.49651 -4.72398 3.5
      vertex 1.46783 -4.51752 3.5
    endloop
  endfacet
  facet normal -0 0 1
    outer loop
      vertex -2.375 4.11362 3.5
      vertex -0.49651 -4.72398 3.5
      vertex -0.49651 4.72398 3.5
    endloop
  endfacet
  facet normal 0 0 1
    outer loop
      vertex -2.375 4.11362 3.5
      vertex -2.375 -4.11362 3.5
      vertex -0.49651 -4.72398 3.5
    endloop
  endfacet
  facet normal -0 0 1
    outer loop
      vertex -3.84283 2.79198 3.5
      vertex -2.375 -4.11362 3.5
      vertex -2.375 4.11362 3.5
    endloop
  endfacet
  facet normal 0 0 1
    outer loop
      vertex -3.84283 2.79198 3.5
      vertex -3.84283 -2.79198 3.5
      vertex -2.375 -4.11362 3.5
    endloop
  endfacet
  facet normal -0 0 1
    outer loop
      vertex -4.6462 0.987581 3.5
      vertex -3.84283 -2.79198 3.5
      vertex -3.84283 2.79198 3.5
    endloop
  endfacet
  facet normal 0 0 1
    outer loop
      vertex -3.84283 -2.79198 3.5
      vertex -4.6462 0.987581 3.5
      vertex -4.6462 -0.987581 3.5
    endloop
  endfacet
endsolid OpenSCAD_Model
