solid OpenSCAD_Model
  facet normal 0.587833 0.808982 -0
    outer loop
      vertex 240.438 342.486 -1
      vertex 240.1 342.732 6
      vertex 240.438 342.486 6
    endloop
  endfacet
  facet normal 0.587833 0.808982 0
    outer loop
      vertex 240.1 342.732 6
      vertex 240.438 342.486 -1
      vertex 240.1 342.732 -1
    endloop
  endfacet
  facet normal 0.406694 0.913565 -0
    outer loop
      vertex 240.1 342.732 -1
      vertex 239.718 342.902 6
      vertex 240.1 342.732 6
    endloop
  endfacet
  facet normal 0.406694 0.913565 0
    outer loop
      vertex 239.718 342.902 6
      vertex 240.1 342.732 -1
      vertex 239.718 342.902 -1
    endloop
  endfacet
  facet normal 0.951061 0.309004 0
    outer loop
      vertex 241.056 341.416 6
      vertex 240.927 341.813 -1
      vertex 240.927 341.813 6
    endloop
  endfacet
  facet normal 0.951061 0.309004 0
    outer loop
      vertex 240.927 341.813 -1
      vertex 241.056 341.416 6
      vertex 241.056 341.416 -1
    endloop
  endfacet
  facet normal 0.994519 0.104554 0
    outer loop
      vertex 241.1 341 6
      vertex 241.056 341.416 -1
      vertex 241.056 341.416 6
    endloop
  endfacet
  facet normal 0.994519 0.104554 0
    outer loop
      vertex 241.056 341.416 -1
      vertex 241.1 341 6
      vertex 241.1 341 -1
    endloop
  endfacet
  facet normal -0.743127 -0.66915 0
    outer loop
      vertex 211.762 309.514 4
      vertex 211.482 309.824 6
      vertex 211.482 309.824 4
    endloop
  endfacet
  facet normal -0.743127 -0.66915 0
    outer loop
      vertex 211.482 309.824 6
      vertex 211.762 309.514 4
      vertex 211.762 309.514 6
    endloop
  endfacet
  facet normal -0.743127 -0.66915 0
    outer loop
      vertex 211.762 309.514 -0.4
      vertex 211.482 309.824 0
      vertex 211.482 309.824 -0.4
    endloop
  endfacet
  facet normal -0.743127 -0.66915 0
    outer loop
      vertex 211.482 309.824 0
      vertex 211.762 309.514 -0.4
      vertex 211.762 309.514 0
    endloop
  endfacet
  facet normal 0.743127 0.66915 0
    outer loop
      vertex 240.718 342.176 6
      vertex 240.438 342.486 -1
      vertex 240.438 342.486 6
    endloop
  endfacet
  facet normal 0.743127 0.66915 0
    outer loop
      vertex 240.438 342.486 -1
      vertex 240.718 342.176 6
      vertex 240.718 342.176 -1
    endloop
  endfacet
  facet normal 0.743127 -0.66915 0
    outer loop
      vertex 240.438 309.514 6
      vertex 240.718 309.824 -1
      vertex 240.718 309.824 6
    endloop
  endfacet
  facet normal 0.743127 -0.66915 0
    outer loop
      vertex 240.718 309.824 -1
      vertex 240.438 309.514 6
      vertex 240.438 309.514 -1
    endloop
  endfacet
  facet normal -0.743127 0.66915 0
    outer loop
      vertex 211.482 342.176 -0.4
      vertex 211.762 342.486 6
      vertex 211.762 342.486 -0.4
    endloop
  endfacet
  facet normal -0.743127 0.66915 0
    outer loop
      vertex 211.762 342.486 6
      vertex 211.482 342.176 -0.4
      vertex 211.482 342.176 6
    endloop
  endfacet
  facet normal 0.866018 0.500013 0
    outer loop
      vertex 240.927 341.813 6
      vertex 240.718 342.176 -1
      vertex 240.718 342.176 6
    endloop
  endfacet
  facet normal 0.866018 0.500013 0
    outer loop
      vertex 240.718 342.176 -1
      vertex 240.927 341.813 6
      vertex 240.927 341.813 -1
    endloop
  endfacet
  facet normal 1 -0 0
    outer loop
      vertex 241.1 311 6
      vertex 241.1 341 -1
      vertex 241.1 341 6
    endloop
  endfacet
  facet normal 1 0 0
    outer loop
      vertex 241.1 341 -1
      vertex 241.1 311 6
      vertex 241.1 311 -1
    endloop
  endfacet
  facet normal 0 0 1
    outer loop
      vertex 239.309 342.989 6
      vertex 241.1 341 6
      vertex 241.056 341.416 6
    endloop
  endfacet
  facet normal 0 0 1
    outer loop
      vertex 241.1 341 6
      vertex 230.7 326.3 6
      vertex 241.1 311 6
    endloop
  endfacet
  facet normal 0 0 1
    outer loop
      vertex 239.309 342.989 6
      vertex 241.056 341.416 6
      vertex 240.927 341.813 6
    endloop
  endfacet
  facet normal -0 0 1
    outer loop
      vertex 230.656 325.884 6
      vertex 241.1 311 6
      vertex 230.7 326.3 6
    endloop
  endfacet
  facet normal 0 0 1
    outer loop
      vertex 239.309 342.989 6
      vertex 240.927 341.813 6
      vertex 240.718 342.176 6
    endloop
  endfacet
  facet normal -0 0 1
    outer loop
      vertex 230.527 325.487 6
      vertex 241.1 311 6
      vertex 230.656 325.884 6
    endloop
  endfacet
  facet normal 0 0 1
    outer loop
      vertex 239.309 342.989 6
      vertex 240.718 342.176 6
      vertex 240.438 342.486 6
    endloop
  endfacet
  facet normal -0 0 1
    outer loop
      vertex 230.318 325.124 6
      vertex 241.1 311 6
      vertex 230.527 325.487 6
    endloop
  endfacet
  facet normal 0 0 1
    outer loop
      vertex 239.309 342.989 6
      vertex 240.438 342.486 6
      vertex 240.1 342.732 6
    endloop
  endfacet
  facet normal -0 0 1
    outer loop
      vertex 230.038 324.814 6
      vertex 241.1 311 6
      vertex 230.318 325.124 6
    endloop
  endfacet
  facet normal 0 0 1
    outer loop
      vertex 239.309 342.989 6
      vertex 240.1 342.732 6
      vertex 239.718 342.902 6
    endloop
  endfacet
  facet normal -0 0 1
    outer loop
      vertex 229.7 324.568 6
      vertex 241.1 311 6
      vertex 230.038 324.814 6
    endloop
  endfacet
  facet normal 0 0 1
    outer loop
      vertex 241.1 341 6
      vertex 239.309 342.989 6
      vertex 229.7 328.032 6
    endloop
  endfacet
  facet normal 0 -0 1
    outer loop
      vertex 239.309 309.011 6
      vertex 241.1 311 6
      vertex 229.7 324.568 6
    endloop
  endfacet
  facet normal 0 0 1
    outer loop
      vertex 241.1 311 6
      vertex 239.309 309.011 6
      vertex 241.056 310.584 6
    endloop
  endfacet
  facet normal 0 0 1
    outer loop
      vertex 241.1 341 6
      vertex 230.656 326.716 6
      vertex 230.7 326.3 6
    endloop
  endfacet
  facet normal 0 0 1
    outer loop
      vertex 241.1 341 6
      vertex 230.527 327.113 6
      vertex 230.656 326.716 6
    endloop
  endfacet
  facet normal 0 0 1
    outer loop
      vertex 241.1 341 6
      vertex 230.318 327.476 6
      vertex 230.527 327.113 6
    endloop
  endfacet
  facet normal 0 0 1
    outer loop
      vertex 241.1 341 6
      vertex 230.038 327.786 6
      vertex 230.318 327.476 6
    endloop
  endfacet
  facet normal 0 0 1
    outer loop
      vertex 241.1 341 6
      vertex 229.7 328.032 6
      vertex 230.038 327.786 6
    endloop
  endfacet
  facet normal 0 0 1
    outer loop
      vertex 239.309 342.989 6
      vertex 229.318 328.202 6
      vertex 229.7 328.032 6
    endloop
  endfacet
  facet normal 0 0 1
    outer loop
      vertex 239.309 342.989 6
      vertex 228.909 328.289 6
      vertex 229.318 328.202 6
    endloop
  endfacet
  facet normal 0 0 1
    outer loop
      vertex 239.309 342.989 6
      vertex 228.491 328.289 6
      vertex 228.909 328.289 6
    endloop
  endfacet
  facet normal -0 0 1
    outer loop
      vertex 212.891 342.989 6
      vertex 228.491 328.289 6
      vertex 239.309 342.989 6
    endloop
  endfacet
  facet normal 0 0 1
    outer loop
      vertex 228.491 328.289 6
      vertex 212.891 342.989 6
      vertex 228.082 328.202 6
    endloop
  endfacet
  facet normal 0 0 1
    outer loop
      vertex 228.082 328.202 6
      vertex 212.891 342.989 6
      vertex 227.7 328.032 6
    endloop
  endfacet
  facet normal 0 0 1
    outer loop
      vertex 227.7 328.032 6
      vertex 212.891 342.989 6
      vertex 227.362 327.786 6
    endloop
  endfacet
  facet normal 0 0 1
    outer loop
      vertex 226.873 327.113 6
      vertex 211.1 341 6
      vertex 226.744 326.716 6
    endloop
  endfacet
  facet normal 0 0 1
    outer loop
      vertex 227.082 327.476 6
      vertex 211.1 341 6
      vertex 226.873 327.113 6
    endloop
  endfacet
  facet normal 0 0 1
    outer loop
      vertex 227.362 327.786 6
      vertex 211.1 341 6
      vertex 227.082 327.476 6
    endloop
  endfacet
  facet normal -0 0 1
    outer loop
      vertex 211.1 341 6
      vertex 227.362 327.786 6
      vertex 212.891 342.989 6
    endloop
  endfacet
  facet normal 0 0 1
    outer loop
      vertex 240.927 310.187 6
      vertex 239.309 309.011 6
      vertex 240.718 309.824 6
    endloop
  endfacet
  facet normal 0 0 1
    outer loop
      vertex 240.718 309.824 6
      vertex 239.309 309.011 6
      vertex 240.438 309.514 6
    endloop
  endfacet
  facet normal 0 0 1
    outer loop
      vertex 240.1 309.268 6
      vertex 239.309 309.011 6
      vertex 239.718 309.098 6
    endloop
  endfacet
  facet normal 0 0 1
    outer loop
      vertex 240.438 309.514 6
      vertex 239.309 309.011 6
      vertex 240.1 309.268 6
    endloop
  endfacet
  facet normal 0 0 1
    outer loop
      vertex 241.056 310.584 6
      vertex 239.309 309.011 6
      vertex 240.927 310.187 6
    endloop
  endfacet
  facet normal -0 0 1
    outer loop
      vertex 229.318 324.398 6
      vertex 239.309 309.011 6
      vertex 229.7 324.568 6
    endloop
  endfacet
  facet normal -0 0 1
    outer loop
      vertex 228.909 324.311 6
      vertex 239.309 309.011 6
      vertex 229.318 324.398 6
    endloop
  endfacet
  facet normal -0 0 1
    outer loop
      vertex 228.491 324.311 6
      vertex 239.309 309.011 6
      vertex 228.909 324.311 6
    endloop
  endfacet
  facet normal 0 0 1
    outer loop
      vertex 212.891 309.011 6
      vertex 228.491 324.311 6
      vertex 228.082 324.398 6
    endloop
  endfacet
  facet normal 0 0 1
    outer loop
      vertex 212.891 309.011 6
      vertex 228.082 324.398 6
      vertex 227.7 324.568 6
    endloop
  endfacet
  facet normal 0 0 1
    outer loop
      vertex 212.891 309.011 6
      vertex 227.7 324.568 6
      vertex 227.362 324.814 6
    endloop
  endfacet
  facet normal 0 0 1
    outer loop
      vertex 211.1 311 6
      vertex 227.362 324.814 6
      vertex 227.082 325.124 6
    endloop
  endfacet
  facet normal 0 0 1
    outer loop
      vertex 226.744 326.716 6
      vertex 211.1 341 6
      vertex 226.7 326.3 6
    endloop
  endfacet
  facet normal 0 0 1
    outer loop
      vertex 211.1 311 6
      vertex 226.7 326.3 6
      vertex 211.1 341 6
    endloop
  endfacet
  facet normal 0 0 1
    outer loop
      vertex 226.7 326.3 6
      vertex 211.1 311 6
      vertex 226.744 325.884 6
    endloop
  endfacet
  facet normal 0 0 1
    outer loop
      vertex 226.744 325.884 6
      vertex 211.1 311 6
      vertex 226.873 325.487 6
    endloop
  endfacet
  facet normal 0 0 1
    outer loop
      vertex 226.873 325.487 6
      vertex 211.1 311 6
      vertex 227.082 325.124 6
    endloop
  endfacet
  facet normal 0 0 1
    outer loop
      vertex 211.1 341 6
      vertex 212.891 342.989 6
      vertex 212.482 342.902 6
    endloop
  endfacet
  facet normal 0 0 1
    outer loop
      vertex 227.362 324.814 6
      vertex 211.1 311 6
      vertex 212.891 309.011 6
    endloop
  endfacet
  facet normal 0 0 1
    outer loop
      vertex 211.1 341 6
      vertex 212.482 342.902 6
      vertex 212.1 342.732 6
    endloop
  endfacet
  facet normal 0 0 1
    outer loop
      vertex 228.491 324.311 6
      vertex 212.891 309.011 6
      vertex 239.309 309.011 6
    endloop
  endfacet
  facet normal 0 0 1
    outer loop
      vertex 211.1 341 6
      vertex 212.1 342.732 6
      vertex 211.762 342.486 6
    endloop
  endfacet
  facet normal 0 0 1
    outer loop
      vertex 212.891 309.011 6
      vertex 211.1 311 6
      vertex 212.482 309.098 6
    endloop
  endfacet
  facet normal 0 0 1
    outer loop
      vertex 211.1 341 6
      vertex 211.762 342.486 6
      vertex 211.482 342.176 6
    endloop
  endfacet
  facet normal 0 0 1
    outer loop
      vertex 212.482 309.098 6
      vertex 211.1 311 6
      vertex 212.1 309.268 6
    endloop
  endfacet
  facet normal 0 0 1
    outer loop
      vertex 211.1 341 6
      vertex 211.482 342.176 6
      vertex 211.273 341.813 6
    endloop
  endfacet
  facet normal 0 0 1
    outer loop
      vertex 212.1 309.268 6
      vertex 211.1 311 6
      vertex 211.762 309.514 6
    endloop
  endfacet
  facet normal 0 0 1
    outer loop
      vertex 211.1 341 6
      vertex 211.273 341.813 6
      vertex 211.144 341.416 6
    endloop
  endfacet
  facet normal 0 0 1
    outer loop
      vertex 211.762 309.514 6
      vertex 211.1 311 6
      vertex 211.482 309.824 6
    endloop
  endfacet
  facet normal 0 0 1
    outer loop
      vertex 211.482 309.824 6
      vertex 211.1 311 6
      vertex 211.273 310.187 6
    endloop
  endfacet
  facet normal 0 0 1
    outer loop
      vertex 211.273 310.187 6
      vertex 211.1 311 6
      vertex 211.144 310.584 6
    endloop
  endfacet
  facet normal 0 1 0
    outer loop
      vertex 239.309 342.989 6
      vertex 223.7 342.989 -0.4
      vertex 212.891 342.989 6
    endloop
  endfacet
  facet normal 0 1 -0
    outer loop
      vertex 239.309 342.989 -1
      vertex 223.7 342.989 -0.4
      vertex 239.309 342.989 6
    endloop
  endfacet
  facet normal 0 1 0
    outer loop
      vertex 223.7 342.989 -0.4
      vertex 239.309 342.989 -1
      vertex 223.7 342.989 -1
    endloop
  endfacet
  facet normal 0 1 0
    outer loop
      vertex 212.891 342.989 6
      vertex 223.7 342.989 -0.4
      vertex 212.891 342.989 -0.4
    endloop
  endfacet
  facet normal 0.207871 0.978156 -0
    outer loop
      vertex 239.718 342.902 -1
      vertex 239.309 342.989 6
      vertex 239.718 342.902 6
    endloop
  endfacet
  facet normal 0.207871 0.978156 0
    outer loop
      vertex 239.309 342.989 6
      vertex 239.718 342.902 -1
      vertex 239.309 342.989 -1
    endloop
  endfacet
  facet normal -1 0 0
    outer loop
      vertex 211.1 322.044 4
      vertex 211.1 341 -0.4
      vertex 211.1 322.044 0
    endloop
  endfacet
  facet normal -1 0 0
    outer loop
      vertex 211.1 311 -0.4
      vertex 211.1 322.044 0
      vertex 211.1 341 -0.4
    endloop
  endfacet
  facet normal -1 -0 0
    outer loop
      vertex 211.1 322.044 0
      vertex 211.1 311 -0.4
      vertex 211.1 311 0
    endloop
  endfacet
  facet normal -1 0 0
    outer loop
      vertex 211.1 341 -0.4
      vertex 211.1 322.044 4
      vertex 211.1 341 6
    endloop
  endfacet
  facet normal -1 0 0
    outer loop
      vertex 211.1 311 6
      vertex 211.1 322.044 4
      vertex 211.1 311 4
    endloop
  endfacet
  facet normal -1 0 0
    outer loop
      vertex 211.1 322.044 4
      vertex 211.1 311 6
      vertex 211.1 341 6
    endloop
  endfacet
  facet normal -0.994519 0.104554 0
    outer loop
      vertex 211.1 341 -0.4
      vertex 211.144 341.416 6
      vertex 211.144 341.416 -0.4
    endloop
  endfacet
  facet normal -0.994519 0.104554 0
    outer loop
      vertex 211.144 341.416 6
      vertex 211.1 341 -0.4
      vertex 211.1 341 6
    endloop
  endfacet
  facet normal -0.866018 0.500013 0
    outer loop
      vertex 211.273 341.813 -0.4
      vertex 211.482 342.176 6
      vertex 211.482 342.176 -0.4
    endloop
  endfacet
  facet normal -0.866018 0.500013 0
    outer loop
      vertex 211.482 342.176 6
      vertex 211.273 341.813 -0.4
      vertex 211.273 341.813 6
    endloop
  endfacet
  facet normal 0 -1 0
    outer loop
      vertex 223.7 309.011 -0.4
      vertex 212.891 309.011 0
      vertex 212.891 309.011 -0.4
    endloop
  endfacet
  facet normal 0 -1 0
    outer loop
      vertex 224.463 309.011 4
      vertex 212.891 309.011 6
      vertex 212.891 309.011 4
    endloop
  endfacet
  facet normal 0 -1 0
    outer loop
      vertex 212.891 309.011 6
      vertex 224.463 309.011 4
      vertex 239.309 309.011 6
    endloop
  endfacet
  facet normal 0 -1 0
    outer loop
      vertex 239.309 309.011 -1
      vertex 224.463 309.011 4
      vertex 224.463 309.011 0
    endloop
  endfacet
  facet normal 0 -1 0
    outer loop
      vertex 212.891 309.011 0
      vertex 223.7 309.011 -0.4
      vertex 224.463 309.011 0
    endloop
  endfacet
  facet normal 0 -1 0
    outer loop
      vertex 223.7 309.011 -1
      vertex 224.463 309.011 0
      vertex 223.7 309.011 -0.4
    endloop
  endfacet
  facet normal 0 -1 -0
    outer loop
      vertex 224.463 309.011 0
      vertex 223.7 309.011 -1
      vertex 239.309 309.011 -1
    endloop
  endfacet
  facet normal 0 -1 0
    outer loop
      vertex 224.463 309.011 4
      vertex 239.309 309.011 -1
      vertex 239.309 309.011 6
    endloop
  endfacet
  facet normal 0.951061 -0.309004 0
    outer loop
      vertex 240.927 310.187 6
      vertex 241.056 310.584 -1
      vertex 241.056 310.584 6
    endloop
  endfacet
  facet normal 0.951061 -0.309004 0
    outer loop
      vertex 241.056 310.584 -1
      vertex 240.927 310.187 6
      vertex 240.927 310.187 -1
    endloop
  endfacet
  facet normal 0.994519 -0.104554 0
    outer loop
      vertex 241.056 310.584 6
      vertex 241.1 311 -1
      vertex 241.1 311 6
    endloop
  endfacet
  facet normal 0.994519 -0.104554 0
    outer loop
      vertex 241.1 311 -1
      vertex 241.056 310.584 6
      vertex 241.056 310.584 -1
    endloop
  endfacet
  facet normal -0.406707 0.913559 0
    outer loop
      vertex 212.482 342.902 -0.4
      vertex 212.1 342.732 6
      vertex 212.482 342.902 6
    endloop
  endfacet
  facet normal -0.406707 0.913559 0
    outer loop
      vertex 212.1 342.732 6
      vertex 212.482 342.902 -0.4
      vertex 212.1 342.732 -0.4
    endloop
  endfacet
  facet normal -0.587816 0.808995 0
    outer loop
      vertex 212.1 342.732 -0.4
      vertex 211.762 342.486 6
      vertex 212.1 342.732 6
    endloop
  endfacet
  facet normal -0.587816 0.808995 0
    outer loop
      vertex 211.762 342.486 6
      vertex 212.1 342.732 -0.4
      vertex 211.762 342.486 -0.4
    endloop
  endfacet
  facet normal -0.207871 0.978156 0
    outer loop
      vertex 212.891 342.989 -0.4
      vertex 212.482 342.902 6
      vertex 212.891 342.989 6
    endloop
  endfacet
  facet normal -0.207871 0.978156 0
    outer loop
      vertex 212.482 342.902 6
      vertex 212.891 342.989 -0.4
      vertex 212.482 342.902 -0.4
    endloop
  endfacet
  facet normal -0.994519 -0.104554 0
    outer loop
      vertex 211.144 310.584 4
      vertex 211.1 311 6
      vertex 211.1 311 4
    endloop
  endfacet
  facet normal -0.994519 -0.104554 0
    outer loop
      vertex 211.1 311 6
      vertex 211.144 310.584 4
      vertex 211.144 310.584 6
    endloop
  endfacet
  facet normal -0.994519 -0.104554 0
    outer loop
      vertex 211.144 310.584 -0.4
      vertex 211.1 311 0
      vertex 211.1 311 -0.4
    endloop
  endfacet
  facet normal -0.994519 -0.104554 0
    outer loop
      vertex 211.1 311 0
      vertex 211.144 310.584 -0.4
      vertex 211.144 310.584 0
    endloop
  endfacet
  facet normal -0.951061 0.309004 0
    outer loop
      vertex 211.144 341.416 -0.4
      vertex 211.273 341.813 6
      vertex 211.273 341.813 -0.4
    endloop
  endfacet
  facet normal -0.951061 0.309004 0
    outer loop
      vertex 211.273 341.813 6
      vertex 211.144 341.416 -0.4
      vertex 211.144 341.416 6
    endloop
  endfacet
  facet normal 0.587833 -0.808982 0
    outer loop
      vertex 240.1 309.268 -1
      vertex 240.438 309.514 6
      vertex 240.1 309.268 6
    endloop
  endfacet
  facet normal 0.587833 -0.808982 0
    outer loop
      vertex 240.438 309.514 6
      vertex 240.1 309.268 -1
      vertex 240.438 309.514 -1
    endloop
  endfacet
  facet normal 0.866018 -0.500013 0
    outer loop
      vertex 240.718 309.824 6
      vertex 240.927 310.187 -1
      vertex 240.927 310.187 6
    endloop
  endfacet
  facet normal 0.866018 -0.500013 0
    outer loop
      vertex 240.927 310.187 -1
      vertex 240.718 309.824 6
      vertex 240.718 309.824 -1
    endloop
  endfacet
  facet normal 0 0 -1
    outer loop
      vertex 239.309 309.011 -1
      vertex 241.1 311 -1
      vertex 241.056 310.584 -1
    endloop
  endfacet
  facet normal 0 0 -1
    outer loop
      vertex 241.1 311 -1
      vertex 233.9 325.8 -1
      vertex 241.1 341 -1
    endloop
  endfacet
  facet normal 0 0 -1
    outer loop
      vertex 239.309 309.011 -1
      vertex 241.056 310.584 -1
      vertex 240.927 310.187 -1
    endloop
  endfacet
  facet normal 0 0 -1
    outer loop
      vertex 232.775 327.749 -1
      vertex 241.1 341 -1
      vertex 233.9 325.8 -1
    endloop
  endfacet
  facet normal 0 0 -1
    outer loop
      vertex 239.309 309.011 -1
      vertex 240.927 310.187 -1
      vertex 240.718 309.824 -1
    endloop
  endfacet
  facet normal 0 0 -1
    outer loop
      vertex 231.05 330.736 -1
      vertex 241.1 341 -1
      vertex 232.775 327.749 -1
    endloop
  endfacet
  facet normal 0 0 -1
    outer loop
      vertex 239.309 309.011 -1
      vertex 240.718 309.824 -1
      vertex 240.438 309.514 -1
    endloop
  endfacet
  facet normal 0 -0 -1
    outer loop
      vertex 239.309 342.989 -1
      vertex 241.1 341 -1
      vertex 231.05 330.736 -1
    endloop
  endfacet
  facet normal 0 0 -1
    outer loop
      vertex 239.309 309.011 -1
      vertex 240.438 309.514 -1
      vertex 240.1 309.268 -1
    endloop
  endfacet
  facet normal 0 0 -1
    outer loop
      vertex 241.1 341 -1
      vertex 239.309 342.989 -1
      vertex 241.056 341.416 -1
    endloop
  endfacet
  facet normal 0 0 -1
    outer loop
      vertex 239.309 309.011 -1
      vertex 240.1 309.268 -1
      vertex 239.718 309.098 -1
    endloop
  endfacet
  facet normal 0 0 -1
    outer loop
      vertex 241.056 341.416 -1
      vertex 239.309 342.989 -1
      vertex 240.927 341.813 -1
    endloop
  endfacet
  facet normal -0 0 -1
    outer loop
      vertex 241.1 311 -1
      vertex 239.309 309.011 -1
      vertex 231.05 320.864 -1
    endloop
  endfacet
  facet normal 0 0 -1
    outer loop
      vertex 240.927 341.813 -1
      vertex 239.309 342.989 -1
      vertex 240.718 342.176 -1
    endloop
  endfacet
  facet normal 0 0 -1
    outer loop
      vertex 240.718 342.176 -1
      vertex 239.309 342.989 -1
      vertex 240.438 342.486 -1
    endloop
  endfacet
  facet normal 0 0 -1
    outer loop
      vertex 241.1 311 -1
      vertex 232.175 322.812 -1
      vertex 233.9 325.8 -1
    endloop
  endfacet
  facet normal 0 0 -1
    outer loop
      vertex 241.1 311 -1
      vertex 231.05 320.864 -1
      vertex 232.175 322.812 -1
    endloop
  endfacet
  facet normal 0 0 -1
    outer loop
      vertex 223.7 309.011 -1
      vertex 231.05 320.864 -1
      vertex 239.309 309.011 -1
    endloop
  endfacet
  facet normal -0 0 -1
    outer loop
      vertex 231.05 320.864 -1
      vertex 223.7 309.011 -1
      vertex 225.35 320.864 -1
    endloop
  endfacet
  facet normal 0 0 -1
    outer loop
      vertex 223.7 309.011 -1
      vertex 224.225 322.812 -1
      vertex 225.35 320.864 -1
    endloop
  endfacet
  facet normal -0 0 -1
    outer loop
      vertex 224.225 322.812 -1
      vertex 223.7 309.011 -1
      vertex 223.7 323.722 -1
    endloop
  endfacet
  facet normal 0 0 -1
    outer loop
      vertex 240.438 342.486 -1
      vertex 239.309 342.989 -1
      vertex 240.1 342.732 -1
    endloop
  endfacet
  facet normal 0 0 -1
    outer loop
      vertex 240.1 342.732 -1
      vertex 239.309 342.989 -1
      vertex 239.718 342.902 -1
    endloop
  endfacet
  facet normal 0 0 -1
    outer loop
      vertex 223.7 342.989 -1
      vertex 231.05 330.736 -1
      vertex 225.35 330.736 -1
    endloop
  endfacet
  facet normal 0 0 -1
    outer loop
      vertex 231.05 330.736 -1
      vertex 223.7 342.989 -1
      vertex 239.309 342.989 -1
    endloop
  endfacet
  facet normal 0 0 -1
    outer loop
      vertex 223.7 342.989 -1
      vertex 225.35 330.736 -1
      vertex 223.7 327.878 -1
    endloop
  endfacet
  facet normal -0.207871 -0.978156 0
    outer loop
      vertex 212.482 309.098 4
      vertex 212.891 309.011 6
      vertex 212.482 309.098 6
    endloop
  endfacet
  facet normal -0.207871 -0.978156 -0
    outer loop
      vertex 212.891 309.011 6
      vertex 212.482 309.098 4
      vertex 212.891 309.011 4
    endloop
  endfacet
  facet normal -0.207871 -0.978156 0
    outer loop
      vertex 212.482 309.098 -0.4
      vertex 212.891 309.011 0
      vertex 212.482 309.098 0
    endloop
  endfacet
  facet normal -0.207871 -0.978156 -0
    outer loop
      vertex 212.891 309.011 0
      vertex 212.482 309.098 -0.4
      vertex 212.891 309.011 -0.4
    endloop
  endfacet
  facet normal -0.406694 -0.913565 0
    outer loop
      vertex 212.1 309.268 4
      vertex 212.482 309.098 6
      vertex 212.1 309.268 6
    endloop
  endfacet
  facet normal -0.406694 -0.913565 -0
    outer loop
      vertex 212.482 309.098 6
      vertex 212.1 309.268 4
      vertex 212.482 309.098 4
    endloop
  endfacet
  facet normal -0.406694 -0.913565 0
    outer loop
      vertex 212.1 309.268 -0.4
      vertex 212.482 309.098 0
      vertex 212.1 309.268 0
    endloop
  endfacet
  facet normal -0.406694 -0.913565 -0
    outer loop
      vertex 212.482 309.098 0
      vertex 212.1 309.268 -0.4
      vertex 212.482 309.098 -0.4
    endloop
  endfacet
  facet normal -0.587833 -0.808982 0
    outer loop
      vertex 211.762 309.514 4
      vertex 212.1 309.268 6
      vertex 211.762 309.514 6
    endloop
  endfacet
  facet normal -0.587833 -0.808982 -0
    outer loop
      vertex 212.1 309.268 6
      vertex 211.762 309.514 4
      vertex 212.1 309.268 4
    endloop
  endfacet
  facet normal -0.587833 -0.808982 0
    outer loop
      vertex 211.762 309.514 -0.4
      vertex 212.1 309.268 0
      vertex 211.762 309.514 0
    endloop
  endfacet
  facet normal -0.587833 -0.808982 -0
    outer loop
      vertex 212.1 309.268 0
      vertex 211.762 309.514 -0.4
      vertex 212.1 309.268 -0.4
    endloop
  endfacet
  facet normal -0.866018 -0.500013 0
    outer loop
      vertex 211.482 309.824 4
      vertex 211.273 310.187 6
      vertex 211.273 310.187 4
    endloop
  endfacet
  facet normal -0.866018 -0.500013 0
    outer loop
      vertex 211.273 310.187 6
      vertex 211.482 309.824 4
      vertex 211.482 309.824 6
    endloop
  endfacet
  facet normal -0.866018 -0.500013 0
    outer loop
      vertex 211.482 309.824 -0.4
      vertex 211.273 310.187 0
      vertex 211.273 310.187 -0.4
    endloop
  endfacet
  facet normal -0.866018 -0.500013 0
    outer loop
      vertex 211.273 310.187 0
      vertex 211.482 309.824 -0.4
      vertex 211.482 309.824 0
    endloop
  endfacet
  facet normal 0.406694 -0.913565 0
    outer loop
      vertex 239.718 309.098 -1
      vertex 240.1 309.268 6
      vertex 239.718 309.098 6
    endloop
  endfacet
  facet normal 0.406694 -0.913565 0
    outer loop
      vertex 240.1 309.268 6
      vertex 239.718 309.098 -1
      vertex 240.1 309.268 -1
    endloop
  endfacet
  facet normal 0.207871 -0.978156 0
    outer loop
      vertex 239.309 309.011 -1
      vertex 239.718 309.098 6
      vertex 239.309 309.011 6
    endloop
  endfacet
  facet normal 0.207871 -0.978156 0
    outer loop
      vertex 239.718 309.098 6
      vertex 239.309 309.011 -1
      vertex 239.718 309.098 -1
    endloop
  endfacet
  facet normal -0.951061 -0.309004 0
    outer loop
      vertex 211.273 310.187 4
      vertex 211.144 310.584 6
      vertex 211.144 310.584 4
    endloop
  endfacet
  facet normal -0.951061 -0.309004 0
    outer loop
      vertex 211.144 310.584 6
      vertex 211.273 310.187 4
      vertex 211.273 310.187 6
    endloop
  endfacet
  facet normal -0.951061 -0.309004 0
    outer loop
      vertex 211.273 310.187 -0.4
      vertex 211.144 310.584 0
      vertex 211.144 310.584 -0.4
    endloop
  endfacet
  facet normal -0.951061 -0.309004 0
    outer loop
      vertex 211.144 310.584 0
      vertex 211.273 310.187 -0.4
      vertex 211.273 310.187 0
    endloop
  endfacet
  facet normal 0.600482 0.346685 -0.720577
    outer loop
      vertex 232.7 325.8 -2
      vertex 232.775 327.749 -1
      vertex 233.9 325.8 -1
    endloop
  endfacet
  facet normal 0.600479 0.346686 -0.720579
    outer loop
      vertex 232.775 327.749 -1
      vertex 232.7 325.8 -2
      vertex 230.45 329.697 -2
    endloop
  endfacet
  facet normal 0.600478 0.346684 -0.72058
    outer loop
      vertex 232.775 327.749 -1
      vertex 230.45 329.697 -2
      vertex 231.05 330.736 -1
    endloop
  endfacet
  facet normal 0.600479 -0.346683 -0.72058
    outer loop
      vertex 230.45 321.903 -2
      vertex 232.175 322.812 -1
      vertex 231.05 320.864 -1
    endloop
  endfacet
  facet normal 0.60048 -0.346689 -0.720576
    outer loop
      vertex 232.175 322.812 -1
      vertex 230.45 321.903 -2
      vertex 232.7 325.8 -2
    endloop
  endfacet
  facet normal -0.600463 -0.346693 -0.720588
    outer loop
      vertex 224.225 322.812 -1
      vertex 223.7 323.722 -1
      vertex 223.7 325.8 -2
    endloop
  endfacet
  facet normal -0.600482 0.346687 -0.720576
    outer loop
      vertex 225.95 329.697 -2
      vertex 223.7 325.8 -2
      vertex 223.7 327.811 -1.03226
    endloop
  endfacet
  facet normal 0 -0.69337 -0.720582
    outer loop
      vertex 231.05 320.864 -1
      vertex 225.95 321.903 -2
      vertex 230.45 321.903 -2
    endloop
  endfacet
  facet normal 0 -0.69337 -0.720582
    outer loop
      vertex 225.95 321.903 -2
      vertex 231.05 320.864 -1
      vertex 225.35 320.864 -1
    endloop
  endfacet
  facet normal 0.600481 -0.346689 -0.720576
    outer loop
      vertex 233.9 325.8 -1
      vertex 232.175 322.812 -1
      vertex 232.7 325.8 -2
    endloop
  endfacet
  facet normal -0.600483 -0.346685 -0.720576
    outer loop
      vertex 224.225 322.812 -1
      vertex 225.95 321.903 -2
      vertex 225.35 320.864 -1
    endloop
  endfacet
  facet normal -0.600484 -0.346691 -0.720572
    outer loop
      vertex 225.95 321.903 -2
      vertex 224.225 322.812 -1
      vertex 223.7 325.8 -2
    endloop
  endfacet
  facet normal 0 0 -1
    outer loop
      vertex 230.35 323.442 -2
      vertex 232.7 325.8 -2
      vertex 230.45 321.903 -2
    endloop
  endfacet
  facet normal -0 0 -1
    outer loop
      vertex 232.7 325.8 -2
      vertex 230.35 323.442 -2
      vertex 232 326.3 -2
    endloop
  endfacet
  facet normal 0 0 -1
    outer loop
      vertex 230.45 321.903 -2
      vertex 227.05 323.442 -2
      vertex 230.35 323.442 -2
    endloop
  endfacet
  facet normal 0 0 -1
    outer loop
      vertex 225.95 321.903 -2
      vertex 227.05 323.442 -2
      vertex 230.45 321.903 -2
    endloop
  endfacet
  facet normal 0 0 -1
    outer loop
      vertex 223.7 325.8 -2
      vertex 227.05 323.442 -2
      vertex 225.95 321.903 -2
    endloop
  endfacet
  facet normal 0 0 -1
    outer loop
      vertex 227.05 323.442 -2
      vertex 223.7 325.8 -2
      vertex 225.4 326.3 -2
    endloop
  endfacet
  facet normal 0 0 -1
    outer loop
      vertex 232 326.3 -2
      vertex 230.45 329.697 -2
      vertex 232.7 325.8 -2
    endloop
  endfacet
  facet normal 0 0 -1
    outer loop
      vertex 230.35 329.158 -2
      vertex 230.45 329.697 -2
      vertex 232 326.3 -2
    endloop
  endfacet
  facet normal 0 0 -1
    outer loop
      vertex 227.05 329.158 -2
      vertex 230.45 329.697 -2
      vertex 230.35 329.158 -2
    endloop
  endfacet
  facet normal 0 0 -1
    outer loop
      vertex 227.05 329.158 -2
      vertex 225.95 329.697 -2
      vertex 230.45 329.697 -2
    endloop
  endfacet
  facet normal 0 0 -1
    outer loop
      vertex 225.4 326.3 -2
      vertex 225.95 329.697 -2
      vertex 227.05 329.158 -2
    endloop
  endfacet
  facet normal 0 0 -1
    outer loop
      vertex 225.95 329.697 -2
      vertex 225.4 326.3 -2
      vertex 223.7 325.8 -2
    endloop
  endfacet
  facet normal -0.600482 0.346688 -0.720575
    outer loop
      vertex 223.7 327.878 -1
      vertex 225.95 329.697 -2
      vertex 223.7 327.811 -1.03226
    endloop
  endfacet
  facet normal -0.600482 0.346687 -0.720576
    outer loop
      vertex 225.95 329.697 -2
      vertex 223.7 327.878 -1
      vertex 225.35 330.736 -1
    endloop
  endfacet
  facet normal 0 0.69337 -0.720582
    outer loop
      vertex 225.95 329.697 -2
      vertex 231.05 330.736 -1
      vertex 230.45 329.697 -2
    endloop
  endfacet
  facet normal 0 0.69337 -0.720582
    outer loop
      vertex 231.05 330.736 -1
      vertex 225.95 329.697 -2
      vertex 225.35 330.736 -1
    endloop
  endfacet
  facet normal -0.866034 -0.499986 0
    outer loop
      vertex 230.527 327.113 5
      vertex 230.318 327.476 6
      vertex 230.318 327.476 5
    endloop
  endfacet
  facet normal -0.866034 -0.499986 0
    outer loop
      vertex 230.318 327.476 6
      vertex 230.527 327.113 5
      vertex 230.527 327.113 6
    endloop
  endfacet
  facet normal 0 -1 0
    outer loop
      vertex 228.491 328.289 5
      vertex 228.909 328.289 6
      vertex 228.491 328.289 6
    endloop
  endfacet
  facet normal 0 -1 -0
    outer loop
      vertex 228.909 328.289 6
      vertex 228.491 328.289 5
      vertex 228.909 328.289 5
    endloop
  endfacet
  facet normal 0.95105 -0.309037 0
    outer loop
      vertex 226.744 326.716 6
      vertex 226.873 327.113 5
      vertex 226.873 327.113 6
    endloop
  endfacet
  facet normal 0.95105 -0.309037 0
    outer loop
      vertex 226.873 327.113 5
      vertex 226.744 326.716 6
      vertex 226.744 326.716 5
    endloop
  endfacet
  facet normal -0.743142 -0.669134 0
    outer loop
      vertex 230.318 327.476 5
      vertex 230.038 327.786 6
      vertex 230.038 327.786 5
    endloop
  endfacet
  facet normal -0.743142 -0.669134 0
    outer loop
      vertex 230.038 327.786 6
      vertex 230.318 327.476 5
      vertex 230.318 327.476 6
    endloop
  endfacet
  facet normal -0.207871 -0.978156 0
    outer loop
      vertex 228.909 328.289 5
      vertex 229.318 328.202 6
      vertex 228.909 328.289 6
    endloop
  endfacet
  facet normal -0.207871 -0.978156 -0
    outer loop
      vertex 229.318 328.202 6
      vertex 228.909 328.289 5
      vertex 229.318 328.202 5
    endloop
  endfacet
  facet normal 0.207879 -0.978155 0
    outer loop
      vertex 228.082 328.202 5
      vertex 228.491 328.289 6
      vertex 228.082 328.202 6
    endloop
  endfacet
  facet normal 0.207879 -0.978155 0
    outer loop
      vertex 228.491 328.289 6
      vertex 228.082 328.202 5
      vertex 228.491 328.289 5
    endloop
  endfacet
  facet normal 0.866018 -0.500013 0
    outer loop
      vertex 226.873 327.113 6
      vertex 227.082 327.476 5
      vertex 227.082 327.476 6
    endloop
  endfacet
  facet normal 0.866018 -0.500013 0
    outer loop
      vertex 227.082 327.476 5
      vertex 226.873 327.113 6
      vertex 226.873 327.113 5
    endloop
  endfacet
  facet normal -0.994522 0.104525 0
    outer loop
      vertex 230.656 325.884 5
      vertex 230.7 326.3 6
      vertex 230.7 326.3 5
    endloop
  endfacet
  facet normal -0.994522 0.104525 0
    outer loop
      vertex 230.7 326.3 6
      vertex 230.656 325.884 5
      vertex 230.656 325.884 6
    endloop
  endfacet
  facet normal -0.587785 -0.809017 0
    outer loop
      vertex 229.7 328.032 5
      vertex 230.038 327.786 6
      vertex 229.7 328.032 6
    endloop
  endfacet
  facet normal -0.587785 -0.809017 -0
    outer loop
      vertex 230.038 327.786 6
      vertex 229.7 328.032 5
      vertex 230.038 327.786 5
    endloop
  endfacet
  facet normal -0.406768 -0.913531 0
    outer loop
      vertex 229.318 328.202 5
      vertex 229.7 328.032 6
      vertex 229.318 328.202 6
    endloop
  endfacet
  facet normal -0.406768 -0.913531 -0
    outer loop
      vertex 229.7 328.032 6
      vertex 229.318 328.202 5
      vertex 229.7 328.032 5
    endloop
  endfacet
  facet normal 0.994523 -0.104518 0
    outer loop
      vertex 226.7 326.3 6
      vertex 226.744 326.716 5
      vertex 226.744 326.716 6
    endloop
  endfacet
  facet normal 0.994523 -0.104518 0
    outer loop
      vertex 226.744 326.716 5
      vertex 226.7 326.3 6
      vertex 226.7 326.3 5
    endloop
  endfacet
  facet normal 0.74316 -0.669114 0
    outer loop
      vertex 227.082 327.476 6
      vertex 227.362 327.786 5
      vertex 227.362 327.786 6
    endloop
  endfacet
  facet normal 0.74316 -0.669114 0
    outer loop
      vertex 227.362 327.786 5
      vertex 227.082 327.476 6
      vertex 227.082 327.476 5
    endloop
  endfacet
  facet normal 0.406755 -0.913537 0
    outer loop
      vertex 227.7 328.032 5
      vertex 228.082 328.202 6
      vertex 227.7 328.032 6
    endloop
  endfacet
  facet normal 0.406755 -0.913537 0
    outer loop
      vertex 228.082 328.202 6
      vertex 227.7 328.032 5
      vertex 228.082 328.202 5
    endloop
  endfacet
  facet normal 0.587785 -0.809017 0
    outer loop
      vertex 227.362 327.786 5
      vertex 227.7 328.032 6
      vertex 227.362 327.786 6
    endloop
  endfacet
  facet normal 0.587785 -0.809017 0
    outer loop
      vertex 227.7 328.032 6
      vertex 227.362 327.786 5
      vertex 227.7 328.032 5
    endloop
  endfacet
  facet normal -0.994523 -0.104518 0
    outer loop
      vertex 230.7 326.3 5
      vertex 230.656 326.716 6
      vertex 230.656 326.716 5
    endloop
  endfacet
  facet normal -0.994523 -0.104518 0
    outer loop
      vertex 230.656 326.716 6
      vertex 230.7 326.3 5
      vertex 230.7 326.3 6
    endloop
  endfacet
  facet normal 0.207949 0.97814 -0
    outer loop
      vertex 228.491 324.311 5
      vertex 228.082 324.398 6
      vertex 228.491 324.311 6
    endloop
  endfacet
  facet normal 0.207949 0.97814 0
    outer loop
      vertex 228.082 324.398 6
      vertex 228.491 324.311 5
      vertex 228.082 324.398 5
    endloop
  endfacet
  facet normal -0.587785 0.809017 0
    outer loop
      vertex 230.038 324.814 5
      vertex 229.7 324.568 6
      vertex 230.038 324.814 6
    endloop
  endfacet
  facet normal -0.587785 0.809017 0
    outer loop
      vertex 229.7 324.568 6
      vertex 230.038 324.814 5
      vertex 229.7 324.568 5
    endloop
  endfacet
  facet normal -0.95105 -0.309037 0
    outer loop
      vertex 230.656 326.716 5
      vertex 230.527 327.113 6
      vertex 230.527 327.113 5
    endloop
  endfacet
  facet normal -0.95105 -0.309037 0
    outer loop
      vertex 230.527 327.113 6
      vertex 230.656 326.716 5
      vertex 230.656 326.716 6
    endloop
  endfacet
  facet normal -0.951057 0.309015 0
    outer loop
      vertex 230.527 325.487 5
      vertex 230.656 325.884 6
      vertex 230.656 325.884 5
    endloop
  endfacet
  facet normal -0.951057 0.309015 0
    outer loop
      vertex 230.656 325.884 6
      vertex 230.527 325.487 5
      vertex 230.527 325.487 6
    endloop
  endfacet
  facet normal -0.866034 0.499986 0
    outer loop
      vertex 230.318 325.124 5
      vertex 230.527 325.487 6
      vertex 230.527 325.487 5
    endloop
  endfacet
  facet normal -0.866034 0.499986 0
    outer loop
      vertex 230.527 325.487 6
      vertex 230.318 325.124 5
      vertex 230.318 325.124 6
    endloop
  endfacet
  facet normal 0.994522 0.104525 0
    outer loop
      vertex 226.744 325.884 6
      vertex 226.7 326.3 5
      vertex 226.7 326.3 6
    endloop
  endfacet
  facet normal 0.994522 0.104525 0
    outer loop
      vertex 226.7 326.3 5
      vertex 226.744 325.884 6
      vertex 226.744 325.884 5
    endloop
  endfacet
  facet normal 0.866018 0.500013 0
    outer loop
      vertex 227.082 325.124 6
      vertex 226.873 325.487 5
      vertex 226.873 325.487 6
    endloop
  endfacet
  facet normal 0.866018 0.500013 0
    outer loop
      vertex 226.873 325.487 5
      vertex 227.082 325.124 6
      vertex 227.082 325.124 5
    endloop
  endfacet
  facet normal -0.207941 0.978141 0
    outer loop
      vertex 229.318 324.398 5
      vertex 228.909 324.311 6
      vertex 229.318 324.398 6
    endloop
  endfacet
  facet normal -0.207941 0.978141 0
    outer loop
      vertex 228.909 324.311 6
      vertex 229.318 324.398 5
      vertex 228.909 324.311 5
    endloop
  endfacet
  facet normal -0.406768 0.913531 0
    outer loop
      vertex 229.7 324.568 5
      vertex 229.318 324.398 6
      vertex 229.7 324.568 6
    endloop
  endfacet
  facet normal -0.406768 0.913531 0
    outer loop
      vertex 229.318 324.398 6
      vertex 229.7 324.568 5
      vertex 229.318 324.398 5
    endloop
  endfacet
  facet normal -0.743109 0.66917 0
    outer loop
      vertex 230.038 324.814 5
      vertex 230.318 325.124 6
      vertex 230.318 325.124 5
    endloop
  endfacet
  facet normal -0.743109 0.66917 0
    outer loop
      vertex 230.318 325.124 6
      vertex 230.038 324.814 5
      vertex 230.038 324.814 6
    endloop
  endfacet
  facet normal 0.406755 0.913537 -0
    outer loop
      vertex 228.082 324.398 5
      vertex 227.7 324.568 6
      vertex 228.082 324.398 6
    endloop
  endfacet
  facet normal 0.406755 0.913537 0
    outer loop
      vertex 227.7 324.568 6
      vertex 228.082 324.398 5
      vertex 227.7 324.568 5
    endloop
  endfacet
  facet normal 0 1 -0
    outer loop
      vertex 228.909 324.311 5
      vertex 228.491 324.311 6
      vertex 228.909 324.311 6
    endloop
  endfacet
  facet normal 0 1 0
    outer loop
      vertex 228.491 324.311 6
      vertex 228.909 324.311 5
      vertex 228.491 324.311 5
    endloop
  endfacet
  facet normal 0.951057 0.309015 0
    outer loop
      vertex 226.873 325.487 6
      vertex 226.744 325.884 5
      vertex 226.744 325.884 6
    endloop
  endfacet
  facet normal 0.951057 0.309015 0
    outer loop
      vertex 226.744 325.884 5
      vertex 226.873 325.487 6
      vertex 226.873 325.487 5
    endloop
  endfacet
  facet normal 0.743127 0.66915 0
    outer loop
      vertex 227.362 324.814 6
      vertex 227.082 325.124 5
      vertex 227.082 325.124 6
    endloop
  endfacet
  facet normal 0.743127 0.66915 0
    outer loop
      vertex 227.082 325.124 5
      vertex 227.362 324.814 6
      vertex 227.362 324.814 5
    endloop
  endfacet
  facet normal 0.587785 0.809017 -0
    outer loop
      vertex 227.7 324.568 5
      vertex 227.362 324.814 6
      vertex 227.7 324.568 6
    endloop
  endfacet
  facet normal 0.587785 0.809017 0
    outer loop
      vertex 227.362 324.814 6
      vertex 227.7 324.568 5
      vertex 227.362 324.814 5
    endloop
  endfacet
  facet normal -0.866028 -0.499995 0
    outer loop
      vertex 232 326.3 4
      vertex 230.35 329.158 5
      vertex 230.35 329.158 4
    endloop
  endfacet
  facet normal -0.866028 -0.499995 0
    outer loop
      vertex 230.35 329.158 5
      vertex 232 326.3 4
      vertex 232 326.3 5
    endloop
  endfacet
  facet normal -0.866028 -0.499995 0
    outer loop
      vertex 232 326.3 -2
      vertex 230.35 329.158 0
      vertex 230.35 329.158 -2
    endloop
  endfacet
  facet normal -0.866028 -0.499995 0
    outer loop
      vertex 230.35 329.158 0
      vertex 232 326.3 -2
      vertex 232 326.3 0
    endloop
  endfacet
  facet normal 0 -1 0
    outer loop
      vertex 227.05 329.158 4
      vertex 230.35 329.158 5
      vertex 227.05 329.158 5
    endloop
  endfacet
  facet normal 0 -1 -0
    outer loop
      vertex 230.35 329.158 5
      vertex 227.05 329.158 4
      vertex 230.35 329.158 4
    endloop
  endfacet
  facet normal 0 -1 0
    outer loop
      vertex 227.05 329.158 -2
      vertex 230.35 329.158 0
      vertex 227.05 329.158 0
    endloop
  endfacet
  facet normal 0 -1 -0
    outer loop
      vertex 230.35 329.158 0
      vertex 227.05 329.158 -2
      vertex 230.35 329.158 -2
    endloop
  endfacet
  facet normal 0 1 -0
    outer loop
      vertex 230.35 323.442 4
      vertex 227.05 323.442 5
      vertex 230.35 323.442 5
    endloop
  endfacet
  facet normal 0 1 0
    outer loop
      vertex 227.05 323.442 5
      vertex 230.35 323.442 4
      vertex 227.05 323.442 4
    endloop
  endfacet
  facet normal 0 1 -0
    outer loop
      vertex 230.35 323.442 -2
      vertex 227.05 323.442 0
      vertex 230.35 323.442 0
    endloop
  endfacet
  facet normal 0 1 0
    outer loop
      vertex 227.05 323.442 0
      vertex 230.35 323.442 -2
      vertex 227.05 323.442 -2
    endloop
  endfacet
  facet normal -0 0 -1
    outer loop
      vertex 232 326.3 5
      vertex 230.656 325.884 5
      vertex 230.7 326.3 5
    endloop
  endfacet
  facet normal 0 0 -1
    outer loop
      vertex 232 326.3 5
      vertex 230.527 325.487 5
      vertex 230.656 325.884 5
    endloop
  endfacet
  facet normal 0 0 -1
    outer loop
      vertex 230.35 323.442 5
      vertex 230.527 325.487 5
      vertex 232 326.3 5
    endloop
  endfacet
  facet normal 0 0 -1
    outer loop
      vertex 230.35 323.442 5
      vertex 230.318 325.124 5
      vertex 230.527 325.487 5
    endloop
  endfacet
  facet normal 0 0 -1
    outer loop
      vertex 230.35 323.442 5
      vertex 230.038 324.814 5
      vertex 230.318 325.124 5
    endloop
  endfacet
  facet normal 0 0 -1
    outer loop
      vertex 230.35 323.442 5
      vertex 229.7 324.568 5
      vertex 230.038 324.814 5
    endloop
  endfacet
  facet normal 0 0 -1
    outer loop
      vertex 230.35 323.442 5
      vertex 229.318 324.398 5
      vertex 229.7 324.568 5
    endloop
  endfacet
  facet normal 0 0 -1
    outer loop
      vertex 230.35 323.442 5
      vertex 228.909 324.311 5
      vertex 229.318 324.398 5
    endloop
  endfacet
  facet normal 0 0 -1
    outer loop
      vertex 230.35 323.442 5
      vertex 228.491 324.311 5
      vertex 228.909 324.311 5
    endloop
  endfacet
  facet normal 0 0 -1
    outer loop
      vertex 227.05 323.442 5
      vertex 228.491 324.311 5
      vertex 230.35 323.442 5
    endloop
  endfacet
  facet normal -0 0 -1
    outer loop
      vertex 228.491 324.311 5
      vertex 227.05 323.442 5
      vertex 228.082 324.398 5
    endloop
  endfacet
  facet normal 0 0 -1
    outer loop
      vertex 227.05 323.442 5
      vertex 227.7 324.568 5
      vertex 228.082 324.398 5
    endloop
  endfacet
  facet normal 0 0 -1
    outer loop
      vertex 227.05 323.442 5
      vertex 227.362 324.814 5
      vertex 227.7 324.568 5
    endloop
  endfacet
  facet normal 0 0 -1
    outer loop
      vertex 227.05 323.442 5
      vertex 227.082 325.124 5
      vertex 227.362 324.814 5
    endloop
  endfacet
  facet normal 0 0 -1
    outer loop
      vertex 227.05 323.442 5
      vertex 226.873 325.487 5
      vertex 227.082 325.124 5
    endloop
  endfacet
  facet normal 0 0 -1
    outer loop
      vertex 225.4 326.3 5
      vertex 226.873 325.487 5
      vertex 227.05 323.442 5
    endloop
  endfacet
  facet normal 0 0 -1
    outer loop
      vertex 226.744 325.884 5
      vertex 225.4 326.3 5
      vertex 226.7 326.3 5
    endloop
  endfacet
  facet normal 0 0 -1
    outer loop
      vertex 226.873 325.487 5
      vertex 225.4 326.3 5
      vertex 226.744 325.884 5
    endloop
  endfacet
  facet normal 0 0 -1
    outer loop
      vertex 230.656 326.716 5
      vertex 232 326.3 5
      vertex 230.7 326.3 5
    endloop
  endfacet
  facet normal 0 0 -1
    outer loop
      vertex 230.527 327.113 5
      vertex 232 326.3 5
      vertex 230.656 326.716 5
    endloop
  endfacet
  facet normal 0 0 -1
    outer loop
      vertex 230.527 327.113 5
      vertex 230.35 329.158 5
      vertex 232 326.3 5
    endloop
  endfacet
  facet normal 0 0 -1
    outer loop
      vertex 230.318 327.476 5
      vertex 230.35 329.158 5
      vertex 230.527 327.113 5
    endloop
  endfacet
  facet normal 0 0 -1
    outer loop
      vertex 230.038 327.786 5
      vertex 230.35 329.158 5
      vertex 230.318 327.476 5
    endloop
  endfacet
  facet normal 0 0 -1
    outer loop
      vertex 229.7 328.032 5
      vertex 230.35 329.158 5
      vertex 230.038 327.786 5
    endloop
  endfacet
  facet normal 0 0 -1
    outer loop
      vertex 229.318 328.202 5
      vertex 230.35 329.158 5
      vertex 229.7 328.032 5
    endloop
  endfacet
  facet normal 0 0 -1
    outer loop
      vertex 228.909 328.289 5
      vertex 230.35 329.158 5
      vertex 229.318 328.202 5
    endloop
  endfacet
  facet normal 0 0 -1
    outer loop
      vertex 228.491 328.289 5
      vertex 230.35 329.158 5
      vertex 228.909 328.289 5
    endloop
  endfacet
  facet normal 0 0 -1
    outer loop
      vertex 227.05 329.158 5
      vertex 228.491 328.289 5
      vertex 228.082 328.202 5
    endloop
  endfacet
  facet normal 0 0 -1
    outer loop
      vertex 228.491 328.289 5
      vertex 227.05 329.158 5
      vertex 230.35 329.158 5
    endloop
  endfacet
  facet normal 0 0 -1
    outer loop
      vertex 227.7 328.032 5
      vertex 227.05 329.158 5
      vertex 228.082 328.202 5
    endloop
  endfacet
  facet normal 0 0 -1
    outer loop
      vertex 227.362 327.786 5
      vertex 227.05 329.158 5
      vertex 227.7 328.032 5
    endloop
  endfacet
  facet normal 0 0 -1
    outer loop
      vertex 227.082 327.476 5
      vertex 227.05 329.158 5
      vertex 227.362 327.786 5
    endloop
  endfacet
  facet normal 0 0 -1
    outer loop
      vertex 226.873 327.113 5
      vertex 227.05 329.158 5
      vertex 227.082 327.476 5
    endloop
  endfacet
  facet normal 0 0 -1
    outer loop
      vertex 225.4 326.3 5
      vertex 226.873 327.113 5
      vertex 226.744 326.716 5
    endloop
  endfacet
  facet normal -0 0 -1
    outer loop
      vertex 226.873 327.113 5
      vertex 225.4 326.3 5
      vertex 227.05 329.158 5
    endloop
  endfacet
  facet normal 0 0 -1
    outer loop
      vertex 225.4 326.3 5
      vertex 226.744 326.716 5
      vertex 226.7 326.3 5
    endloop
  endfacet
  facet normal 0.866026 -0.499999 0
    outer loop
      vertex 225.4 326.3 5
      vertex 227.05 329.158 4
      vertex 227.05 329.158 5
    endloop
  endfacet
  facet normal 0.866026 -0.499999 0
    outer loop
      vertex 227.05 329.158 4
      vertex 225.4 326.3 5
      vertex 225.4 326.3 4
    endloop
  endfacet
  facet normal 0.866026 -0.499999 0
    outer loop
      vertex 225.4 326.3 0
      vertex 227.05 329.158 -2
      vertex 227.05 329.158 0
    endloop
  endfacet
  facet normal 0.866026 -0.499999 0
    outer loop
      vertex 227.05 329.158 -2
      vertex 225.4 326.3 0
      vertex 225.4 326.3 -2
    endloop
  endfacet
  facet normal 0.866024 0.500003 0
    outer loop
      vertex 227.05 323.442 5
      vertex 225.4 326.3 4
      vertex 225.4 326.3 5
    endloop
  endfacet
  facet normal 0.866024 0.500003 0
    outer loop
      vertex 225.4 326.3 4
      vertex 227.05 323.442 5
      vertex 227.05 323.442 4
    endloop
  endfacet
  facet normal 0.866024 0.500003 0
    outer loop
      vertex 227.05 323.442 0
      vertex 225.4 326.3 -2
      vertex 225.4 326.3 0
    endloop
  endfacet
  facet normal 0.866024 0.500003 0
    outer loop
      vertex 225.4 326.3 -2
      vertex 227.05 323.442 0
      vertex 227.05 323.442 -2
    endloop
  endfacet
  facet normal -0.866026 0.499999 0
    outer loop
      vertex 230.35 323.442 4
      vertex 232 326.3 5
      vertex 232 326.3 4
    endloop
  endfacet
  facet normal -0.866026 0.499999 0
    outer loop
      vertex 232 326.3 5
      vertex 230.35 323.442 4
      vertex 230.35 323.442 5
    endloop
  endfacet
  facet normal -0.866026 0.499999 0
    outer loop
      vertex 230.35 323.442 -2
      vertex 232 326.3 0
      vertex 232 326.3 -2
    endloop
  endfacet
  facet normal -0.866026 0.499999 0
    outer loop
      vertex 232 326.3 0
      vertex 230.35 323.442 -2
      vertex 230.35 323.442 0
    endloop
  endfacet
  facet normal 0 0 1
    outer loop
      vertex 239.511 327.521 0
      vertex 230.35 329.158 0
      vertex 232 326.3 0
    endloop
  endfacet
  facet normal 0 0 1
    outer loop
      vertex 228.049 339.012 0
      vertex 230.35 329.158 0
      vertex 236.549 336.512 0
    endloop
  endfacet
  facet normal 0 0 1
    outer loop
      vertex 227.323 338.826 0
      vertex 228.049 339.012 0
      vertex 227.964 339.034 0
    endloop
  endfacet
  facet normal 0 0 1
    outer loop
      vertex 227.323 338.826 0
      vertex 227.964 339.034 0
      vertex 227.877 339.045 0
    endloop
  endfacet
  facet normal 0 0 1
    outer loop
      vertex 227.323 338.826 0
      vertex 227.877 339.045 0
      vertex 227.789 339.045 0
    endloop
  endfacet
  facet normal 0 0 1
    outer loop
      vertex 227.323 338.826 0
      vertex 227.789 339.045 0
      vertex 227.702 339.034 0
    endloop
  endfacet
  facet normal 0 0 1
    outer loop
      vertex 227.323 338.826 0
      vertex 227.702 339.034 0
      vertex 227.617 339.012 0
    endloop
  endfacet
  facet normal 0 0 1
    outer loop
      vertex 227.323 338.826 0
      vertex 227.617 339.012 0
      vertex 227.535 338.98 0
    endloop
  endfacet
  facet normal 0 0 1
    outer loop
      vertex 227.323 338.826 0
      vertex 227.535 338.98 0
      vertex 227.458 338.938 0
    endloop
  endfacet
  facet normal 0 0 1
    outer loop
      vertex 227.323 338.826 0
      vertex 227.458 338.938 0
      vertex 227.387 338.886 0
    endloop
  endfacet
  facet normal 0 0 1
    outer loop
      vertex 228.049 339.012 0
      vertex 227.323 338.826 0
      vertex 230.35 329.158 0
    endloop
  endfacet
  facet normal 0 0 1
    outer loop
      vertex 227.323 338.826 0
      vertex 227.05 329.158 0
      vertex 230.35 329.158 0
    endloop
  endfacet
  facet normal 0 0 1
    outer loop
      vertex 211.1 322.044 0
      vertex 227.05 329.158 0
      vertex 227.323 338.826 0
    endloop
  endfacet
  facet normal 0 0 1
    outer loop
      vertex 227.05 323.442 0
      vertex 212.891 309.011 0
      vertex 224.463 309.011 0
    endloop
  endfacet
  facet normal 0 0 1
    outer loop
      vertex 227.05 329.158 0
      vertex 211.1 322.044 0
      vertex 225.4 326.3 0
    endloop
  endfacet
  facet normal 0 0 1
    outer loop
      vertex 227.05 323.442 0
      vertex 211.1 322.044 0
      vertex 212.891 309.011 0
    endloop
  endfacet
  facet normal -0 0 1
    outer loop
      vertex 211.1 311 0
      vertex 212.891 309.011 0
      vertex 211.1 322.044 0
    endloop
  endfacet
  facet normal 0 0 1
    outer loop
      vertex 212.891 309.011 0
      vertex 211.1 311 0
      vertex 212.482 309.098 0
    endloop
  endfacet
  facet normal 0 0 1
    outer loop
      vertex 212.482 309.098 0
      vertex 211.1 311 0
      vertex 212.1 309.268 0
    endloop
  endfacet
  facet normal 0 0 1
    outer loop
      vertex 212.1 309.268 0
      vertex 211.1 311 0
      vertex 211.762 309.514 0
    endloop
  endfacet
  facet normal 0 0 1
    outer loop
      vertex 211.482 309.824 0
      vertex 211.1 311 0
      vertex 211.273 310.187 0
    endloop
  endfacet
  facet normal 0 0 1
    outer loop
      vertex 211.762 309.514 0
      vertex 211.1 311 0
      vertex 211.482 309.824 0
    endloop
  endfacet
  facet normal 0 0 1
    outer loop
      vertex 211.273 310.187 0
      vertex 211.1 311 0
      vertex 211.144 310.584 0
    endloop
  endfacet
  facet normal 0 0 1
    outer loop
      vertex 239.527 327.434 0
      vertex 239.527 327.259 0
      vertex 239.533 327.347 0
    endloop
  endfacet
  facet normal 0 0 1
    outer loop
      vertex 239.511 327.521 0
      vertex 239.527 327.259 0
      vertex 239.527 327.434 0
    endloop
  endfacet
  facet normal 0 0 1
    outer loop
      vertex 239.511 327.521 0
      vertex 239.511 327.173 0
      vertex 239.527 327.259 0
    endloop
  endfacet
  facet normal 0 0 1
    outer loop
      vertex 239.511 327.521 0
      vertex 239.484 327.089 0
      vertex 239.511 327.173 0
    endloop
  endfacet
  facet normal 0 0 1
    outer loop
      vertex 239.511 327.521 0
      vertex 239.446 327.009 0
      vertex 239.484 327.089 0
    endloop
  endfacet
  facet normal 0 0 1
    outer loop
      vertex 239.511 327.521 0
      vertex 239.399 326.935 0
      vertex 239.446 327.009 0
    endloop
  endfacet
  facet normal -0 0 1
    outer loop
      vertex 230.35 329.158 0
      vertex 239.511 327.521 0
      vertex 237.011 336.021 0
    endloop
  endfacet
  facet normal 0 0 1
    outer loop
      vertex 236.549 336.512 0
      vertex 237.011 336.021 0
      vertex 236.984 336.104 0
    endloop
  endfacet
  facet normal 0 0 1
    outer loop
      vertex 236.549 336.512 0
      vertex 236.984 336.104 0
      vertex 236.946 336.184 0
    endloop
  endfacet
  facet normal 0 0 1
    outer loop
      vertex 236.549 336.512 0
      vertex 236.946 336.184 0
      vertex 236.899 336.258 0
    endloop
  endfacet
  facet normal 0 0 1
    outer loop
      vertex 236.549 336.512 0
      vertex 236.899 336.258 0
      vertex 236.843 336.326 0
    endloop
  endfacet
  facet normal 0 0 1
    outer loop
      vertex 236.549 336.512 0
      vertex 236.843 336.326 0
      vertex 236.779 336.386 0
    endloop
  endfacet
  facet normal 0 0 1
    outer loop
      vertex 236.549 336.512 0
      vertex 236.779 336.386 0
      vertex 236.708 336.438 0
    endloop
  endfacet
  facet normal 0 0 1
    outer loop
      vertex 236.549 336.512 0
      vertex 236.708 336.438 0
      vertex 236.631 336.48 0
    endloop
  endfacet
  facet normal 0 0 1
    outer loop
      vertex 230.35 329.158 0
      vertex 237.011 336.021 0
      vertex 236.549 336.512 0
    endloop
  endfacet
  facet normal 0 0 1
    outer loop
      vertex 239.511 327.521 0
      vertex 232 326.3 0
      vertex 239.399 326.935 0
    endloop
  endfacet
  facet normal 0 0 1
    outer loop
      vertex 230.35 323.442 0
      vertex 239.399 326.935 0
      vertex 232 326.3 0
    endloop
  endfacet
  facet normal -0 0 1
    outer loop
      vertex 230.35 323.442 0
      vertex 224.463 309.011 0
      vertex 239.399 326.935 0
    endloop
  endfacet
  facet normal -0 0 1
    outer loop
      vertex 227.05 323.442 0
      vertex 224.463 309.011 0
      vertex 230.35 323.442 0
    endloop
  endfacet
  facet normal 0 0 1
    outer loop
      vertex 211.1 322.044 0
      vertex 227.05 323.442 0
      vertex 225.4 326.3 0
    endloop
  endfacet
  facet normal 0 0 -1
    outer loop
      vertex 239.527 327.259 4
      vertex 239.527 327.434 4
      vertex 239.533 327.347 4
    endloop
  endfacet
  facet normal 0 0 -1
    outer loop
      vertex 239.511 327.173 4
      vertex 239.527 327.434 4
      vertex 239.527 327.259 4
    endloop
  endfacet
  facet normal 0 0 -1
    outer loop
      vertex 239.511 327.173 4
      vertex 239.511 327.521 4
      vertex 239.527 327.434 4
    endloop
  endfacet
  facet normal 0 0 -1
    outer loop
      vertex 239.484 327.089 4
      vertex 239.511 327.521 4
      vertex 239.511 327.173 4
    endloop
  endfacet
  facet normal 0 0 -1
    outer loop
      vertex 239.446 327.009 4
      vertex 239.511 327.521 4
      vertex 239.484 327.089 4
    endloop
  endfacet
  facet normal 0 0 -1
    outer loop
      vertex 239.399 326.935 4
      vertex 239.511 327.521 4
      vertex 239.446 327.009 4
    endloop
  endfacet
  facet normal 0 0 -1
    outer loop
      vertex 232 326.3 4
      vertex 239.511 327.521 4
      vertex 239.399 326.935 4
    endloop
  endfacet
  facet normal 0 0 -1
    outer loop
      vertex 239.511 327.521 4
      vertex 230.35 329.158 4
      vertex 237.011 336.021 4
    endloop
  endfacet
  facet normal 0 -0 -1
    outer loop
      vertex 236.549 336.512 4
      vertex 237.011 336.021 4
      vertex 230.35 329.158 4
    endloop
  endfacet
  facet normal 0 0 -1
    outer loop
      vertex 237.011 336.021 4
      vertex 236.549 336.512 4
      vertex 236.984 336.104 4
    endloop
  endfacet
  facet normal 0 0 -1
    outer loop
      vertex 236.984 336.104 4
      vertex 236.549 336.512 4
      vertex 236.946 336.184 4
    endloop
  endfacet
  facet normal 0 0 -1
    outer loop
      vertex 236.946 336.184 4
      vertex 236.549 336.512 4
      vertex 236.899 336.258 4
    endloop
  endfacet
  facet normal 0 0 -1
    outer loop
      vertex 236.899 336.258 4
      vertex 236.549 336.512 4
      vertex 236.843 336.326 4
    endloop
  endfacet
  facet normal 0 0 -1
    outer loop
      vertex 236.843 336.326 4
      vertex 236.549 336.512 4
      vertex 236.779 336.386 4
    endloop
  endfacet
  facet normal 0 0 -1
    outer loop
      vertex 236.779 336.386 4
      vertex 236.549 336.512 4
      vertex 236.708 336.438 4
    endloop
  endfacet
  facet normal -0 0 -1
    outer loop
      vertex 239.511 327.521 4
      vertex 232 326.3 4
      vertex 230.35 329.158 4
    endloop
  endfacet
  facet normal 0 0 -1
    outer loop
      vertex 239.399 326.935 4
      vertex 230.35 323.442 4
      vertex 232 326.3 4
    endloop
  endfacet
  facet normal 0 0 -1
    outer loop
      vertex 211.1 322.044 4
      vertex 227.05 323.442 4
      vertex 224.463 309.011 4
    endloop
  endfacet
  facet normal -0 0 -1
    outer loop
      vertex 230.35 323.442 4
      vertex 224.463 309.011 4
      vertex 227.05 323.442 4
    endloop
  endfacet
  facet normal 0 0 -1
    outer loop
      vertex 224.463 309.011 4
      vertex 230.35 323.442 4
      vertex 239.399 326.935 4
    endloop
  endfacet
  facet normal 0 0 -1
    outer loop
      vertex 236.708 336.438 4
      vertex 236.549 336.512 4
      vertex 236.631 336.48 4
    endloop
  endfacet
  facet normal 0 0 -1
    outer loop
      vertex 230.35 329.158 4
      vertex 228.049 339.012 4
      vertex 236.549 336.512 4
    endloop
  endfacet
  facet normal 0 0 -1
    outer loop
      vertex 227.323 338.826 4
      vertex 228.049 339.012 4
      vertex 230.35 329.158 4
    endloop
  endfacet
  facet normal -0 0 -1
    outer loop
      vertex 228.049 339.012 4
      vertex 227.323 338.826 4
      vertex 227.964 339.034 4
    endloop
  endfacet
  facet normal -0 0 -1
    outer loop
      vertex 227.964 339.034 4
      vertex 227.323 338.826 4
      vertex 227.877 339.045 4
    endloop
  endfacet
  facet normal -0 0 -1
    outer loop
      vertex 227.877 339.045 4
      vertex 227.323 338.826 4
      vertex 227.789 339.045 4
    endloop
  endfacet
  facet normal 0 0 -1
    outer loop
      vertex 227.789 339.045 4
      vertex 227.323 338.826 4
      vertex 227.702 339.034 4
    endloop
  endfacet
  facet normal 0 0 -1
    outer loop
      vertex 227.702 339.034 4
      vertex 227.323 338.826 4
      vertex 227.617 339.012 4
    endloop
  endfacet
  facet normal 0 0 -1
    outer loop
      vertex 227.617 339.012 4
      vertex 227.323 338.826 4
      vertex 227.535 338.98 4
    endloop
  endfacet
  facet normal 0 0 -1
    outer loop
      vertex 227.535 338.98 4
      vertex 227.323 338.826 4
      vertex 227.458 338.938 4
    endloop
  endfacet
  facet normal 0 0 -1
    outer loop
      vertex 227.458 338.938 4
      vertex 227.323 338.826 4
      vertex 227.387 338.886 4
    endloop
  endfacet
  facet normal 0 0 -1
    outer loop
      vertex 227.05 329.158 4
      vertex 227.323 338.826 4
      vertex 230.35 329.158 4
    endloop
  endfacet
  facet normal 0 0 -1
    outer loop
      vertex 211.1 322.044 4
      vertex 227.05 329.158 4
      vertex 225.4 326.3 4
    endloop
  endfacet
  facet normal 0 0 -1
    outer loop
      vertex 211.1 311 4
      vertex 224.463 309.011 4
      vertex 212.891 309.011 4
    endloop
  endfacet
  facet normal -0 0 -1
    outer loop
      vertex 227.05 323.442 4
      vertex 211.1 322.044 4
      vertex 225.4 326.3 4
    endloop
  endfacet
  facet normal 0 0 -1
    outer loop
      vertex 211.1 311 4
      vertex 212.891 309.011 4
      vertex 212.482 309.098 4
    endloop
  endfacet
  facet normal 0 0 -1
    outer loop
      vertex 211.1 311 4
      vertex 212.482 309.098 4
      vertex 212.1 309.268 4
    endloop
  endfacet
  facet normal 0 0 -1
    outer loop
      vertex 211.1 311 4
      vertex 212.1 309.268 4
      vertex 211.762 309.514 4
    endloop
  endfacet
  facet normal 0 0 -1
    outer loop
      vertex 211.1 311 4
      vertex 211.762 309.514 4
      vertex 211.482 309.824 4
    endloop
  endfacet
  facet normal 0 0 -1
    outer loop
      vertex 211.1 311 4
      vertex 211.482 309.824 4
      vertex 211.273 310.187 4
    endloop
  endfacet
  facet normal 0 0 -1
    outer loop
      vertex 211.1 311 4
      vertex 211.273 310.187 4
      vertex 211.144 310.584 4
    endloop
  endfacet
  facet normal 0 0 -1
    outer loop
      vertex 224.463 309.011 4
      vertex 211.1 311 4
      vertex 211.1 322.044 4
    endloop
  endfacet
  facet normal -0 0 -1
    outer loop
      vertex 227.05 329.158 4
      vertex 211.1 322.044 4
      vertex 227.323 338.826 4
    endloop
  endfacet
  facet normal -0.768227 0.640177 0
    outer loop
      vertex 224.463 309.011 0
      vertex 239.399 326.935 4
      vertex 239.399 326.935 0
    endloop
  endfacet
  facet normal -0.768227 0.640177 0
    outer loop
      vertex 239.399 326.935 4
      vertex 224.463 309.011 0
      vertex 224.463 309.011 4
    endloop
  endfacet
  facet normal -0.844311 0.535853 0
    outer loop
      vertex 239.399 326.935 0
      vertex 239.446 327.009 4
      vertex 239.446 327.009 0
    endloop
  endfacet
  facet normal -0.844311 0.535853 0
    outer loop
      vertex 239.446 327.009 4
      vertex 239.399 326.935 0
      vertex 239.399 326.935 4
    endloop
  endfacet
  facet normal -0.904799 0.425839 0
    outer loop
      vertex 239.446 327.009 0
      vertex 239.484 327.089 4
      vertex 239.484 327.089 0
    endloop
  endfacet
  facet normal -0.904799 0.425839 0
    outer loop
      vertex 239.484 327.089 4
      vertex 239.446 327.009 0
      vertex 239.446 327.009 4
    endloop
  endfacet
  facet normal -0.951085 0.308929 0
    outer loop
      vertex 239.484 327.089 0
      vertex 239.511 327.173 4
      vertex 239.511 327.173 0
    endloop
  endfacet
  facet normal -0.951085 0.308929 0
    outer loop
      vertex 239.511 327.173 4
      vertex 239.484 327.089 0
      vertex 239.484 327.089 4
    endloop
  endfacet
  facet normal -0.982278 0.187431 0
    outer loop
      vertex 239.511 327.173 0
      vertex 239.527 327.259 4
      vertex 239.527 327.259 0
    endloop
  endfacet
  facet normal -0.982278 0.187431 0
    outer loop
      vertex 239.527 327.259 4
      vertex 239.511 327.173 0
      vertex 239.511 327.173 4
    endloop
  endfacet
  facet normal -0.998023 0.0628539 0
    outer loop
      vertex 239.527 327.259 0
      vertex 239.533 327.347 4
      vertex 239.533 327.347 0
    endloop
  endfacet
  facet normal -0.998023 0.0628539 0
    outer loop
      vertex 239.533 327.347 4
      vertex 239.527 327.259 0
      vertex 239.527 327.259 4
    endloop
  endfacet
  facet normal -0.998023 -0.0628539 0
    outer loop
      vertex 239.533 327.347 0
      vertex 239.527 327.434 4
      vertex 239.527 327.434 0
    endloop
  endfacet
  facet normal -0.998023 -0.0628539 0
    outer loop
      vertex 239.527 327.434 4
      vertex 239.533 327.347 0
      vertex 239.533 327.347 4
    endloop
  endfacet
  facet normal -0.982278 -0.187431 0
    outer loop
      vertex 239.527 327.434 0
      vertex 239.511 327.521 4
      vertex 239.511 327.521 0
    endloop
  endfacet
  facet normal -0.982278 -0.187431 0
    outer loop
      vertex 239.511 327.521 4
      vertex 239.527 327.434 0
      vertex 239.527 327.434 4
    endloop
  endfacet
  facet normal -0.959366 -0.282166 0
    outer loop
      vertex 239.511 327.521 0
      vertex 237.011 336.021 4
      vertex 237.011 336.021 0
    endloop
  endfacet
  facet normal -0.959366 -0.282166 0
    outer loop
      vertex 237.011 336.021 4
      vertex 239.511 327.521 0
      vertex 239.511 327.521 4
    endloop
  endfacet
  facet normal -0.951085 -0.308929 0
    outer loop
      vertex 237.011 336.021 0
      vertex 236.984 336.104 4
      vertex 236.984 336.104 0
    endloop
  endfacet
  facet normal -0.951085 -0.308929 0
    outer loop
      vertex 236.984 336.104 4
      vertex 237.011 336.021 0
      vertex 237.011 336.021 4
    endloop
  endfacet
  facet normal -0.904799 -0.425839 0
    outer loop
      vertex 236.984 336.104 0
      vertex 236.946 336.184 4
      vertex 236.946 336.184 0
    endloop
  endfacet
  facet normal -0.904799 -0.425839 0
    outer loop
      vertex 236.946 336.184 4
      vertex 236.984 336.104 0
      vertex 236.984 336.104 4
    endloop
  endfacet
  facet normal -0.844311 -0.535853 0
    outer loop
      vertex 236.946 336.184 0
      vertex 236.899 336.258 4
      vertex 236.899 336.258 0
    endloop
  endfacet
  facet normal -0.844311 -0.535853 0
    outer loop
      vertex 236.899 336.258 4
      vertex 236.946 336.184 0
      vertex 236.946 336.184 4
    endloop
  endfacet
  facet normal -0.770606 -0.637312 0
    outer loop
      vertex 236.899 336.258 0
      vertex 236.843 336.326 4
      vertex 236.843 336.326 0
    endloop
  endfacet
  facet normal -0.770606 -0.637312 0
    outer loop
      vertex 236.843 336.326 4
      vertex 236.899 336.258 0
      vertex 236.899 336.258 4
    endloop
  endfacet
  facet normal -0.684541 -0.728974 0
    outer loop
      vertex 236.779 336.386 0
      vertex 236.843 336.326 4
      vertex 236.779 336.386 4
    endloop
  endfacet
  facet normal -0.684541 -0.728974 -0
    outer loop
      vertex 236.843 336.326 4
      vertex 236.779 336.386 0
      vertex 236.843 336.326 0
    endloop
  endfacet
  facet normal -0.587593 -0.809156 0
    outer loop
      vertex 236.708 336.438 0
      vertex 236.779 336.386 4
      vertex 236.708 336.438 4
    endloop
  endfacet
  facet normal -0.587593 -0.809156 -0
    outer loop
      vertex 236.779 336.386 4
      vertex 236.708 336.438 0
      vertex 236.779 336.386 0
    endloop
  endfacet
  facet normal -0.481792 -0.876286 0
    outer loop
      vertex 236.631 336.48 0
      vertex 236.708 336.438 4
      vertex 236.631 336.48 4
    endloop
  endfacet
  facet normal -0.481792 -0.876286 -0
    outer loop
      vertex 236.708 336.438 4
      vertex 236.631 336.48 0
      vertex 236.708 336.438 0
    endloop
  endfacet
  facet normal -0.368036 -0.929812 0
    outer loop
      vertex 236.549 336.512 0
      vertex 236.631 336.48 4
      vertex 236.549 336.512 4
    endloop
  endfacet
  facet normal -0.368036 -0.929812 -0
    outer loop
      vertex 236.631 336.48 4
      vertex 236.549 336.512 0
      vertex 236.631 336.48 0
    endloop
  endfacet
  facet normal -0.282166 -0.959366 0
    outer loop
      vertex 228.049 339.012 0
      vertex 236.549 336.512 4
      vertex 228.049 339.012 4
    endloop
  endfacet
  facet normal -0.282166 -0.959366 -0
    outer loop
      vertex 236.549 336.512 4
      vertex 228.049 339.012 0
      vertex 236.549 336.512 0
    endloop
  endfacet
  facet normal -0.248901 -0.968529 0
    outer loop
      vertex 227.964 339.034 0
      vertex 228.049 339.012 4
      vertex 227.964 339.034 4
    endloop
  endfacet
  facet normal -0.248901 -0.968529 -0
    outer loop
      vertex 228.049 339.012 4
      vertex 227.964 339.034 0
      vertex 228.049 339.012 0
    endloop
  endfacet
  facet normal -0.125316 -0.992117 0
    outer loop
      vertex 227.877 339.045 0
      vertex 227.964 339.034 4
      vertex 227.877 339.045 4
    endloop
  endfacet
  facet normal -0.125316 -0.992117 -0
    outer loop
      vertex 227.964 339.034 4
      vertex 227.877 339.045 0
      vertex 227.964 339.034 0
    endloop
  endfacet
  facet normal 0 -1 0
    outer loop
      vertex 227.789 339.045 0
      vertex 227.877 339.045 4
      vertex 227.789 339.045 4
    endloop
  endfacet
  facet normal 0 -1 -0
    outer loop
      vertex 227.877 339.045 4
      vertex 227.789 339.045 0
      vertex 227.877 339.045 0
    endloop
  endfacet
  facet normal 0.125316 -0.992117 0
    outer loop
      vertex 227.702 339.034 0
      vertex 227.789 339.045 4
      vertex 227.702 339.034 4
    endloop
  endfacet
  facet normal 0.125316 -0.992117 0
    outer loop
      vertex 227.789 339.045 4
      vertex 227.702 339.034 0
      vertex 227.789 339.045 0
    endloop
  endfacet
  facet normal 0.248901 -0.968529 0
    outer loop
      vertex 227.617 339.012 0
      vertex 227.702 339.034 4
      vertex 227.617 339.012 4
    endloop
  endfacet
  facet normal 0.248901 -0.968529 0
    outer loop
      vertex 227.702 339.034 4
      vertex 227.617 339.012 0
      vertex 227.702 339.034 0
    endloop
  endfacet
  facet normal 0.368036 -0.929812 0
    outer loop
      vertex 227.535 338.98 0
      vertex 227.617 339.012 4
      vertex 227.535 338.98 4
    endloop
  endfacet
  facet normal 0.368036 -0.929812 0
    outer loop
      vertex 227.617 339.012 4
      vertex 227.535 338.98 0
      vertex 227.617 339.012 0
    endloop
  endfacet
  facet normal 0.481792 -0.876286 0
    outer loop
      vertex 227.458 338.938 0
      vertex 227.535 338.98 4
      vertex 227.458 338.938 4
    endloop
  endfacet
  facet normal 0.481792 -0.876286 0
    outer loop
      vertex 227.535 338.98 4
      vertex 227.458 338.938 0
      vertex 227.535 338.98 0
    endloop
  endfacet
  facet normal 0.587593 -0.809156 0
    outer loop
      vertex 227.387 338.886 0
      vertex 227.458 338.938 4
      vertex 227.387 338.886 4
    endloop
  endfacet
  facet normal 0.587593 -0.809156 0
    outer loop
      vertex 227.458 338.938 4
      vertex 227.387 338.886 0
      vertex 227.458 338.938 0
    endloop
  endfacet
  facet normal 0.684541 -0.728974 0
    outer loop
      vertex 227.323 338.826 0
      vertex 227.387 338.886 4
      vertex 227.323 338.826 4
    endloop
  endfacet
  facet normal 0.684541 -0.728974 0
    outer loop
      vertex 227.387 338.886 4
      vertex 227.323 338.826 0
      vertex 227.387 338.886 0
    endloop
  endfacet
  facet normal 0.718989 -0.695021 0
    outer loop
      vertex 211.1 322.044 4
      vertex 227.323 338.826 0
      vertex 227.323 338.826 4
    endloop
  endfacet
  facet normal 0.718989 -0.695021 0
    outer loop
      vertex 227.323 338.826 0
      vertex 211.1 322.044 4
      vertex 211.1 322.044 0
    endloop
  endfacet
  facet normal 0 0 -1
    outer loop
      vertex 211.1 311 -0.4
      vertex 223.7 309.011 -0.4
      vertex 212.891 309.011 -0.4
    endloop
  endfacet
  facet normal 0 0 -1
    outer loop
      vertex 223.7 309.011 -0.4
      vertex 211.1 311 -0.4
      vertex 223.7 342.989 -0.4
    endloop
  endfacet
  facet normal 0 0 -1
    outer loop
      vertex 211.1 311 -0.4
      vertex 212.891 309.011 -0.4
      vertex 212.482 309.098 -0.4
    endloop
  endfacet
  facet normal 0 0 -1
    outer loop
      vertex 211.1 341 -0.4
      vertex 223.7 342.989 -0.4
      vertex 211.1 311 -0.4
    endloop
  endfacet
  facet normal 0 0 -1
    outer loop
      vertex 212.891 342.989 -0.4
      vertex 211.1 341 -0.4
      vertex 212.482 342.902 -0.4
    endloop
  endfacet
  facet normal 0 0 -1
    outer loop
      vertex 211.1 311 -0.4
      vertex 212.482 309.098 -0.4
      vertex 212.1 309.268 -0.4
    endloop
  endfacet
  facet normal 0 0 -1
    outer loop
      vertex 211.1 311 -0.4
      vertex 212.1 309.268 -0.4
      vertex 211.762 309.514 -0.4
    endloop
  endfacet
  facet normal -0 0 -1
    outer loop
      vertex 223.7 342.989 -0.4
      vertex 211.1 341 -0.4
      vertex 212.891 342.989 -0.4
    endloop
  endfacet
  facet normal 0 0 -1
    outer loop
      vertex 211.1 311 -0.4
      vertex 211.762 309.514 -0.4
      vertex 211.482 309.824 -0.4
    endloop
  endfacet
  facet normal 0 0 -1
    outer loop
      vertex 212.482 342.902 -0.4
      vertex 211.1 341 -0.4
      vertex 212.1 342.732 -0.4
    endloop
  endfacet
  facet normal 0 0 -1
    outer loop
      vertex 211.1 311 -0.4
      vertex 211.482 309.824 -0.4
      vertex 211.273 310.187 -0.4
    endloop
  endfacet
  facet normal 0 0 -1
    outer loop
      vertex 212.1 342.732 -0.4
      vertex 211.1 341 -0.4
      vertex 211.762 342.486 -0.4
    endloop
  endfacet
  facet normal 0 0 -1
    outer loop
      vertex 211.1 311 -0.4
      vertex 211.273 310.187 -0.4
      vertex 211.144 310.584 -0.4
    endloop
  endfacet
  facet normal 0 0 -1
    outer loop
      vertex 211.762 342.486 -0.4
      vertex 211.1 341 -0.4
      vertex 211.482 342.176 -0.4
    endloop
  endfacet
  facet normal 0 0 -1
    outer loop
      vertex 211.482 342.176 -0.4
      vertex 211.1 341 -0.4
      vertex 211.273 341.813 -0.4
    endloop
  endfacet
  facet normal 0 0 -1
    outer loop
      vertex 211.273 341.813 -0.4
      vertex 211.1 341 -0.4
      vertex 211.144 341.416 -0.4
    endloop
  endfacet
  facet normal -1 0 0
    outer loop
      vertex 223.7 327.878 -1
      vertex 223.7 342.989 -0.4
      vertex 223.7 342.989 -1
    endloop
  endfacet
  facet normal -1 0 0
    outer loop
      vertex 223.7 323.722 -1
      vertex 223.7 327.811 -1.03226
      vertex 223.7 325.8 -2
    endloop
  endfacet
  facet normal -1 0 0
    outer loop
      vertex 223.7 327.811 -1.03226
      vertex 223.7 323.722 -1
      vertex 223.7 327.878 -1
    endloop
  endfacet
  facet normal -1 0 0
    outer loop
      vertex 223.7 323.722 -1
      vertex 223.7 342.989 -0.4
      vertex 223.7 327.878 -1
    endloop
  endfacet
  facet normal -1 0 0
    outer loop
      vertex 223.7 309.011 -0.4
      vertex 223.7 323.722 -1
      vertex 223.7 309.011 -1
    endloop
  endfacet
  facet normal -1 0 0
    outer loop
      vertex 223.7 323.722 -1
      vertex 223.7 309.011 -0.4
      vertex 223.7 342.989 -0.4
    endloop
  endfacet
endsolid OpenSCAD_Model
