solid OpenSCAD_Model
  facet normal -1 0 0
    outer loop
      vertex -17.5 -6.6 1.85
      vertex -17.5 6.6 3.85
      vertex -17.5 6.6 1.85
    endloop
  endfacet
  facet normal -1 -0 0
    outer loop
      vertex -17.5 6.6 3.85
      vertex -17.5 -6.6 1.85
      vertex -17.5 -6.6 3.85
    endloop
  endfacet
  facet normal -1 0 0
    outer loop
      vertex -17.5 -6.6 -3.85
      vertex -17.5 6.6 -1.85
      vertex -17.5 6.6 -3.85
    endloop
  endfacet
  facet normal -1 -0 0
    outer loop
      vertex -17.5 6.6 -1.85
      vertex -17.5 -6.6 -3.85
      vertex -17.5 -6.6 -1.85
    endloop
  endfacet
  facet normal 0 0 1
    outer loop
      vertex 17.5 6.6 3.85
      vertex 13.7579 1.65 3.85
      vertex 17.5 -6.6 3.85
    endloop
  endfacet
  facet normal 0 0 1
    outer loop
      vertex 17.5 6.6 3.85
      vertex 10.9 3.3 3.85
      vertex 13.7579 1.65 3.85
    endloop
  endfacet
  facet normal 0 0 1
    outer loop
      vertex 8.04212 1.65 3.85
      vertex -17.5 6.6 3.85
      vertex 8.04212 -1.65 3.85
    endloop
  endfacet
  facet normal 0 0 1
    outer loop
      vertex 10.9 3.3 3.85
      vertex -17.5 6.6 3.85
      vertex 8.04212 1.65 3.85
    endloop
  endfacet
  facet normal -0 0 1
    outer loop
      vertex -17.5 6.6 3.85
      vertex 10.9 3.3 3.85
      vertex 17.5 6.6 3.85
    endloop
  endfacet
  facet normal -0 0 1
    outer loop
      vertex 13.7579 -1.65 3.85
      vertex 17.5 -6.6 3.85
      vertex 13.7579 1.65 3.85
    endloop
  endfacet
  facet normal -0 0 1
    outer loop
      vertex 10.9 -3.3 3.85
      vertex 17.5 -6.6 3.85
      vertex 13.7579 -1.65 3.85
    endloop
  endfacet
  facet normal 0 0 1
    outer loop
      vertex -17.5 -6.6 3.85
      vertex 8.04212 -1.65 3.85
      vertex -17.5 6.6 3.85
    endloop
  endfacet
  facet normal 0 0 1
    outer loop
      vertex 8.04212 -1.65 3.85
      vertex -17.5 -6.6 3.85
      vertex 10.9 -3.3 3.85
    endloop
  endfacet
  facet normal 0 0 1
    outer loop
      vertex 10.9 -3.3 3.85
      vertex -17.5 -6.6 3.85
      vertex 17.5 -6.6 3.85
    endloop
  endfacet
  facet normal 1 -0 0
    outer loop
      vertex 17.5 -6.6 3.85
      vertex 17.5 6.6 -3.85
      vertex 17.5 6.6 3.85
    endloop
  endfacet
  facet normal 1 0 0
    outer loop
      vertex 17.5 6.6 -3.85
      vertex 17.5 -6.6 3.85
      vertex 17.5 -6.6 -3.85
    endloop
  endfacet
  facet normal 0 1 0
    outer loop
      vertex 17.5 6.6 3.85
      vertex 4.3 6.6 1.85
      vertex -17.5 6.6 3.85
    endloop
  endfacet
  facet normal 0 1 0
    outer loop
      vertex 17.5 6.6 3.85
      vertex 4.3 6.6 -1.85
      vertex 4.3 6.6 1.85
    endloop
  endfacet
  facet normal 0 1 -0
    outer loop
      vertex 17.5 6.6 -3.85
      vertex 4.3 6.6 -1.85
      vertex 17.5 6.6 3.85
    endloop
  endfacet
  facet normal 0 1 0
    outer loop
      vertex -17.5 6.6 -3.85
      vertex 4.3 6.6 -1.85
      vertex 17.5 6.6 -3.85
    endloop
  endfacet
  facet normal 0 1 0
    outer loop
      vertex 4.3 6.6 -1.85
      vertex -17.5 6.6 -3.85
      vertex -17.5 6.6 -1.85
    endloop
  endfacet
  facet normal 0 1 0
    outer loop
      vertex -17.5 6.6 3.85
      vertex 4.3 6.6 1.85
      vertex -17.5 6.6 1.85
    endloop
  endfacet
  facet normal 0 0 -1
    outer loop
      vertex 17.5 -6.6 -3.85
      vertex 12.9 0 -3.85
      vertex 17.5 6.6 -3.85
    endloop
  endfacet
  facet normal 0 0 -1
    outer loop
      vertex 17.5 -6.6 -3.85
      vertex 12.6709 -0.929446 -3.85
      vertex 12.9 0 -3.85
    endloop
  endfacet
  facet normal 0 0 -1
    outer loop
      vertex 17.5 -6.6 -3.85
      vertex 12.0361 -1.64597 -3.85
      vertex 12.6709 -0.929446 -3.85
    endloop
  endfacet
  facet normal 0 0 -1
    outer loop
      vertex 17.5 -6.6 -3.85
      vertex 11.1411 -1.98542 -3.85
      vertex 12.0361 -1.64597 -3.85
    endloop
  endfacet
  facet normal 0 0 -1
    outer loop
      vertex 17.5 -6.6 -3.85
      vertex 10.1908 -1.87003 -3.85
      vertex 11.1411 -1.98542 -3.85
    endloop
  endfacet
  facet normal -0 0 -1
    outer loop
      vertex 8.95812 -0.478631 -3.85
      vertex -17.5 -6.6 -3.85
      vertex 8.95812 0.478631 -3.85
    endloop
  endfacet
  facet normal -0 0 -1
    outer loop
      vertex 9.40298 -1.32625 -3.85
      vertex -17.5 -6.6 -3.85
      vertex 8.95812 -0.478631 -3.85
    endloop
  endfacet
  facet normal -0 0 -1
    outer loop
      vertex 10.1908 -1.87003 -3.85
      vertex -17.5 -6.6 -3.85
      vertex 9.40298 -1.32625 -3.85
    endloop
  endfacet
  facet normal 0 0 -1
    outer loop
      vertex -17.5 -6.6 -3.85
      vertex 10.1908 -1.87003 -3.85
      vertex 17.5 -6.6 -3.85
    endloop
  endfacet
  facet normal 0 0 -1
    outer loop
      vertex 12.6709 0.929446 -3.85
      vertex 17.5 6.6 -3.85
      vertex 12.9 0 -3.85
    endloop
  endfacet
  facet normal 0 0 -1
    outer loop
      vertex 12.0361 1.64597 -3.85
      vertex 17.5 6.6 -3.85
      vertex 12.6709 0.929446 -3.85
    endloop
  endfacet
  facet normal 0 0 -1
    outer loop
      vertex 11.1411 1.98542 -3.85
      vertex 17.5 6.6 -3.85
      vertex 12.0361 1.64597 -3.85
    endloop
  endfacet
  facet normal 0 0 -1
    outer loop
      vertex 10.1908 1.87003 -3.85
      vertex 17.5 6.6 -3.85
      vertex 11.1411 1.98542 -3.85
    endloop
  endfacet
  facet normal 0 0 -1
    outer loop
      vertex -17.5 6.6 -3.85
      vertex 8.95812 0.478631 -3.85
      vertex -17.5 -6.6 -3.85
    endloop
  endfacet
  facet normal 0 0 -1
    outer loop
      vertex 8.95812 0.478631 -3.85
      vertex -17.5 6.6 -3.85
      vertex 9.40298 1.32625 -3.85
    endloop
  endfacet
  facet normal 0 0 -1
    outer loop
      vertex 9.40298 1.32625 -3.85
      vertex -17.5 6.6 -3.85
      vertex 10.1908 1.87003 -3.85
    endloop
  endfacet
  facet normal 0 0 -1
    outer loop
      vertex 10.1908 1.87003 -3.85
      vertex -17.5 6.6 -3.85
      vertex 17.5 6.6 -3.85
    endloop
  endfacet
  facet normal 0 -1 0
    outer loop
      vertex -17.5 -6.6 -1.85
      vertex -17.5 -6.6 -3.85
      vertex 4.3 -6.6 -1.85
    endloop
  endfacet
  facet normal 0 -1 0
    outer loop
      vertex 4.3 -6.6 1.85
      vertex -17.5 -6.6 3.85
      vertex -17.5 -6.6 1.85
    endloop
  endfacet
  facet normal 0 -1 0
    outer loop
      vertex -17.5 -6.6 3.85
      vertex 4.3 -6.6 1.85
      vertex 17.5 -6.6 3.85
    endloop
  endfacet
  facet normal 0 -1 0
    outer loop
      vertex 4.3 -6.6 -1.85
      vertex 17.5 -6.6 3.85
      vertex 4.3 -6.6 1.85
    endloop
  endfacet
  facet normal 0 -1 0
    outer loop
      vertex 4.3 -6.6 -1.85
      vertex 17.5 -6.6 -3.85
      vertex 17.5 -6.6 3.85
    endloop
  endfacet
  facet normal 0 -1 0
    outer loop
      vertex 17.5 -6.6 -3.85
      vertex 4.3 -6.6 -1.85
      vertex -17.5 -6.6 -3.85
    endloop
  endfacet
  facet normal 0 0 -1
    outer loop
      vertex -17.5 -6.6 1.85
      vertex 4.3 6.6 1.85
      vertex 4.3 -6.6 1.85
    endloop
  endfacet
  facet normal -0 0 -1
    outer loop
      vertex 4.3 6.6 1.85
      vertex -17.5 -6.6 1.85
      vertex -17.5 6.6 1.85
    endloop
  endfacet
  facet normal -1 0 0
    outer loop
      vertex 4.3 -6.6 -1.85
      vertex 4.3 6.6 1.85
      vertex 4.3 6.6 -1.85
    endloop
  endfacet
  facet normal -1 -0 0
    outer loop
      vertex 4.3 6.6 1.85
      vertex 4.3 -6.6 -1.85
      vertex 4.3 -6.6 1.85
    endloop
  endfacet
  facet normal -0 0 1
    outer loop
      vertex -17.5 6.6 -1.85
      vertex 4.3 -6.6 -1.85
      vertex 4.3 6.6 -1.85
    endloop
  endfacet
  facet normal 0 0 1
    outer loop
      vertex 4.3 -6.6 -1.85
      vertex -17.5 6.6 -1.85
      vertex -17.5 -6.6 -1.85
    endloop
  endfacet
  facet normal -0.5 -0.866025 0
    outer loop
      vertex 10.9 3.3 1.926
      vertex 13.7579 1.65 3.85
      vertex 10.9 3.3 3.85
    endloop
  endfacet
  facet normal -0.5 -0.866025 -0
    outer loop
      vertex 13.7579 1.65 3.85
      vertex 10.9 3.3 1.926
      vertex 13.7579 1.65 1.926
    endloop
  endfacet
  facet normal 1 -0 0
    outer loop
      vertex 8.04212 -1.65 3.85
      vertex 8.04212 1.65 1.926
      vertex 8.04212 1.65 3.85
    endloop
  endfacet
  facet normal 1 0 0
    outer loop
      vertex 8.04212 1.65 1.926
      vertex 8.04212 -1.65 3.85
      vertex 8.04212 -1.65 1.926
    endloop
  endfacet
  facet normal 0.5 -0.866025 0
    outer loop
      vertex 8.04212 1.65 1.926
      vertex 10.9 3.3 3.85
      vertex 8.04212 1.65 3.85
    endloop
  endfacet
  facet normal 0.5 -0.866025 0
    outer loop
      vertex 10.9 3.3 3.85
      vertex 8.04212 1.65 1.926
      vertex 10.9 3.3 1.926
    endloop
  endfacet
  facet normal 0.5 0.866025 -0
    outer loop
      vertex 10.9 -3.3 1.926
      vertex 8.04212 -1.65 3.85
      vertex 10.9 -3.3 3.85
    endloop
  endfacet
  facet normal 0.5 0.866025 0
    outer loop
      vertex 8.04212 -1.65 3.85
      vertex 10.9 -3.3 1.926
      vertex 8.04212 -1.65 1.926
    endloop
  endfacet
  facet normal -1 0 0
    outer loop
      vertex 13.7579 -1.65 1.926
      vertex 13.7579 1.65 3.85
      vertex 13.7579 1.65 1.926
    endloop
  endfacet
  facet normal -1 -0 0
    outer loop
      vertex 13.7579 1.65 3.85
      vertex 13.7579 -1.65 1.926
      vertex 13.7579 -1.65 3.85
    endloop
  endfacet
  facet normal 0 0 1
    outer loop
      vertex 13.7579 1.65 1.926
      vertex 12.9 0 1.926
      vertex 13.7579 -1.65 1.926
    endloop
  endfacet
  facet normal 0 0 1
    outer loop
      vertex 13.7579 1.65 1.926
      vertex 12.6709 0.929446 1.926
      vertex 12.9 0 1.926
    endloop
  endfacet
  facet normal 0 0 1
    outer loop
      vertex 13.7579 1.65 1.926
      vertex 12.0361 1.64597 1.926
      vertex 12.6709 0.929446 1.926
    endloop
  endfacet
  facet normal 0 0 1
    outer loop
      vertex 10.9 3.3 1.926
      vertex 12.0361 1.64597 1.926
      vertex 13.7579 1.65 1.926
    endloop
  endfacet
  facet normal 0 0 1
    outer loop
      vertex 12.0361 1.64597 1.926
      vertex 10.9 3.3 1.926
      vertex 11.1411 1.98542 1.926
    endloop
  endfacet
  facet normal 0 0 1
    outer loop
      vertex 10.9 3.3 1.926
      vertex 10.1908 1.87003 1.926
      vertex 11.1411 1.98542 1.926
    endloop
  endfacet
  facet normal 0 0 1
    outer loop
      vertex 8.04212 1.65 1.926
      vertex 10.1908 1.87003 1.926
      vertex 10.9 3.3 1.926
    endloop
  endfacet
  facet normal 0 0 1
    outer loop
      vertex 8.95812 0.478631 1.926
      vertex 8.04212 1.65 1.926
      vertex 8.95812 -0.478631 1.926
    endloop
  endfacet
  facet normal 0 0 1
    outer loop
      vertex 9.40298 1.32625 1.926
      vertex 8.04212 1.65 1.926
      vertex 8.95812 0.478631 1.926
    endloop
  endfacet
  facet normal 0 0 1
    outer loop
      vertex 10.1908 1.87003 1.926
      vertex 8.04212 1.65 1.926
      vertex 9.40298 1.32625 1.926
    endloop
  endfacet
  facet normal -0 0 1
    outer loop
      vertex 12.6709 -0.929446 1.926
      vertex 13.7579 -1.65 1.926
      vertex 12.9 0 1.926
    endloop
  endfacet
  facet normal -0 0 1
    outer loop
      vertex 12.0361 -1.64597 1.926
      vertex 13.7579 -1.65 1.926
      vertex 12.6709 -0.929446 1.926
    endloop
  endfacet
  facet normal 0 0 1
    outer loop
      vertex 10.9 -3.3 1.926
      vertex 12.0361 -1.64597 1.926
      vertex 11.1411 -1.98542 1.926
    endloop
  endfacet
  facet normal 0 0 1
    outer loop
      vertex 12.0361 -1.64597 1.926
      vertex 10.9 -3.3 1.926
      vertex 13.7579 -1.65 1.926
    endloop
  endfacet
  facet normal 0 0 1
    outer loop
      vertex 10.1908 -1.87003 1.926
      vertex 10.9 -3.3 1.926
      vertex 11.1411 -1.98542 1.926
    endloop
  endfacet
  facet normal -0 0 1
    outer loop
      vertex 8.04212 -1.65 1.926
      vertex 10.1908 -1.87003 1.926
      vertex 9.40298 -1.32625 1.926
    endloop
  endfacet
  facet normal 0 0 1
    outer loop
      vertex 10.1908 -1.87003 1.926
      vertex 8.04212 -1.65 1.926
      vertex 10.9 -3.3 1.926
    endloop
  endfacet
  facet normal 0 0 1
    outer loop
      vertex 8.95812 -0.478631 1.926
      vertex 8.04212 -1.65 1.926
      vertex 9.40298 -1.32625 1.926
    endloop
  endfacet
  facet normal 0 0 1
    outer loop
      vertex 8.04212 -1.65 1.926
      vertex 8.95812 -0.478631 1.926
      vertex 8.04212 1.65 1.926
    endloop
  endfacet
  facet normal -0.5 0.866025 0
    outer loop
      vertex 13.7579 -1.65 1.926
      vertex 10.9 -3.3 3.85
      vertex 13.7579 -1.65 3.85
    endloop
  endfacet
  facet normal -0.5 0.866025 0
    outer loop
      vertex 10.9 -3.3 3.85
      vertex 13.7579 -1.65 1.926
      vertex 10.9 -3.3 1.926
    endloop
  endfacet
  facet normal -0.970942 -0.239316 0
    outer loop
      vertex 12.9 0 -3.85
      vertex 12.6709 0.929446 1.926
      vertex 12.6709 0.929446 -3.85
    endloop
  endfacet
  facet normal -0.970942 -0.239316 0
    outer loop
      vertex 12.6709 0.929446 1.926
      vertex 12.9 0 -3.85
      vertex 12.9 0 1.926
    endloop
  endfacet
  facet normal 1 -0 0
    outer loop
      vertex 8.95812 -0.478631 1.926
      vertex 8.95812 0.478631 -3.85
      vertex 8.95812 0.478631 1.926
    endloop
  endfacet
  facet normal 1 0 0
    outer loop
      vertex 8.95812 0.478631 -3.85
      vertex 8.95812 -0.478631 1.926
      vertex 8.95812 -0.478631 -3.85
    endloop
  endfacet
  facet normal 0.120536 -0.992709 0
    outer loop
      vertex 10.1908 1.87003 -3.85
      vertex 11.1411 1.98542 1.926
      vertex 10.1908 1.87003 1.926
    endloop
  endfacet
  facet normal 0.120536 -0.992709 0
    outer loop
      vertex 11.1411 1.98542 1.926
      vertex 10.1908 1.87003 -3.85
      vertex 11.1411 1.98542 -3.85
    endloop
  endfacet
  facet normal -0.748511 -0.663123 0
    outer loop
      vertex 12.6709 0.929446 -3.85
      vertex 12.0361 1.64597 1.926
      vertex 12.0361 1.64597 -3.85
    endloop
  endfacet
  facet normal -0.748511 -0.663123 0
    outer loop
      vertex 12.0361 1.64597 1.926
      vertex 12.6709 0.929446 -3.85
      vertex 12.6709 0.929446 1.926
    endloop
  endfacet
  facet normal 0.568064 -0.822984 0
    outer loop
      vertex 9.40298 1.32625 -3.85
      vertex 10.1908 1.87003 1.926
      vertex 9.40298 1.32625 1.926
    endloop
  endfacet
  facet normal 0.568064 -0.822984 0
    outer loop
      vertex 10.1908 1.87003 1.926
      vertex 9.40298 1.32625 -3.85
      vertex 10.1908 1.87003 -3.85
    endloop
  endfacet
  facet normal -0.354605 0.935016 0
    outer loop
      vertex 12.0361 -1.64597 -3.85
      vertex 11.1411 -1.98542 1.926
      vertex 12.0361 -1.64597 1.926
    endloop
  endfacet
  facet normal -0.354605 0.935016 0
    outer loop
      vertex 11.1411 -1.98542 1.926
      vertex 12.0361 -1.64597 -3.85
      vertex 11.1411 -1.98542 -3.85
    endloop
  endfacet
  facet normal 0.885456 0.464723 0
    outer loop
      vertex 9.40298 -1.32625 1.926
      vertex 8.95812 -0.478631 -3.85
      vertex 8.95812 -0.478631 1.926
    endloop
  endfacet
  facet normal 0.885456 0.464723 0
    outer loop
      vertex 8.95812 -0.478631 -3.85
      vertex 9.40298 -1.32625 1.926
      vertex 9.40298 -1.32625 -3.85
    endloop
  endfacet
  facet normal -0.354605 -0.935016 0
    outer loop
      vertex 11.1411 1.98542 -3.85
      vertex 12.0361 1.64597 1.926
      vertex 11.1411 1.98542 1.926
    endloop
  endfacet
  facet normal -0.354605 -0.935016 -0
    outer loop
      vertex 12.0361 1.64597 1.926
      vertex 11.1411 1.98542 -3.85
      vertex 12.0361 1.64597 -3.85
    endloop
  endfacet
  facet normal 0.885456 -0.464723 0
    outer loop
      vertex 8.95812 0.478631 1.926
      vertex 9.40298 1.32625 -3.85
      vertex 9.40298 1.32625 1.926
    endloop
  endfacet
  facet normal 0.885456 -0.464723 0
    outer loop
      vertex 9.40298 1.32625 -3.85
      vertex 8.95812 0.478631 1.926
      vertex 8.95812 0.478631 -3.85
    endloop
  endfacet
  facet normal -0.970942 0.239316 0
    outer loop
      vertex 12.6709 -0.929446 -3.85
      vertex 12.9 0 1.926
      vertex 12.9 0 -3.85
    endloop
  endfacet
  facet normal -0.970942 0.239316 0
    outer loop
      vertex 12.9 0 1.926
      vertex 12.6709 -0.929446 -3.85
      vertex 12.6709 -0.929446 1.926
    endloop
  endfacet
  facet normal 0.568064 0.822984 -0
    outer loop
      vertex 10.1908 -1.87003 -3.85
      vertex 9.40298 -1.32625 1.926
      vertex 10.1908 -1.87003 1.926
    endloop
  endfacet
  facet normal 0.568064 0.822984 0
    outer loop
      vertex 9.40298 -1.32625 1.926
      vertex 10.1908 -1.87003 -3.85
      vertex 9.40298 -1.32625 -3.85
    endloop
  endfacet
  facet normal -0.748511 0.663123 0
    outer loop
      vertex 12.0361 -1.64597 -3.85
      vertex 12.6709 -0.929446 1.926
      vertex 12.6709 -0.929446 -3.85
    endloop
  endfacet
  facet normal -0.748511 0.663123 0
    outer loop
      vertex 12.6709 -0.929446 1.926
      vertex 12.0361 -1.64597 -3.85
      vertex 12.0361 -1.64597 1.926
    endloop
  endfacet
  facet normal 0.120536 0.992709 -0
    outer loop
      vertex 11.1411 -1.98542 -3.85
      vertex 10.1908 -1.87003 1.926
      vertex 11.1411 -1.98542 1.926
    endloop
  endfacet
  facet normal 0.120536 0.992709 0
    outer loop
      vertex 10.1908 -1.87003 1.926
      vertex 11.1411 -1.98542 -3.85
      vertex 10.1908 -1.87003 -3.85
    endloop
  endfacet
endsolid OpenSCAD_Model
