solid OpenSCAD_Model
  facet normal 0.587833 0.808982 -0
    outer loop
      vertex 240.438 342.486 -1
      vertex 240.1 342.732 8
      vertex 240.438 342.486 8
    endloop
  endfacet
  facet normal 0.587833 0.808982 0
    outer loop
      vertex 240.1 342.732 8
      vertex 240.438 342.486 -1
      vertex 240.1 342.732 -1
    endloop
  endfacet
  facet normal 0.994519 0.104554 0
    outer loop
      vertex 241.1 341 8
      vertex 241.056 341.416 -1
      vertex 241.056 341.416 8
    endloop
  endfacet
  facet normal 0.994519 0.104554 0
    outer loop
      vertex 241.056 341.416 -1
      vertex 241.1 341 8
      vertex 241.1 341 -1
    endloop
  endfacet
  facet normal 0.406694 0.913565 -0
    outer loop
      vertex 240.1 342.732 -1
      vertex 239.718 342.902 8
      vertex 240.1 342.732 8
    endloop
  endfacet
  facet normal 0.406694 0.913565 0
    outer loop
      vertex 239.718 342.902 8
      vertex 240.1 342.732 -1
      vertex 239.718 342.902 -1
    endloop
  endfacet
  facet normal 0.951061 0.309004 0
    outer loop
      vertex 241.056 341.416 8
      vertex 240.927 341.813 -1
      vertex 240.927 341.813 8
    endloop
  endfacet
  facet normal 0.951061 0.309004 0
    outer loop
      vertex 240.927 341.813 -1
      vertex 241.056 341.416 8
      vertex 241.056 341.416 -1
    endloop
  endfacet
  facet normal 0 0 1
    outer loop
      vertex 239.309 342.989 8
      vertex 241.1 341 8
      vertex 241.056 341.416 8
    endloop
  endfacet
  facet normal 0 0 1
    outer loop
      vertex 241.1 341 8
      vertex 230.2 325.8 8
      vertex 241.1 311 8
    endloop
  endfacet
  facet normal 0 0 1
    outer loop
      vertex 239.309 342.989 8
      vertex 241.056 341.416 8
      vertex 240.927 341.813 8
    endloop
  endfacet
  facet normal -0 0 1
    outer loop
      vertex 230.156 325.384 8
      vertex 241.1 311 8
      vertex 230.2 325.8 8
    endloop
  endfacet
  facet normal 0 0 1
    outer loop
      vertex 239.309 342.989 8
      vertex 240.927 341.813 8
      vertex 240.718 342.176 8
    endloop
  endfacet
  facet normal -0 0 1
    outer loop
      vertex 230.027 324.987 8
      vertex 241.1 311 8
      vertex 230.156 325.384 8
    endloop
  endfacet
  facet normal 0 0 1
    outer loop
      vertex 239.309 342.989 8
      vertex 240.718 342.176 8
      vertex 240.438 342.486 8
    endloop
  endfacet
  facet normal -0 0 1
    outer loop
      vertex 229.818 324.624 8
      vertex 241.1 311 8
      vertex 230.027 324.987 8
    endloop
  endfacet
  facet normal 0 0 1
    outer loop
      vertex 239.309 342.989 8
      vertex 240.438 342.486 8
      vertex 240.1 342.732 8
    endloop
  endfacet
  facet normal -0 0 1
    outer loop
      vertex 229.538 324.314 8
      vertex 241.1 311 8
      vertex 229.818 324.624 8
    endloop
  endfacet
  facet normal 0 0 1
    outer loop
      vertex 239.309 342.989 8
      vertex 240.1 342.732 8
      vertex 239.718 342.902 8
    endloop
  endfacet
  facet normal -0 0 1
    outer loop
      vertex 229.2 324.068 8
      vertex 241.1 311 8
      vertex 229.538 324.314 8
    endloop
  endfacet
  facet normal 0 0 1
    outer loop
      vertex 241.1 341 8
      vertex 239.309 342.989 8
      vertex 229.2 327.532 8
    endloop
  endfacet
  facet normal 0 -0 1
    outer loop
      vertex 239.309 309.011 8
      vertex 241.1 311 8
      vertex 229.2 324.068 8
    endloop
  endfacet
  facet normal 0 0 1
    outer loop
      vertex 241.056 310.584 8
      vertex 239.309 309.011 8
      vertex 240.927 310.187 8
    endloop
  endfacet
  facet normal 0 0 1
    outer loop
      vertex 241.1 341 8
      vertex 230.156 326.216 8
      vertex 230.2 325.8 8
    endloop
  endfacet
  facet normal 0 0 1
    outer loop
      vertex 241.1 341 8
      vertex 230.027 326.613 8
      vertex 230.156 326.216 8
    endloop
  endfacet
  facet normal 0 0 1
    outer loop
      vertex 241.1 341 8
      vertex 229.818 326.976 8
      vertex 230.027 326.613 8
    endloop
  endfacet
  facet normal 0 0 1
    outer loop
      vertex 241.1 341 8
      vertex 229.538 327.286 8
      vertex 229.818 326.976 8
    endloop
  endfacet
  facet normal 0 0 1
    outer loop
      vertex 241.1 341 8
      vertex 229.2 327.532 8
      vertex 229.538 327.286 8
    endloop
  endfacet
  facet normal 0 0 1
    outer loop
      vertex 239.309 342.989 8
      vertex 228.818 327.702 8
      vertex 229.2 327.532 8
    endloop
  endfacet
  facet normal 0 0 1
    outer loop
      vertex 239.309 342.989 8
      vertex 228.409 327.789 8
      vertex 228.818 327.702 8
    endloop
  endfacet
  facet normal 0 0 1
    outer loop
      vertex 239.309 342.989 8
      vertex 227.991 327.789 8
      vertex 228.409 327.789 8
    endloop
  endfacet
  facet normal -0 0 1
    outer loop
      vertex 212.891 342.989 8
      vertex 227.991 327.789 8
      vertex 239.309 342.989 8
    endloop
  endfacet
  facet normal 0 0 1
    outer loop
      vertex 227.991 327.789 8
      vertex 212.891 342.989 8
      vertex 227.582 327.702 8
    endloop
  endfacet
  facet normal 0 0 1
    outer loop
      vertex 227.582 327.702 8
      vertex 212.891 342.989 8
      vertex 227.2 327.532 8
    endloop
  endfacet
  facet normal 0 0 1
    outer loop
      vertex 227.2 327.532 8
      vertex 212.891 342.989 8
      vertex 226.862 327.286 8
    endloop
  endfacet
  facet normal 0 0 1
    outer loop
      vertex 226.373 326.613 8
      vertex 211.1 341 8
      vertex 226.244 326.216 8
    endloop
  endfacet
  facet normal 0 0 1
    outer loop
      vertex 226.582 326.976 8
      vertex 211.1 341 8
      vertex 226.373 326.613 8
    endloop
  endfacet
  facet normal 0 0 1
    outer loop
      vertex 226.862 327.286 8
      vertex 211.1 341 8
      vertex 226.582 326.976 8
    endloop
  endfacet
  facet normal -0 0 1
    outer loop
      vertex 211.1 341 8
      vertex 226.862 327.286 8
      vertex 212.891 342.989 8
    endloop
  endfacet
  facet normal 0 0 1
    outer loop
      vertex 240.927 310.187 8
      vertex 239.309 309.011 8
      vertex 240.718 309.824 8
    endloop
  endfacet
  facet normal 0 0 1
    outer loop
      vertex 240.438 309.514 8
      vertex 239.309 309.011 8
      vertex 240.1 309.268 8
    endloop
  endfacet
  facet normal 0 0 1
    outer loop
      vertex 240.1 309.268 8
      vertex 239.309 309.011 8
      vertex 239.718 309.098 8
    endloop
  endfacet
  facet normal 0 0 1
    outer loop
      vertex 240.718 309.824 8
      vertex 239.309 309.011 8
      vertex 240.438 309.514 8
    endloop
  endfacet
  facet normal 0 0 1
    outer loop
      vertex 241.1 311 8
      vertex 239.309 309.011 8
      vertex 241.056 310.584 8
    endloop
  endfacet
  facet normal -0 0 1
    outer loop
      vertex 228.818 323.898 8
      vertex 239.309 309.011 8
      vertex 229.2 324.068 8
    endloop
  endfacet
  facet normal -0 0 1
    outer loop
      vertex 228.409 323.811 8
      vertex 239.309 309.011 8
      vertex 228.818 323.898 8
    endloop
  endfacet
  facet normal -0 0 1
    outer loop
      vertex 227.991 323.811 8
      vertex 239.309 309.011 8
      vertex 228.409 323.811 8
    endloop
  endfacet
  facet normal 0 0 1
    outer loop
      vertex 212.891 309.011 8
      vertex 227.991 323.811 8
      vertex 227.582 323.898 8
    endloop
  endfacet
  facet normal 0 0 1
    outer loop
      vertex 212.891 309.011 8
      vertex 227.582 323.898 8
      vertex 227.2 324.068 8
    endloop
  endfacet
  facet normal 0 0 1
    outer loop
      vertex 212.891 309.011 8
      vertex 227.2 324.068 8
      vertex 226.862 324.314 8
    endloop
  endfacet
  facet normal 0 0 1
    outer loop
      vertex 211.1 311 8
      vertex 226.862 324.314 8
      vertex 226.582 324.624 8
    endloop
  endfacet
  facet normal 0 0 1
    outer loop
      vertex 226.244 326.216 8
      vertex 211.1 341 8
      vertex 226.2 325.8 8
    endloop
  endfacet
  facet normal 0 0 1
    outer loop
      vertex 211.1 311 8
      vertex 226.2 325.8 8
      vertex 211.1 341 8
    endloop
  endfacet
  facet normal 0 0 1
    outer loop
      vertex 226.2 325.8 8
      vertex 211.1 311 8
      vertex 226.244 325.384 8
    endloop
  endfacet
  facet normal 0 0 1
    outer loop
      vertex 227.991 323.811 8
      vertex 212.891 309.011 8
      vertex 239.309 309.011 8
    endloop
  endfacet
  facet normal 0 0 1
    outer loop
      vertex 226.244 325.384 8
      vertex 211.1 311 8
      vertex 226.373 324.987 8
    endloop
  endfacet
  facet normal 0 0 1
    outer loop
      vertex 211.1 341 8
      vertex 212.891 342.989 8
      vertex 212.482 342.902 8
    endloop
  endfacet
  facet normal 0 0 1
    outer loop
      vertex 226.373 324.987 8
      vertex 211.1 311 8
      vertex 226.582 324.624 8
    endloop
  endfacet
  facet normal 0 0 1
    outer loop
      vertex 211.1 341 8
      vertex 212.482 342.902 8
      vertex 212.1 342.732 8
    endloop
  endfacet
  facet normal 0 0 1
    outer loop
      vertex 226.862 324.314 8
      vertex 211.1 311 8
      vertex 212.891 309.011 8
    endloop
  endfacet
  facet normal 0 0 1
    outer loop
      vertex 211.1 341 8
      vertex 212.1 342.732 8
      vertex 211.762 342.486 8
    endloop
  endfacet
  facet normal 0 0 1
    outer loop
      vertex 212.891 309.011 8
      vertex 211.1 311 8
      vertex 212.482 309.098 8
    endloop
  endfacet
  facet normal 0 0 1
    outer loop
      vertex 211.1 341 8
      vertex 211.762 342.486 8
      vertex 211.482 342.176 8
    endloop
  endfacet
  facet normal 0 0 1
    outer loop
      vertex 212.482 309.098 8
      vertex 211.1 311 8
      vertex 212.1 309.268 8
    endloop
  endfacet
  facet normal 0 0 1
    outer loop
      vertex 211.1 341 8
      vertex 211.482 342.176 8
      vertex 211.273 341.813 8
    endloop
  endfacet
  facet normal 0 0 1
    outer loop
      vertex 212.1 309.268 8
      vertex 211.1 311 8
      vertex 211.762 309.514 8
    endloop
  endfacet
  facet normal 0 0 1
    outer loop
      vertex 211.1 341 8
      vertex 211.273 341.813 8
      vertex 211.144 341.416 8
    endloop
  endfacet
  facet normal 0 0 1
    outer loop
      vertex 211.762 309.514 8
      vertex 211.1 311 8
      vertex 211.482 309.824 8
    endloop
  endfacet
  facet normal 0 0 1
    outer loop
      vertex 211.482 309.824 8
      vertex 211.1 311 8
      vertex 211.273 310.187 8
    endloop
  endfacet
  facet normal 0 0 1
    outer loop
      vertex 211.273 310.187 8
      vertex 211.1 311 8
      vertex 211.144 310.584 8
    endloop
  endfacet
  facet normal 0.743127 0.66915 0
    outer loop
      vertex 240.718 342.176 8
      vertex 240.438 342.486 -1
      vertex 240.438 342.486 8
    endloop
  endfacet
  facet normal 0.743127 0.66915 0
    outer loop
      vertex 240.438 342.486 -1
      vertex 240.718 342.176 8
      vertex 240.718 342.176 -1
    endloop
  endfacet
  facet normal -0.406707 0.913559 0
    outer loop
      vertex 212.482 342.902 -0.4
      vertex 212.1 342.732 8
      vertex 212.482 342.902 8
    endloop
  endfacet
  facet normal -0.406707 0.913559 0
    outer loop
      vertex 212.1 342.732 8
      vertex 212.482 342.902 -0.4
      vertex 212.1 342.732 -0.4
    endloop
  endfacet
  facet normal 0.866018 0.500013 0
    outer loop
      vertex 240.927 341.813 8
      vertex 240.718 342.176 -1
      vertex 240.718 342.176 8
    endloop
  endfacet
  facet normal 0.866018 0.500013 0
    outer loop
      vertex 240.718 342.176 -1
      vertex 240.927 341.813 8
      vertex 240.927 341.813 -1
    endloop
  endfacet
  facet normal -0.866018 0.500013 0
    outer loop
      vertex 211.273 341.813 -0.4
      vertex 211.482 342.176 8
      vertex 211.482 342.176 -0.4
    endloop
  endfacet
  facet normal -0.866018 0.500013 0
    outer loop
      vertex 211.482 342.176 8
      vertex 211.273 341.813 -0.4
      vertex 211.273 341.813 8
    endloop
  endfacet
  facet normal -1 0 0
    outer loop
      vertex 211.1 321.037 6.6
      vertex 211.1 341 -0.4
      vertex 211.1 321.037 0
    endloop
  endfacet
  facet normal -1 0 0
    outer loop
      vertex 211.1 311 -0.4
      vertex 211.1 321.037 0
      vertex 211.1 341 -0.4
    endloop
  endfacet
  facet normal -1 -0 0
    outer loop
      vertex 211.1 321.037 0
      vertex 211.1 311 -0.4
      vertex 211.1 311 0
    endloop
  endfacet
  facet normal -1 0 0
    outer loop
      vertex 211.1 341 -0.4
      vertex 211.1 321.037 6.6
      vertex 211.1 341 8
    endloop
  endfacet
  facet normal -1 0 0
    outer loop
      vertex 211.1 311 8
      vertex 211.1 321.037 6.6
      vertex 211.1 311 6.6
    endloop
  endfacet
  facet normal -1 0 0
    outer loop
      vertex 211.1 321.037 6.6
      vertex 211.1 311 8
      vertex 211.1 341 8
    endloop
  endfacet
  facet normal 1 -0 0
    outer loop
      vertex 241.1 311 8
      vertex 241.1 341 -1
      vertex 241.1 341 8
    endloop
  endfacet
  facet normal 1 0 0
    outer loop
      vertex 241.1 341 -1
      vertex 241.1 311 8
      vertex 241.1 311 -1
    endloop
  endfacet
  facet normal 0.207871 0.978156 -0
    outer loop
      vertex 239.718 342.902 -1
      vertex 239.309 342.989 8
      vertex 239.718 342.902 8
    endloop
  endfacet
  facet normal 0.207871 0.978156 0
    outer loop
      vertex 239.309 342.989 8
      vertex 239.718 342.902 -1
      vertex 239.309 342.989 -1
    endloop
  endfacet
  facet normal 0 1 0
    outer loop
      vertex 239.309 342.989 8
      vertex 223.7 342.989 -0.4
      vertex 212.891 342.989 8
    endloop
  endfacet
  facet normal 0 1 -0
    outer loop
      vertex 239.309 342.989 -1
      vertex 223.7 342.989 -0.4
      vertex 239.309 342.989 8
    endloop
  endfacet
  facet normal 0 1 0
    outer loop
      vertex 223.7 342.989 -0.4
      vertex 239.309 342.989 -1
      vertex 223.7 342.989 -1
    endloop
  endfacet
  facet normal 0 1 0
    outer loop
      vertex 212.891 342.989 8
      vertex 223.7 342.989 -0.4
      vertex 212.891 342.989 -0.4
    endloop
  endfacet
  facet normal -0.994519 0.104554 0
    outer loop
      vertex 211.1 341 -0.4
      vertex 211.144 341.416 8
      vertex 211.144 341.416 -0.4
    endloop
  endfacet
  facet normal -0.994519 0.104554 0
    outer loop
      vertex 211.144 341.416 8
      vertex 211.1 341 -0.4
      vertex 211.1 341 8
    endloop
  endfacet
  facet normal -0.994519 -0.104554 0
    outer loop
      vertex 211.144 310.584 6.6
      vertex 211.1 311 8
      vertex 211.1 311 6.6
    endloop
  endfacet
  facet normal -0.994519 -0.104554 0
    outer loop
      vertex 211.1 311 8
      vertex 211.144 310.584 6.6
      vertex 211.144 310.584 8
    endloop
  endfacet
  facet normal -0.994519 -0.104554 0
    outer loop
      vertex 211.144 310.584 -0.4
      vertex 211.1 311 0
      vertex 211.1 311 -0.4
    endloop
  endfacet
  facet normal -0.994519 -0.104554 0
    outer loop
      vertex 211.1 311 0
      vertex 211.144 310.584 -0.4
      vertex 211.144 310.584 0
    endloop
  endfacet
  facet normal 0 -1 0
    outer loop
      vertex 212.891 309.011 0
      vertex 212.891 309.011 -0.4
      vertex 223.553 309.011 0
    endloop
  endfacet
  facet normal 0 -1 0
    outer loop
      vertex 223.553 309.011 6.6
      vertex 212.891 309.011 8
      vertex 212.891 309.011 6.6
    endloop
  endfacet
  facet normal 0 -1 0
    outer loop
      vertex 212.891 309.011 8
      vertex 223.553 309.011 6.6
      vertex 239.309 309.011 8
    endloop
  endfacet
  facet normal 0 -1 0
    outer loop
      vertex 239.309 309.011 -1
      vertex 223.553 309.011 6.6
      vertex 223.553 309.011 0
    endloop
  endfacet
  facet normal 0 -1 0
    outer loop
      vertex 223.7 309.011 -0.4
      vertex 223.553 309.011 0
      vertex 212.891 309.011 -0.4
    endloop
  endfacet
  facet normal 0 -1 0
    outer loop
      vertex 239.309 309.011 -1
      vertex 223.553 309.011 0
      vertex 223.7 309.011 -0.4
    endloop
  endfacet
  facet normal 0 -1 0
    outer loop
      vertex 239.309 309.011 -1
      vertex 223.7 309.011 -0.4
      vertex 223.7 309.011 -1
    endloop
  endfacet
  facet normal 0 -1 0
    outer loop
      vertex 223.553 309.011 6.6
      vertex 239.309 309.011 -1
      vertex 239.309 309.011 8
    endloop
  endfacet
  facet normal 0.587833 -0.808982 0
    outer loop
      vertex 240.1 309.268 -1
      vertex 240.438 309.514 8
      vertex 240.1 309.268 8
    endloop
  endfacet
  facet normal 0.587833 -0.808982 0
    outer loop
      vertex 240.438 309.514 8
      vertex 240.1 309.268 -1
      vertex 240.438 309.514 -1
    endloop
  endfacet
  facet normal 0.951061 -0.309004 0
    outer loop
      vertex 240.927 310.187 8
      vertex 241.056 310.584 -1
      vertex 241.056 310.584 8
    endloop
  endfacet
  facet normal 0.951061 -0.309004 0
    outer loop
      vertex 241.056 310.584 -1
      vertex 240.927 310.187 8
      vertex 240.927 310.187 -1
    endloop
  endfacet
  facet normal 0.994519 -0.104554 0
    outer loop
      vertex 241.056 310.584 8
      vertex 241.1 311 -1
      vertex 241.1 311 8
    endloop
  endfacet
  facet normal 0.994519 -0.104554 0
    outer loop
      vertex 241.1 311 -1
      vertex 241.056 310.584 8
      vertex 241.056 310.584 -1
    endloop
  endfacet
  facet normal 0.743127 -0.66915 0
    outer loop
      vertex 240.438 309.514 8
      vertex 240.718 309.824 -1
      vertex 240.718 309.824 8
    endloop
  endfacet
  facet normal 0.743127 -0.66915 0
    outer loop
      vertex 240.718 309.824 -1
      vertex 240.438 309.514 8
      vertex 240.438 309.514 -1
    endloop
  endfacet
  facet normal -0.743127 0.66915 0
    outer loop
      vertex 211.482 342.176 -0.4
      vertex 211.762 342.486 8
      vertex 211.762 342.486 -0.4
    endloop
  endfacet
  facet normal -0.743127 0.66915 0
    outer loop
      vertex 211.762 342.486 8
      vertex 211.482 342.176 -0.4
      vertex 211.482 342.176 8
    endloop
  endfacet
  facet normal -0.587816 0.808995 0
    outer loop
      vertex 212.1 342.732 -0.4
      vertex 211.762 342.486 8
      vertex 212.1 342.732 8
    endloop
  endfacet
  facet normal -0.587816 0.808995 0
    outer loop
      vertex 211.762 342.486 8
      vertex 212.1 342.732 -0.4
      vertex 211.762 342.486 -0.4
    endloop
  endfacet
  facet normal -0.207871 0.978156 0
    outer loop
      vertex 212.891 342.989 -0.4
      vertex 212.482 342.902 8
      vertex 212.891 342.989 8
    endloop
  endfacet
  facet normal -0.207871 0.978156 0
    outer loop
      vertex 212.482 342.902 8
      vertex 212.891 342.989 -0.4
      vertex 212.482 342.902 -0.4
    endloop
  endfacet
  facet normal -0.951061 0.309004 0
    outer loop
      vertex 211.144 341.416 -0.4
      vertex 211.273 341.813 8
      vertex 211.273 341.813 -0.4
    endloop
  endfacet
  facet normal -0.951061 0.309004 0
    outer loop
      vertex 211.273 341.813 8
      vertex 211.144 341.416 -0.4
      vertex 211.144 341.416 8
    endloop
  endfacet
  facet normal -0.951061 -0.309004 0
    outer loop
      vertex 211.273 310.187 6.6
      vertex 211.144 310.584 8
      vertex 211.144 310.584 6.6
    endloop
  endfacet
  facet normal -0.951061 -0.309004 0
    outer loop
      vertex 211.144 310.584 8
      vertex 211.273 310.187 6.6
      vertex 211.273 310.187 8
    endloop
  endfacet
  facet normal -0.951061 -0.309004 0
    outer loop
      vertex 211.273 310.187 -0.4
      vertex 211.144 310.584 0
      vertex 211.144 310.584 -0.4
    endloop
  endfacet
  facet normal -0.951061 -0.309004 0
    outer loop
      vertex 211.144 310.584 0
      vertex 211.273 310.187 -0.4
      vertex 211.273 310.187 0
    endloop
  endfacet
  facet normal 0.207871 -0.978156 0
    outer loop
      vertex 239.309 309.011 -1
      vertex 239.718 309.098 8
      vertex 239.309 309.011 8
    endloop
  endfacet
  facet normal 0.207871 -0.978156 0
    outer loop
      vertex 239.718 309.098 8
      vertex 239.309 309.011 -1
      vertex 239.718 309.098 -1
    endloop
  endfacet
  facet normal 0.866018 -0.500013 0
    outer loop
      vertex 240.718 309.824 8
      vertex 240.927 310.187 -1
      vertex 240.927 310.187 8
    endloop
  endfacet
  facet normal 0.866018 -0.500013 0
    outer loop
      vertex 240.927 310.187 -1
      vertex 240.718 309.824 8
      vertex 240.718 309.824 -1
    endloop
  endfacet
  facet normal 0 0 -1
    outer loop
      vertex 239.309 309.011 -1
      vertex 241.1 311 -1
      vertex 241.056 310.584 -1
    endloop
  endfacet
  facet normal 0 0 -1
    outer loop
      vertex 241.1 311 -1
      vertex 233.9 325.8 -1
      vertex 241.1 341 -1
    endloop
  endfacet
  facet normal 0 0 -1
    outer loop
      vertex 239.309 309.011 -1
      vertex 241.056 310.584 -1
      vertex 240.927 310.187 -1
    endloop
  endfacet
  facet normal 0 0 -1
    outer loop
      vertex 232.775 327.749 -1
      vertex 241.1 341 -1
      vertex 233.9 325.8 -1
    endloop
  endfacet
  facet normal 0 0 -1
    outer loop
      vertex 239.309 309.011 -1
      vertex 240.927 310.187 -1
      vertex 240.718 309.824 -1
    endloop
  endfacet
  facet normal 0 0 -1
    outer loop
      vertex 231.05 330.736 -1
      vertex 241.1 341 -1
      vertex 232.775 327.749 -1
    endloop
  endfacet
  facet normal 0 0 -1
    outer loop
      vertex 239.309 309.011 -1
      vertex 240.718 309.824 -1
      vertex 240.438 309.514 -1
    endloop
  endfacet
  facet normal 0 -0 -1
    outer loop
      vertex 239.309 342.989 -1
      vertex 241.1 341 -1
      vertex 231.05 330.736 -1
    endloop
  endfacet
  facet normal 0 0 -1
    outer loop
      vertex 239.309 309.011 -1
      vertex 240.438 309.514 -1
      vertex 240.1 309.268 -1
    endloop
  endfacet
  facet normal 0 0 -1
    outer loop
      vertex 241.1 341 -1
      vertex 239.309 342.989 -1
      vertex 241.056 341.416 -1
    endloop
  endfacet
  facet normal 0 0 -1
    outer loop
      vertex 239.309 309.011 -1
      vertex 240.1 309.268 -1
      vertex 239.718 309.098 -1
    endloop
  endfacet
  facet normal 0 0 -1
    outer loop
      vertex 241.056 341.416 -1
      vertex 239.309 342.989 -1
      vertex 240.927 341.813 -1
    endloop
  endfacet
  facet normal -0 0 -1
    outer loop
      vertex 241.1 311 -1
      vertex 239.309 309.011 -1
      vertex 231.05 320.864 -1
    endloop
  endfacet
  facet normal 0 0 -1
    outer loop
      vertex 240.927 341.813 -1
      vertex 239.309 342.989 -1
      vertex 240.718 342.176 -1
    endloop
  endfacet
  facet normal 0 0 -1
    outer loop
      vertex 240.718 342.176 -1
      vertex 239.309 342.989 -1
      vertex 240.438 342.486 -1
    endloop
  endfacet
  facet normal 0 0 -1
    outer loop
      vertex 241.1 311 -1
      vertex 232.175 322.812 -1
      vertex 233.9 325.8 -1
    endloop
  endfacet
  facet normal 0 0 -1
    outer loop
      vertex 241.1 311 -1
      vertex 231.05 320.864 -1
      vertex 232.175 322.812 -1
    endloop
  endfacet
  facet normal 0 0 -1
    outer loop
      vertex 223.7 309.011 -1
      vertex 231.05 320.864 -1
      vertex 239.309 309.011 -1
    endloop
  endfacet
  facet normal -0 0 -1
    outer loop
      vertex 231.05 320.864 -1
      vertex 223.7 309.011 -1
      vertex 225.35 320.864 -1
    endloop
  endfacet
  facet normal 0 0 -1
    outer loop
      vertex 223.7 309.011 -1
      vertex 224.225 322.812 -1
      vertex 225.35 320.864 -1
    endloop
  endfacet
  facet normal -0 0 -1
    outer loop
      vertex 224.225 322.812 -1
      vertex 223.7 309.011 -1
      vertex 223.7 323.722 -1
    endloop
  endfacet
  facet normal 0 0 -1
    outer loop
      vertex 240.438 342.486 -1
      vertex 239.309 342.989 -1
      vertex 240.1 342.732 -1
    endloop
  endfacet
  facet normal 0 0 -1
    outer loop
      vertex 240.1 342.732 -1
      vertex 239.309 342.989 -1
      vertex 239.718 342.902 -1
    endloop
  endfacet
  facet normal 0 0 -1
    outer loop
      vertex 223.7 342.989 -1
      vertex 231.05 330.736 -1
      vertex 225.35 330.736 -1
    endloop
  endfacet
  facet normal 0 0 -1
    outer loop
      vertex 231.05 330.736 -1
      vertex 223.7 342.989 -1
      vertex 239.309 342.989 -1
    endloop
  endfacet
  facet normal 0 0 -1
    outer loop
      vertex 223.7 342.989 -1
      vertex 225.35 330.736 -1
      vertex 223.7 327.878 -1
    endloop
  endfacet
  facet normal -0.743127 -0.66915 0
    outer loop
      vertex 211.762 309.514 6.6
      vertex 211.482 309.824 8
      vertex 211.482 309.824 6.6
    endloop
  endfacet
  facet normal -0.743127 -0.66915 0
    outer loop
      vertex 211.482 309.824 8
      vertex 211.762 309.514 6.6
      vertex 211.762 309.514 8
    endloop
  endfacet
  facet normal -0.743127 -0.66915 0
    outer loop
      vertex 211.762 309.514 -0.4
      vertex 211.482 309.824 0
      vertex 211.482 309.824 -0.4
    endloop
  endfacet
  facet normal -0.743127 -0.66915 0
    outer loop
      vertex 211.482 309.824 0
      vertex 211.762 309.514 -0.4
      vertex 211.762 309.514 0
    endloop
  endfacet
  facet normal -0.406694 -0.913565 0
    outer loop
      vertex 212.1 309.268 6.6
      vertex 212.482 309.098 8
      vertex 212.1 309.268 8
    endloop
  endfacet
  facet normal -0.406694 -0.913565 -0
    outer loop
      vertex 212.482 309.098 8
      vertex 212.1 309.268 6.6
      vertex 212.482 309.098 6.6
    endloop
  endfacet
  facet normal -0.406694 -0.913565 0
    outer loop
      vertex 212.1 309.268 -0.4
      vertex 212.482 309.098 0
      vertex 212.1 309.268 0
    endloop
  endfacet
  facet normal -0.406694 -0.913565 -0
    outer loop
      vertex 212.482 309.098 0
      vertex 212.1 309.268 -0.4
      vertex 212.482 309.098 -0.4
    endloop
  endfacet
  facet normal -0.587833 -0.808982 0
    outer loop
      vertex 211.762 309.514 6.6
      vertex 212.1 309.268 8
      vertex 211.762 309.514 8
    endloop
  endfacet
  facet normal -0.587833 -0.808982 -0
    outer loop
      vertex 212.1 309.268 8
      vertex 211.762 309.514 6.6
      vertex 212.1 309.268 6.6
    endloop
  endfacet
  facet normal -0.587833 -0.808982 0
    outer loop
      vertex 211.762 309.514 -0.4
      vertex 212.1 309.268 0
      vertex 211.762 309.514 0
    endloop
  endfacet
  facet normal -0.587833 -0.808982 -0
    outer loop
      vertex 212.1 309.268 0
      vertex 211.762 309.514 -0.4
      vertex 212.1 309.268 -0.4
    endloop
  endfacet
  facet normal -0.866018 -0.500013 0
    outer loop
      vertex 211.482 309.824 6.6
      vertex 211.273 310.187 8
      vertex 211.273 310.187 6.6
    endloop
  endfacet
  facet normal -0.866018 -0.500013 0
    outer loop
      vertex 211.273 310.187 8
      vertex 211.482 309.824 6.6
      vertex 211.482 309.824 8
    endloop
  endfacet
  facet normal -0.866018 -0.500013 0
    outer loop
      vertex 211.482 309.824 -0.4
      vertex 211.273 310.187 0
      vertex 211.273 310.187 -0.4
    endloop
  endfacet
  facet normal -0.866018 -0.500013 0
    outer loop
      vertex 211.273 310.187 0
      vertex 211.482 309.824 -0.4
      vertex 211.482 309.824 0
    endloop
  endfacet
  facet normal -0.207871 -0.978156 0
    outer loop
      vertex 212.482 309.098 6.6
      vertex 212.891 309.011 8
      vertex 212.482 309.098 8
    endloop
  endfacet
  facet normal -0.207871 -0.978156 -0
    outer loop
      vertex 212.891 309.011 8
      vertex 212.482 309.098 6.6
      vertex 212.891 309.011 6.6
    endloop
  endfacet
  facet normal -0.207871 -0.978156 0
    outer loop
      vertex 212.482 309.098 -0.4
      vertex 212.891 309.011 0
      vertex 212.482 309.098 0
    endloop
  endfacet
  facet normal -0.207871 -0.978156 -0
    outer loop
      vertex 212.891 309.011 0
      vertex 212.482 309.098 -0.4
      vertex 212.891 309.011 -0.4
    endloop
  endfacet
  facet normal 0.406694 -0.913565 0
    outer loop
      vertex 239.718 309.098 -1
      vertex 240.1 309.268 8
      vertex 239.718 309.098 8
    endloop
  endfacet
  facet normal 0.406694 -0.913565 0
    outer loop
      vertex 240.1 309.268 8
      vertex 239.718 309.098 -1
      vertex 240.1 309.268 -1
    endloop
  endfacet
  facet normal 0.600482 0.346685 -0.720577
    outer loop
      vertex 232.7 325.8 -2
      vertex 232.775 327.749 -1
      vertex 233.9 325.8 -1
    endloop
  endfacet
  facet normal 0.600479 0.346686 -0.720579
    outer loop
      vertex 232.775 327.749 -1
      vertex 232.7 325.8 -2
      vertex 230.45 329.697 -2
    endloop
  endfacet
  facet normal 0.600478 0.346684 -0.72058
    outer loop
      vertex 232.775 327.749 -1
      vertex 230.45 329.697 -2
      vertex 231.05 330.736 -1
    endloop
  endfacet
  facet normal 0.600479 -0.346683 -0.72058
    outer loop
      vertex 230.45 321.903 -2
      vertex 232.175 322.812 -1
      vertex 231.05 320.864 -1
    endloop
  endfacet
  facet normal 0.60048 -0.346689 -0.720576
    outer loop
      vertex 232.175 322.812 -1
      vertex 230.45 321.903 -2
      vertex 232.7 325.8 -2
    endloop
  endfacet
  facet normal -0.600463 -0.346693 -0.720588
    outer loop
      vertex 224.225 322.812 -1
      vertex 223.7 323.722 -1
      vertex 223.7 325.8 -2
    endloop
  endfacet
  facet normal -0.600482 0.346687 -0.720576
    outer loop
      vertex 225.95 329.697 -2
      vertex 223.7 325.8 -2
      vertex 223.7 327.811 -1.03226
    endloop
  endfacet
  facet normal 0 -0.69337 -0.720582
    outer loop
      vertex 231.05 320.864 -1
      vertex 225.95 321.903 -2
      vertex 230.45 321.903 -2
    endloop
  endfacet
  facet normal 0 -0.69337 -0.720582
    outer loop
      vertex 225.95 321.903 -2
      vertex 231.05 320.864 -1
      vertex 225.35 320.864 -1
    endloop
  endfacet
  facet normal 0.600481 -0.346689 -0.720576
    outer loop
      vertex 233.9 325.8 -1
      vertex 232.175 322.812 -1
      vertex 232.7 325.8 -2
    endloop
  endfacet
  facet normal -0.600483 -0.346685 -0.720576
    outer loop
      vertex 224.225 322.812 -1
      vertex 225.95 321.903 -2
      vertex 225.35 320.864 -1
    endloop
  endfacet
  facet normal -0.600484 -0.346691 -0.720572
    outer loop
      vertex 225.95 321.903 -2
      vertex 224.225 322.812 -1
      vertex 223.7 325.8 -2
    endloop
  endfacet
  facet normal 0 0 -1
    outer loop
      vertex 230.45 321.903 -2
      vertex 231.5 325.8 -2
      vertex 232.7 325.8 -2
    endloop
  endfacet
  facet normal 0 0 -1
    outer loop
      vertex 230.45 321.903 -2
      vertex 229.85 322.942 -2
      vertex 231.5 325.8 -2
    endloop
  endfacet
  facet normal 0 0 -1
    outer loop
      vertex 230.45 321.903 -2
      vertex 226.55 322.942 -2
      vertex 229.85 322.942 -2
    endloop
  endfacet
  facet normal 0 0 -1
    outer loop
      vertex 225.95 321.903 -2
      vertex 226.55 322.942 -2
      vertex 230.45 321.903 -2
    endloop
  endfacet
  facet normal 0 0 -1
    outer loop
      vertex 225.95 321.903 -2
      vertex 224.9 325.8 -2
      vertex 226.55 322.942 -2
    endloop
  endfacet
  facet normal -0 -0 -1
    outer loop
      vertex 224.9 325.8 -2
      vertex 225.95 321.903 -2
      vertex 223.7 325.8 -2
    endloop
  endfacet
  facet normal 0 0 -1
    outer loop
      vertex 231.5 325.8 -2
      vertex 230.45 329.697 -2
      vertex 232.7 325.8 -2
    endloop
  endfacet
  facet normal 0 0 -1
    outer loop
      vertex 229.85 328.658 -2
      vertex 230.45 329.697 -2
      vertex 231.5 325.8 -2
    endloop
  endfacet
  facet normal 0 0 -1
    outer loop
      vertex 226.55 328.658 -2
      vertex 230.45 329.697 -2
      vertex 229.85 328.658 -2
    endloop
  endfacet
  facet normal 0 0 -1
    outer loop
      vertex 226.55 328.658 -2
      vertex 225.95 329.697 -2
      vertex 230.45 329.697 -2
    endloop
  endfacet
  facet normal 0 0 -1
    outer loop
      vertex 224.9 325.8 -2
      vertex 225.95 329.697 -2
      vertex 226.55 328.658 -2
    endloop
  endfacet
  facet normal 0 0 -1
    outer loop
      vertex 225.95 329.697 -2
      vertex 224.9 325.8 -2
      vertex 223.7 325.8 -2
    endloop
  endfacet
  facet normal -0.600482 0.346688 -0.720575
    outer loop
      vertex 223.7 327.878 -1
      vertex 225.95 329.697 -2
      vertex 223.7 327.811 -1.03226
    endloop
  endfacet
  facet normal -0.600482 0.346687 -0.720576
    outer loop
      vertex 225.95 329.697 -2
      vertex 223.7 327.878 -1
      vertex 225.35 330.736 -1
    endloop
  endfacet
  facet normal 0 0.69337 -0.720582
    outer loop
      vertex 225.95 329.697 -2
      vertex 231.05 330.736 -1
      vertex 230.45 329.697 -2
    endloop
  endfacet
  facet normal 0 0.69337 -0.720582
    outer loop
      vertex 231.05 330.736 -1
      vertex 225.95 329.697 -2
      vertex 225.35 330.736 -1
    endloop
  endfacet
  facet normal -0.866034 -0.499986 0
    outer loop
      vertex 230.027 326.613 6.6
      vertex 229.818 326.976 8
      vertex 229.818 326.976 6.6
    endloop
  endfacet
  facet normal -0.866034 -0.499986 0
    outer loop
      vertex 229.818 326.976 8
      vertex 230.027 326.613 6.6
      vertex 230.027 326.613 8
    endloop
  endfacet
  facet normal 0 -1 0
    outer loop
      vertex 227.991 327.789 6.6
      vertex 228.409 327.789 8
      vertex 227.991 327.789 8
    endloop
  endfacet
  facet normal 0 -1 -0
    outer loop
      vertex 228.409 327.789 8
      vertex 227.991 327.789 6.6
      vertex 228.409 327.789 6.6
    endloop
  endfacet
  facet normal 0.95105 -0.309037 0
    outer loop
      vertex 226.244 326.216 8
      vertex 226.373 326.613 6.6
      vertex 226.373 326.613 8
    endloop
  endfacet
  facet normal 0.95105 -0.309037 0
    outer loop
      vertex 226.373 326.613 6.6
      vertex 226.244 326.216 8
      vertex 226.244 326.216 6.6
    endloop
  endfacet
  facet normal -0.743142 -0.669134 0
    outer loop
      vertex 229.818 326.976 6.6
      vertex 229.538 327.286 8
      vertex 229.538 327.286 6.6
    endloop
  endfacet
  facet normal -0.743142 -0.669134 0
    outer loop
      vertex 229.538 327.286 8
      vertex 229.818 326.976 6.6
      vertex 229.818 326.976 8
    endloop
  endfacet
  facet normal -0.207871 -0.978156 0
    outer loop
      vertex 228.409 327.789 6.6
      vertex 228.818 327.702 8
      vertex 228.409 327.789 8
    endloop
  endfacet
  facet normal -0.207871 -0.978156 -0
    outer loop
      vertex 228.818 327.702 8
      vertex 228.409 327.789 6.6
      vertex 228.818 327.702 6.6
    endloop
  endfacet
  facet normal 0.207879 -0.978155 0
    outer loop
      vertex 227.582 327.702 6.6
      vertex 227.991 327.789 8
      vertex 227.582 327.702 8
    endloop
  endfacet
  facet normal 0.207879 -0.978155 0
    outer loop
      vertex 227.991 327.789 8
      vertex 227.582 327.702 6.6
      vertex 227.991 327.789 6.6
    endloop
  endfacet
  facet normal 0.866018 -0.500013 0
    outer loop
      vertex 226.373 326.613 8
      vertex 226.582 326.976 6.6
      vertex 226.582 326.976 8
    endloop
  endfacet
  facet normal 0.866018 -0.500013 0
    outer loop
      vertex 226.582 326.976 6.6
      vertex 226.373 326.613 8
      vertex 226.373 326.613 6.6
    endloop
  endfacet
  facet normal -0.994522 0.104525 0
    outer loop
      vertex 230.156 325.384 6.6
      vertex 230.2 325.8 8
      vertex 230.2 325.8 6.6
    endloop
  endfacet
  facet normal -0.994522 0.104525 0
    outer loop
      vertex 230.2 325.8 8
      vertex 230.156 325.384 6.6
      vertex 230.156 325.384 8
    endloop
  endfacet
  facet normal -0.95105 -0.309037 0
    outer loop
      vertex 230.156 326.216 6.6
      vertex 230.027 326.613 8
      vertex 230.027 326.613 6.6
    endloop
  endfacet
  facet normal -0.95105 -0.309037 0
    outer loop
      vertex 230.027 326.613 8
      vertex 230.156 326.216 6.6
      vertex 230.156 326.216 8
    endloop
  endfacet
  facet normal -0.587785 -0.809017 0
    outer loop
      vertex 229.2 327.532 6.6
      vertex 229.538 327.286 8
      vertex 229.2 327.532 8
    endloop
  endfacet
  facet normal -0.587785 -0.809017 -0
    outer loop
      vertex 229.538 327.286 8
      vertex 229.2 327.532 6.6
      vertex 229.538 327.286 6.6
    endloop
  endfacet
  facet normal -0.406768 -0.913531 0
    outer loop
      vertex 228.818 327.702 6.6
      vertex 229.2 327.532 8
      vertex 228.818 327.702 8
    endloop
  endfacet
  facet normal -0.406768 -0.913531 -0
    outer loop
      vertex 229.2 327.532 8
      vertex 228.818 327.702 6.6
      vertex 229.2 327.532 6.6
    endloop
  endfacet
  facet normal 0.994523 -0.104518 0
    outer loop
      vertex 226.2 325.8 8
      vertex 226.244 326.216 6.6
      vertex 226.244 326.216 8
    endloop
  endfacet
  facet normal 0.994523 -0.104518 0
    outer loop
      vertex 226.244 326.216 6.6
      vertex 226.2 325.8 8
      vertex 226.2 325.8 6.6
    endloop
  endfacet
  facet normal 0.74316 -0.669114 0
    outer loop
      vertex 226.582 326.976 8
      vertex 226.862 327.286 6.6
      vertex 226.862 327.286 8
    endloop
  endfacet
  facet normal 0.74316 -0.669114 0
    outer loop
      vertex 226.862 327.286 6.6
      vertex 226.582 326.976 8
      vertex 226.582 326.976 6.6
    endloop
  endfacet
  facet normal 0.406755 -0.913537 0
    outer loop
      vertex 227.2 327.532 6.6
      vertex 227.582 327.702 8
      vertex 227.2 327.532 8
    endloop
  endfacet
  facet normal 0.406755 -0.913537 0
    outer loop
      vertex 227.582 327.702 8
      vertex 227.2 327.532 6.6
      vertex 227.582 327.702 6.6
    endloop
  endfacet
  facet normal 0.587785 -0.809017 0
    outer loop
      vertex 226.862 327.286 6.6
      vertex 227.2 327.532 8
      vertex 226.862 327.286 8
    endloop
  endfacet
  facet normal 0.587785 -0.809017 0
    outer loop
      vertex 227.2 327.532 8
      vertex 226.862 327.286 6.6
      vertex 227.2 327.532 6.6
    endloop
  endfacet
  facet normal -0.994523 -0.104518 0
    outer loop
      vertex 230.2 325.8 6.6
      vertex 230.156 326.216 8
      vertex 230.156 326.216 6.6
    endloop
  endfacet
  facet normal -0.994523 -0.104518 0
    outer loop
      vertex 230.156 326.216 8
      vertex 230.2 325.8 6.6
      vertex 230.2 325.8 8
    endloop
  endfacet
  facet normal -0.951057 0.309015 0
    outer loop
      vertex 230.027 324.987 6.6
      vertex 230.156 325.384 8
      vertex 230.156 325.384 6.6
    endloop
  endfacet
  facet normal -0.951057 0.309015 0
    outer loop
      vertex 230.156 325.384 8
      vertex 230.027 324.987 6.6
      vertex 230.027 324.987 8
    endloop
  endfacet
  facet normal 0.866018 0.500013 0
    outer loop
      vertex 226.582 324.624 8
      vertex 226.373 324.987 6.6
      vertex 226.373 324.987 8
    endloop
  endfacet
  facet normal 0.866018 0.500013 0
    outer loop
      vertex 226.373 324.987 6.6
      vertex 226.582 324.624 8
      vertex 226.582 324.624 6.6
    endloop
  endfacet
  facet normal -0.587785 0.809017 0
    outer loop
      vertex 229.538 324.314 6.6
      vertex 229.2 324.068 8
      vertex 229.538 324.314 8
    endloop
  endfacet
  facet normal -0.587785 0.809017 0
    outer loop
      vertex 229.2 324.068 8
      vertex 229.538 324.314 6.6
      vertex 229.2 324.068 6.6
    endloop
  endfacet
  facet normal -0.866034 0.499986 0
    outer loop
      vertex 229.818 324.624 6.6
      vertex 230.027 324.987 8
      vertex 230.027 324.987 6.6
    endloop
  endfacet
  facet normal -0.866034 0.499986 0
    outer loop
      vertex 230.027 324.987 8
      vertex 229.818 324.624 6.6
      vertex 229.818 324.624 8
    endloop
  endfacet
  facet normal 0 1 -0
    outer loop
      vertex 228.409 323.811 6.6
      vertex 227.991 323.811 8
      vertex 228.409 323.811 8
    endloop
  endfacet
  facet normal 0 1 0
    outer loop
      vertex 227.991 323.811 8
      vertex 228.409 323.811 6.6
      vertex 227.991 323.811 6.6
    endloop
  endfacet
  facet normal -0.207941 0.978141 0
    outer loop
      vertex 228.818 323.898 6.6
      vertex 228.409 323.811 8
      vertex 228.818 323.898 8
    endloop
  endfacet
  facet normal -0.207941 0.978141 0
    outer loop
      vertex 228.409 323.811 8
      vertex 228.818 323.898 6.6
      vertex 228.409 323.811 6.6
    endloop
  endfacet
  facet normal -0.406768 0.913531 0
    outer loop
      vertex 229.2 324.068 6.6
      vertex 228.818 323.898 8
      vertex 229.2 324.068 8
    endloop
  endfacet
  facet normal -0.406768 0.913531 0
    outer loop
      vertex 228.818 323.898 8
      vertex 229.2 324.068 6.6
      vertex 228.818 323.898 6.6
    endloop
  endfacet
  facet normal 0.951057 0.309015 0
    outer loop
      vertex 226.373 324.987 8
      vertex 226.244 325.384 6.6
      vertex 226.244 325.384 8
    endloop
  endfacet
  facet normal 0.951057 0.309015 0
    outer loop
      vertex 226.244 325.384 6.6
      vertex 226.373 324.987 8
      vertex 226.373 324.987 6.6
    endloop
  endfacet
  facet normal 0.994522 0.104525 0
    outer loop
      vertex 226.244 325.384 8
      vertex 226.2 325.8 6.6
      vertex 226.2 325.8 8
    endloop
  endfacet
  facet normal 0.994522 0.104525 0
    outer loop
      vertex 226.2 325.8 6.6
      vertex 226.244 325.384 8
      vertex 226.244 325.384 6.6
    endloop
  endfacet
  facet normal 0.743127 0.66915 0
    outer loop
      vertex 226.862 324.314 8
      vertex 226.582 324.624 6.6
      vertex 226.582 324.624 8
    endloop
  endfacet
  facet normal 0.743127 0.66915 0
    outer loop
      vertex 226.582 324.624 6.6
      vertex 226.862 324.314 8
      vertex 226.862 324.314 6.6
    endloop
  endfacet
  facet normal -0.743109 0.66917 0
    outer loop
      vertex 229.538 324.314 6.6
      vertex 229.818 324.624 8
      vertex 229.818 324.624 6.6
    endloop
  endfacet
  facet normal -0.743109 0.66917 0
    outer loop
      vertex 229.818 324.624 8
      vertex 229.538 324.314 6.6
      vertex 229.538 324.314 8
    endloop
  endfacet
  facet normal 0.406755 0.913537 -0
    outer loop
      vertex 227.582 323.898 6.6
      vertex 227.2 324.068 8
      vertex 227.582 323.898 8
    endloop
  endfacet
  facet normal 0.406755 0.913537 0
    outer loop
      vertex 227.2 324.068 8
      vertex 227.582 323.898 6.6
      vertex 227.2 324.068 6.6
    endloop
  endfacet
  facet normal 0.587785 0.809017 -0
    outer loop
      vertex 227.2 324.068 6.6
      vertex 226.862 324.314 8
      vertex 227.2 324.068 8
    endloop
  endfacet
  facet normal 0.587785 0.809017 0
    outer loop
      vertex 226.862 324.314 8
      vertex 227.2 324.068 6.6
      vertex 226.862 324.314 6.6
    endloop
  endfacet
  facet normal 0.207949 0.97814 -0
    outer loop
      vertex 227.991 323.811 6.6
      vertex 227.582 323.898 8
      vertex 227.991 323.811 8
    endloop
  endfacet
  facet normal 0.207949 0.97814 0
    outer loop
      vertex 227.582 323.898 8
      vertex 227.991 323.811 6.6
      vertex 227.582 323.898 6.6
    endloop
  endfacet
  facet normal -0.866028 -0.499995 0
    outer loop
      vertex 231.5 325.8 -2
      vertex 229.85 328.658 0
      vertex 229.85 328.658 -2
    endloop
  endfacet
  facet normal -0.866028 -0.499995 0
    outer loop
      vertex 229.85 328.658 0
      vertex 231.5 325.8 -2
      vertex 231.5 325.8 0
    endloop
  endfacet
  facet normal 0 -1 0
    outer loop
      vertex 226.55 328.658 -2
      vertex 229.85 328.658 0
      vertex 226.55 328.658 0
    endloop
  endfacet
  facet normal 0 -1 -0
    outer loop
      vertex 229.85 328.658 0
      vertex 226.55 328.658 -2
      vertex 229.85 328.658 -2
    endloop
  endfacet
  facet normal 0 1 -0
    outer loop
      vertex 229.85 322.942 -2
      vertex 226.55 322.942 0
      vertex 229.85 322.942 0
    endloop
  endfacet
  facet normal 0 1 0
    outer loop
      vertex 226.55 322.942 0
      vertex 229.85 322.942 -2
      vertex 226.55 322.942 -2
    endloop
  endfacet
  facet normal 0.866026 -0.499999 0
    outer loop
      vertex 224.9 325.8 0
      vertex 226.55 328.658 -2
      vertex 226.55 328.658 0
    endloop
  endfacet
  facet normal 0.866026 -0.499999 0
    outer loop
      vertex 226.55 328.658 -2
      vertex 224.9 325.8 0
      vertex 224.9 325.8 -2
    endloop
  endfacet
  facet normal 0.866024 0.500003 0
    outer loop
      vertex 226.55 322.942 0
      vertex 224.9 325.8 -2
      vertex 224.9 325.8 0
    endloop
  endfacet
  facet normal 0.866024 0.500003 0
    outer loop
      vertex 224.9 325.8 -2
      vertex 226.55 322.942 0
      vertex 226.55 322.942 -2
    endloop
  endfacet
  facet normal -0.866026 0.499999 0
    outer loop
      vertex 229.85 322.942 -2
      vertex 231.5 325.8 0
      vertex 231.5 325.8 -2
    endloop
  endfacet
  facet normal -0.866026 0.499999 0
    outer loop
      vertex 231.5 325.8 0
      vertex 229.85 322.942 -2
      vertex 229.85 322.942 0
    endloop
  endfacet
  facet normal 0 0 1
    outer loop
      vertex 238.833 327.347 0
      vertex 229.85 328.658 0
      vertex 231.5 325.8 0
    endloop
  endfacet
  facet normal 0 0 1
    outer loop
      vertex 227.833 338.347 0
      vertex 229.85 328.658 0
      vertex 236.333 335.847 0
    endloop
  endfacet
  facet normal 0 0 1
    outer loop
      vertex 227.833 338.347 0
      vertex 226.55 328.658 0
      vertex 229.85 328.658 0
    endloop
  endfacet
  facet normal 0 0 1
    outer loop
      vertex 211.1 321.037 0
      vertex 226.55 328.658 0
      vertex 227.833 338.347 0
    endloop
  endfacet
  facet normal 0 0 1
    outer loop
      vertex 226.55 322.942 0
      vertex 212.891 309.011 0
      vertex 223.553 309.011 0
    endloop
  endfacet
  facet normal 0 0 1
    outer loop
      vertex 226.55 328.658 0
      vertex 211.1 321.037 0
      vertex 224.9 325.8 0
    endloop
  endfacet
  facet normal 0 0 1
    outer loop
      vertex 226.55 322.942 0
      vertex 211.1 321.037 0
      vertex 212.891 309.011 0
    endloop
  endfacet
  facet normal -0 0 1
    outer loop
      vertex 211.1 311 0
      vertex 212.891 309.011 0
      vertex 211.1 321.037 0
    endloop
  endfacet
  facet normal 0 0 1
    outer loop
      vertex 212.891 309.011 0
      vertex 211.1 311 0
      vertex 212.482 309.098 0
    endloop
  endfacet
  facet normal 0 0 1
    outer loop
      vertex 212.482 309.098 0
      vertex 211.1 311 0
      vertex 212.1 309.268 0
    endloop
  endfacet
  facet normal 0 0 1
    outer loop
      vertex 212.1 309.268 0
      vertex 211.1 311 0
      vertex 211.762 309.514 0
    endloop
  endfacet
  facet normal 0 0 1
    outer loop
      vertex 211.482 309.824 0
      vertex 211.1 311 0
      vertex 211.273 310.187 0
    endloop
  endfacet
  facet normal 0 0 1
    outer loop
      vertex 211.762 309.514 0
      vertex 211.1 311 0
      vertex 211.482 309.824 0
    endloop
  endfacet
  facet normal 0 0 1
    outer loop
      vertex 211.273 310.187 0
      vertex 211.1 311 0
      vertex 211.144 310.584 0
    endloop
  endfacet
  facet normal -0 0 1
    outer loop
      vertex 229.85 328.658 0
      vertex 238.833 327.347 0
      vertex 236.333 335.847 0
    endloop
  endfacet
  facet normal 0 0 1
    outer loop
      vertex 229.85 322.942 0
      vertex 238.833 327.347 0
      vertex 231.5 325.8 0
    endloop
  endfacet
  facet normal -0 0 1
    outer loop
      vertex 229.85 322.942 0
      vertex 223.553 309.011 0
      vertex 238.833 327.347 0
    endloop
  endfacet
  facet normal -0 0 1
    outer loop
      vertex 226.55 322.942 0
      vertex 223.553 309.011 0
      vertex 229.85 322.942 0
    endloop
  endfacet
  facet normal 0 0 1
    outer loop
      vertex 211.1 321.037 0
      vertex 226.55 322.942 0
      vertex 224.9 325.8 0
    endloop
  endfacet
  facet normal 0 0 -1
    outer loop
      vertex 230.156 326.216 6.6
      vertex 238.833 327.347 6.6
      vertex 230.2 325.8 6.6
    endloop
  endfacet
  facet normal 0 0 -1
    outer loop
      vertex 238.833 327.347 6.6
      vertex 230.156 325.384 6.6
      vertex 230.2 325.8 6.6
    endloop
  endfacet
  facet normal 0 0 -1
    outer loop
      vertex 238.833 327.347 6.6
      vertex 230.027 324.987 6.6
      vertex 230.156 325.384 6.6
    endloop
  endfacet
  facet normal 0 0 -1
    outer loop
      vertex 238.833 327.347 6.6
      vertex 229.818 324.624 6.6
      vertex 230.027 324.987 6.6
    endloop
  endfacet
  facet normal 0 0 -1
    outer loop
      vertex 238.833 327.347 6.6
      vertex 229.538 324.314 6.6
      vertex 229.818 324.624 6.6
    endloop
  endfacet
  facet normal 0 0 -1
    outer loop
      vertex 223.553 309.011 6.6
      vertex 229.538 324.314 6.6
      vertex 238.833 327.347 6.6
    endloop
  endfacet
  facet normal 0 0 -1
    outer loop
      vertex 229.538 324.314 6.6
      vertex 223.553 309.011 6.6
      vertex 229.2 324.068 6.6
    endloop
  endfacet
  facet normal -0 0 -1
    outer loop
      vertex 226.373 324.987 6.6
      vertex 211.1 321.037 6.6
      vertex 226.244 325.384 6.6
    endloop
  endfacet
  facet normal -0 0 -1
    outer loop
      vertex 226.582 324.624 6.6
      vertex 211.1 321.037 6.6
      vertex 226.373 324.987 6.6
    endloop
  endfacet
  facet normal -0 0 -1
    outer loop
      vertex 226.862 324.314 6.6
      vertex 211.1 321.037 6.6
      vertex 226.582 324.624 6.6
    endloop
  endfacet
  facet normal 0 0 -1
    outer loop
      vertex 211.1 321.037 6.6
      vertex 226.862 324.314 6.6
      vertex 223.553 309.011 6.6
    endloop
  endfacet
  facet normal -0 0 -1
    outer loop
      vertex 227.2 324.068 6.6
      vertex 223.553 309.011 6.6
      vertex 226.862 324.314 6.6
    endloop
  endfacet
  facet normal -0 0 -1
    outer loop
      vertex 227.582 323.898 6.6
      vertex 223.553 309.011 6.6
      vertex 227.2 324.068 6.6
    endloop
  endfacet
  facet normal -0 0 -1
    outer loop
      vertex 227.991 323.811 6.6
      vertex 223.553 309.011 6.6
      vertex 227.582 323.898 6.6
    endloop
  endfacet
  facet normal -0 0 -1
    outer loop
      vertex 228.409 323.811 6.6
      vertex 223.553 309.011 6.6
      vertex 227.991 323.811 6.6
    endloop
  endfacet
  facet normal 0 0 -1
    outer loop
      vertex 228.818 323.898 6.6
      vertex 223.553 309.011 6.6
      vertex 228.409 323.811 6.6
    endloop
  endfacet
  facet normal 0 0 -1
    outer loop
      vertex 229.2 324.068 6.6
      vertex 223.553 309.011 6.6
      vertex 228.818 323.898 6.6
    endloop
  endfacet
  facet normal 0 0 -1
    outer loop
      vertex 230.027 326.613 6.6
      vertex 238.833 327.347 6.6
      vertex 230.156 326.216 6.6
    endloop
  endfacet
  facet normal 0 0 -1
    outer loop
      vertex 229.818 326.976 6.6
      vertex 238.833 327.347 6.6
      vertex 230.027 326.613 6.6
    endloop
  endfacet
  facet normal -0 0 -1
    outer loop
      vertex 238.833 327.347 6.6
      vertex 229.818 326.976 6.6
      vertex 236.333 335.847 6.6
    endloop
  endfacet
  facet normal 0 0 -1
    outer loop
      vertex 229.538 327.286 6.6
      vertex 236.333 335.847 6.6
      vertex 229.818 326.976 6.6
    endloop
  endfacet
  facet normal 0 0 -1
    outer loop
      vertex 229.2 327.532 6.6
      vertex 236.333 335.847 6.6
      vertex 229.538 327.286 6.6
    endloop
  endfacet
  facet normal 0 0 -1
    outer loop
      vertex 228.818 327.702 6.6
      vertex 236.333 335.847 6.6
      vertex 229.2 327.532 6.6
    endloop
  endfacet
  facet normal 0 0 -1
    outer loop
      vertex 227.833 338.347 6.6
      vertex 228.818 327.702 6.6
      vertex 228.409 327.789 6.6
    endloop
  endfacet
  facet normal 0 0 -1
    outer loop
      vertex 227.833 338.347 6.6
      vertex 228.409 327.789 6.6
      vertex 227.991 327.789 6.6
    endloop
  endfacet
  facet normal 0 0 -1
    outer loop
      vertex 228.818 327.702 6.6
      vertex 227.833 338.347 6.6
      vertex 236.333 335.847 6.6
    endloop
  endfacet
  facet normal 0 0 -1
    outer loop
      vertex 227.582 327.702 6.6
      vertex 227.833 338.347 6.6
      vertex 227.991 327.789 6.6
    endloop
  endfacet
  facet normal 0 0 -1
    outer loop
      vertex 227.2 327.532 6.6
      vertex 227.833 338.347 6.6
      vertex 227.582 327.702 6.6
    endloop
  endfacet
  facet normal 0 0 -1
    outer loop
      vertex 226.862 327.286 6.6
      vertex 227.833 338.347 6.6
      vertex 227.2 327.532 6.6
    endloop
  endfacet
  facet normal 0 0 -1
    outer loop
      vertex 226.582 326.976 6.6
      vertex 227.833 338.347 6.6
      vertex 226.862 327.286 6.6
    endloop
  endfacet
  facet normal 0 0 -1
    outer loop
      vertex 211.1 321.037 6.6
      vertex 226.582 326.976 6.6
      vertex 226.373 326.613 6.6
    endloop
  endfacet
  facet normal 0 0 -1
    outer loop
      vertex 211.1 321.037 6.6
      vertex 226.373 326.613 6.6
      vertex 226.244 326.216 6.6
    endloop
  endfacet
  facet normal -0 0 -1
    outer loop
      vertex 226.244 325.384 6.6
      vertex 211.1 321.037 6.6
      vertex 226.2 325.8 6.6
    endloop
  endfacet
  facet normal -0 0 -1
    outer loop
      vertex 226.2 325.8 6.6
      vertex 211.1 321.037 6.6
      vertex 226.244 326.216 6.6
    endloop
  endfacet
  facet normal 0 0 -1
    outer loop
      vertex 211.1 311 6.6
      vertex 223.553 309.011 6.6
      vertex 212.891 309.011 6.6
    endloop
  endfacet
  facet normal 0 0 -1
    outer loop
      vertex 211.1 311 6.6
      vertex 212.891 309.011 6.6
      vertex 212.482 309.098 6.6
    endloop
  endfacet
  facet normal 0 0 -1
    outer loop
      vertex 211.1 311 6.6
      vertex 212.482 309.098 6.6
      vertex 212.1 309.268 6.6
    endloop
  endfacet
  facet normal 0 0 -1
    outer loop
      vertex 211.1 311 6.6
      vertex 212.1 309.268 6.6
      vertex 211.762 309.514 6.6
    endloop
  endfacet
  facet normal 0 0 -1
    outer loop
      vertex 211.1 311 6.6
      vertex 211.762 309.514 6.6
      vertex 211.482 309.824 6.6
    endloop
  endfacet
  facet normal 0 0 -1
    outer loop
      vertex 211.1 311 6.6
      vertex 211.482 309.824 6.6
      vertex 211.273 310.187 6.6
    endloop
  endfacet
  facet normal 0 0 -1
    outer loop
      vertex 211.1 311 6.6
      vertex 211.273 310.187 6.6
      vertex 211.144 310.584 6.6
    endloop
  endfacet
  facet normal 0 0 -1
    outer loop
      vertex 223.553 309.011 6.6
      vertex 211.1 311 6.6
      vertex 211.1 321.037 6.6
    endloop
  endfacet
  facet normal -0 0 -1
    outer loop
      vertex 226.582 326.976 6.6
      vertex 211.1 321.037 6.6
      vertex 227.833 338.347 6.6
    endloop
  endfacet
  facet normal -0.768221 0.640185 0
    outer loop
      vertex 223.553 309.011 0
      vertex 238.833 327.347 6.6
      vertex 238.833 327.347 0
    endloop
  endfacet
  facet normal -0.768221 0.640185 0
    outer loop
      vertex 238.833 327.347 6.6
      vertex 223.553 309.011 0
      vertex 223.553 309.011 6.6
    endloop
  endfacet
  facet normal -0.959366 -0.282166 0
    outer loop
      vertex 238.833 327.347 0
      vertex 236.333 335.847 6.6
      vertex 236.333 335.847 0
    endloop
  endfacet
  facet normal -0.959366 -0.282166 0
    outer loop
      vertex 236.333 335.847 6.6
      vertex 238.833 327.347 0
      vertex 238.833 327.347 6.6
    endloop
  endfacet
  facet normal -0.282166 -0.959366 0
    outer loop
      vertex 227.833 338.347 0
      vertex 236.333 335.847 6.6
      vertex 227.833 338.347 6.6
    endloop
  endfacet
  facet normal -0.282166 -0.959366 -0
    outer loop
      vertex 236.333 335.847 6.6
      vertex 227.833 338.347 0
      vertex 236.333 335.847 0
    endloop
  endfacet
  facet normal 0.718988 -0.695022 0
    outer loop
      vertex 211.1 321.037 6.6
      vertex 227.833 338.347 0
      vertex 227.833 338.347 6.6
    endloop
  endfacet
  facet normal 0.718988 -0.695022 0
    outer loop
      vertex 227.833 338.347 0
      vertex 211.1 321.037 6.6
      vertex 211.1 321.037 0
    endloop
  endfacet
  facet normal 0 0 -1
    outer loop
      vertex 211.1 311 -0.4
      vertex 223.7 309.011 -0.4
      vertex 212.891 309.011 -0.4
    endloop
  endfacet
  facet normal 0 0 -1
    outer loop
      vertex 223.7 309.011 -0.4
      vertex 211.1 311 -0.4
      vertex 223.7 342.989 -0.4
    endloop
  endfacet
  facet normal 0 0 -1
    outer loop
      vertex 211.1 311 -0.4
      vertex 212.891 309.011 -0.4
      vertex 212.482 309.098 -0.4
    endloop
  endfacet
  facet normal 0 0 -1
    outer loop
      vertex 211.1 341 -0.4
      vertex 223.7 342.989 -0.4
      vertex 211.1 311 -0.4
    endloop
  endfacet
  facet normal 0 0 -1
    outer loop
      vertex 212.891 342.989 -0.4
      vertex 211.1 341 -0.4
      vertex 212.482 342.902 -0.4
    endloop
  endfacet
  facet normal 0 0 -1
    outer loop
      vertex 211.1 311 -0.4
      vertex 212.482 309.098 -0.4
      vertex 212.1 309.268 -0.4
    endloop
  endfacet
  facet normal 0 0 -1
    outer loop
      vertex 211.1 311 -0.4
      vertex 212.1 309.268 -0.4
      vertex 211.762 309.514 -0.4
    endloop
  endfacet
  facet normal -0 0 -1
    outer loop
      vertex 223.7 342.989 -0.4
      vertex 211.1 341 -0.4
      vertex 212.891 342.989 -0.4
    endloop
  endfacet
  facet normal 0 0 -1
    outer loop
      vertex 211.1 311 -0.4
      vertex 211.762 309.514 -0.4
      vertex 211.482 309.824 -0.4
    endloop
  endfacet
  facet normal 0 0 -1
    outer loop
      vertex 212.482 342.902 -0.4
      vertex 211.1 341 -0.4
      vertex 212.1 342.732 -0.4
    endloop
  endfacet
  facet normal 0 0 -1
    outer loop
      vertex 211.1 311 -0.4
      vertex 211.482 309.824 -0.4
      vertex 211.273 310.187 -0.4
    endloop
  endfacet
  facet normal 0 0 -1
    outer loop
      vertex 212.1 342.732 -0.4
      vertex 211.1 341 -0.4
      vertex 211.762 342.486 -0.4
    endloop
  endfacet
  facet normal 0 0 -1
    outer loop
      vertex 211.1 311 -0.4
      vertex 211.273 310.187 -0.4
      vertex 211.144 310.584 -0.4
    endloop
  endfacet
  facet normal 0 0 -1
    outer loop
      vertex 211.762 342.486 -0.4
      vertex 211.1 341 -0.4
      vertex 211.482 342.176 -0.4
    endloop
  endfacet
  facet normal 0 0 -1
    outer loop
      vertex 211.482 342.176 -0.4
      vertex 211.1 341 -0.4
      vertex 211.273 341.813 -0.4
    endloop
  endfacet
  facet normal 0 0 -1
    outer loop
      vertex 211.273 341.813 -0.4
      vertex 211.1 341 -0.4
      vertex 211.144 341.416 -0.4
    endloop
  endfacet
  facet normal -1 0 0
    outer loop
      vertex 223.7 327.878 -1
      vertex 223.7 342.989 -0.4
      vertex 223.7 342.989 -1
    endloop
  endfacet
  facet normal -1 0 0
    outer loop
      vertex 223.7 323.722 -1
      vertex 223.7 327.811 -1.03226
      vertex 223.7 325.8 -2
    endloop
  endfacet
  facet normal -1 0 0
    outer loop
      vertex 223.7 327.811 -1.03226
      vertex 223.7 323.722 -1
      vertex 223.7 327.878 -1
    endloop
  endfacet
  facet normal -1 0 0
    outer loop
      vertex 223.7 323.722 -1
      vertex 223.7 342.989 -0.4
      vertex 223.7 327.878 -1
    endloop
  endfacet
  facet normal -1 0 0
    outer loop
      vertex 223.7 309.011 -0.4
      vertex 223.7 323.722 -1
      vertex 223.7 309.011 -1
    endloop
  endfacet
  facet normal -1 0 0
    outer loop
      vertex 223.7 323.722 -1
      vertex 223.7 309.011 -0.4
      vertex 223.7 342.989 -0.4
    endloop
  endfacet
endsolid OpenSCAD_Model
